<?xml version="1.0" standalone="no"?>
<!DOCTYPE svg PUBLIC "-//W3C//DTD SVG 1.1//EN" "http://www.w3.org/Graphics/SVG/1.1/DTD/svg11.dtd" >
<svg xmlns="http://www.w3.org/2000/svg" xmlns:xlink="http://www.w3.org/1999/xlink" version="1.1">
<metadata></metadata>
<defs>
<font id="chocolate_dealerbold" horiz-adv-x="2441" >
<font-face units-per-em="2048" ascent="1638" descent="-410" />
<missing-glyph horiz-adv-x="294" />
<glyph horiz-adv-x="0" />
<glyph horiz-adv-x="682" />
<glyph unicode=" "  horiz-adv-x="294" />
<glyph unicode="&#x09;" horiz-adv-x="294" />
<glyph unicode="&#xa0;" horiz-adv-x="294" />
<glyph unicode="0" d="M2324 193q3 -72 -65 -72q-67 0 -70 78l17 14l22 -12q3 -43 29 -43q27 3 27 32q0 21 -33 54q-25 22 -47 47q-11 29 -11 41q0 69 64 69q62 0 65 -63l-38 -8q-3 35 -27 35q-21 0 -21 -31q0 -20 54 -74q34 -34 34 -67zM2075 123v233h-43v41h129v-41h-45v-233l-21 -14zM2269 0 h-8l35 74h8zM2185 2h-10v57h10l29 -34l27 34h10v-57h-13v39l-24 -33h-2l-27 33v-39zM987 1245l180 393l174 -391l431 -49l-318 -287l88 -424l-373 213l-376 -213l88 418l-320 293zM1855 397h48l53 -184v184h43v-274h-45l-58 176v-176h-41v235l-14 19zM2079 16v29q0 14 14 14 h43q14 0 14 -14v-29q0 -14 -14 -14h-43q-14 0 -14 14zM2044 37v10h-37v-35h37v13l12 -2v-7q0 -14 -14 -14h-35q-14 0 -14 14v29q0 14 14 14h35q14 0 14 -14v-6zM1753 401q66 0 66 -65v-150q0 -65 -66 -65q-65 0 -65 65v150q0 65 65 65zM1950 23h18q2 -2 2 -5v-12q0 -2 -2 -4 h-16q-2 0 -2 2v19zM1931 49h-26v-47h-15v47h-26v10h67v-10zM1583 240v-117h-41v233l-14 21l14 20h117v-41h-76v-75h55v-41h-55zM1776 16v29q0 14 14 14h43q14 0 14 -14v-29q0 -14 -14 -14h-43q-14 0 -14 14zM1706 2h-14v57h51q14 0 14 -12v-12q0 -10 -14 -10h-37v-23z M1485 164v-41h-113v274l21 17l20 -17v-233h72zM1657 43v6h-39v-12h37q14 0 14 -14v-7q0 -14 -14 -14h-37q-14 0 -14 14l10 2v-6h43v13h-37q-14 0 -14 14v6q0 14 14 14h33q14 0 14 -12v-2zM1567 43v4h-43v-35h43v13h-23v10h37v-19q0 -14 -14 -14h-41q-15 0 -15 14v29 q0 14 15 14h41q14 0 14 -14zM1343 123h-116v233l-15 21l15 20h116v-41h-75v-75h55v-41h-55v-76h75v-41zM1415 16v29q0 14 15 14h45q14 0 14 -14v-29q0 -14 -14 -14h-45q-15 0 -15 14zM1401 2h-58v57h15v-47h43v-10zM1124 119q-65 0 -65 65v150q0 67 65 67q66 0 66 -67v-31 h-43v33q0 24 -23 24q-24 0 -24 -24v-150q0 -24 24 -24q23 0 23 24v54h-23l-16 18l16 23h66v-97q0 -65 -66 -65zM1303 2h-48v57h52q12 0 12 -12v-6q0 -7 -8 -10q10 -3 10 -11v-8q0 -10 -18 -10zM1212 23h19v-21h-17q-4 0 -4 4v12q0 3 2 5zM893 397h63q66 0 66 -65v-39 q0 -29 -23 -49l31 -121h-45l-24 104h-27v-104h-41v235l-14 19zM1196 2h-57v57h14v-47h43v-10zM1118 2h-61v57h61v-10h-47v-12h27v-10h-27v-15h47v-10zM805 186h-43l-10 -63l-23 -12l-20 12l45 274h57l47 -274l-22 -12l-23 12zM1020 43v4h-43v-35h43v13h-23v10h37v-19 q0 -14 -14 -14h-41q-14 0 -14 14v29q0 14 14 14h41q14 0 14 -14zM893 2h-14v57h51q12 0 12 -12v-12q0 -12 -12 -12h-8l26 -21h-18l-25 21h-12v-21zM799 2h-15l33 57h14l33 -57h-14l-8 12h-37zM555 123v115l-55 159h45l30 -98l31 98h45l-55 -159v-115h-41zM756 2h-13v25 l-30 32h18l19 -22l20 22h16l-30 -30v-27zM522 164v-41h-112v274l18 17l23 -17v-233h71zM721 2h-59v57h14v-47h45v-10zM647 2h-57v57h12v-47h45v-10zM381 164v-41h-113v274l19 17l22 -17v-233h72zM563 2h-12v57h12v-57zM510 2h-47v57h51q12 0 12 -12v-6q0 -7 -10 -10 q10 -3 10 -11v-8q0 -10 -16 -10zM418 0h-8l34 74h9zM231 397v-274l-22 -14l-21 14v274h43zM381 0h-8l35 74h8zM350 59h10q3 0 5 -2v-18h-21v18q2 2 6 2zM344 23h21v-21h-19l-2 2v19zM90 123h-76v233l-14 19l14 22h62q71 0 71 -75q0 -40 -28 -56q35 -12 35 -65q0 -78 -64 -78 zM274 2h-14v57h51q15 0 15 -12v-12q0 -10 -15 -10h-37v-23zM244 49h-29v-47h-12v47h-27v10h68v-10zM170 49h-27v-47h-14v47h-27v10h68v-10zM29 2h-15v57h15v-22h43v22h12v-57h-12v25h-43v-25zM1280 698l45 29l-98 592h-123l-100 -592l47 -29l45 29l22 135h92l21 -135z M2091 47v-35h47v35h-47zM1776 186v150q0 24 -23 24q-24 0 -24 -24v-150q0 -24 24 -24q23 0 23 24zM1788 47v-35h45v35h-45zM1737 49h-31v-14h31q6 0 6 4v6q0 4 -6 4zM1430 47v-35h45v35h-45zM1300 49h-30v-12h30q7 0 7 4v4q0 4 -7 4zM1300 27h-30v-15h30q7 0 7 4v7q0 4 -7 4 zM981 291v41q0 22 -23 22h-24v-86h24q23 0 23 23zM799 227l-17 107l-14 -107h31zM924 49h-31v-16h31q6 0 6 4v8q0 4 -6 4zM823 49l-12 -24h27zM508 49h-33v-12h33q6 0 6 4v4q0 4 -6 4zM508 27h-33v-15h33q6 0 6 4v7q0 4 -6 4zM59 356v-71h17q28 0 28 37q0 34 -28 34h-17z M305 49h-31v-14h31q6 0 6 4v6q0 4 -6 4zM59 246v-82h17q33 0 33 39q0 43 -33 43h-17zM1130 950l33 234l35 -234h-68z" />
<glyph unicode="1" d="M2324 193q3 -72 -65 -72q-67 0 -70 78l17 14l22 -12q3 -43 29 -43q27 3 27 32q0 21 -33 54q-25 22 -47 47q-11 29 -11 41q0 69 64 69q62 0 65 -63l-38 -8q-3 35 -27 35q-21 0 -21 -31q0 -20 54 -74q34 -34 34 -67zM2075 123v233h-43v41h129v-41h-45v-233l-21 -14zM2269 0 h-8l35 74h8zM2185 2h-10v57h10l29 -34l27 34h10v-57h-13v39l-24 -33h-2l-27 33v-39zM987 1245l180 393l174 -391l431 -49l-318 -287l88 -424l-373 213l-376 -213l88 418l-320 293zM1855 397h48l53 -184v184h43v-274h-45l-58 176v-176h-41v235l-14 19zM2079 16v29q0 14 14 14 h43q14 0 14 -14v-29q0 -14 -14 -14h-43q-14 0 -14 14zM2044 37v10h-37v-35h37v13l12 -2v-7q0 -14 -14 -14h-35q-14 0 -14 14v29q0 14 14 14h35q14 0 14 -14v-6zM1753 401q66 0 66 -65v-150q0 -65 -66 -65q-65 0 -65 65v150q0 65 65 65zM1950 23h18q2 -2 2 -5v-12q0 -2 -2 -4 h-16q-2 0 -2 2v19zM1931 49h-26v-47h-15v47h-26v10h67v-10zM1583 240v-117h-41v233l-14 21l14 20h117v-41h-76v-75h55v-41h-55zM1776 16v29q0 14 14 14h43q14 0 14 -14v-29q0 -14 -14 -14h-43q-14 0 -14 14zM1706 2h-14v57h51q14 0 14 -12v-12q0 -10 -14 -10h-37v-23z M1485 164v-41h-113v274l21 17l20 -17v-233h72zM1657 43v6h-39v-12h37q14 0 14 -14v-7q0 -14 -14 -14h-37q-14 0 -14 14l10 2v-6h43v13h-37q-14 0 -14 14v6q0 14 14 14h33q14 0 14 -12v-2zM1567 43v4h-43v-35h43v13h-23v10h37v-19q0 -14 -14 -14h-41q-15 0 -15 14v29 q0 14 15 14h41q14 0 14 -14zM1343 123h-116v233l-15 21l15 20h116v-41h-75v-75h55v-41h-55v-76h75v-41zM1415 16v29q0 14 15 14h45q14 0 14 -14v-29q0 -14 -14 -14h-45q-15 0 -15 14zM1401 2h-58v57h15v-47h43v-10zM1124 119q-65 0 -65 65v150q0 67 65 67q66 0 66 -67v-31 h-43v33q0 24 -23 24q-24 0 -24 -24v-150q0 -24 24 -24q23 0 23 24v54h-23l-16 18l16 23h66v-97q0 -65 -66 -65zM1303 2h-48v57h52q12 0 12 -12v-6q0 -7 -8 -10q10 -3 10 -11v-8q0 -10 -18 -10zM1212 23h19v-21h-17q-4 0 -4 4v12q0 3 2 5zM893 397h63q66 0 66 -65v-39 q0 -29 -23 -49l31 -121h-45l-24 104h-27v-104h-41v235l-14 19zM1196 2h-57v57h14v-47h43v-10zM1118 2h-61v57h61v-10h-47v-12h27v-10h-27v-15h47v-10zM805 186h-43l-10 -63l-23 -12l-20 12l45 274h57l47 -274l-22 -12l-23 12zM1020 43v4h-43v-35h43v13h-23v10h37v-19 q0 -14 -14 -14h-41q-14 0 -14 14v29q0 14 14 14h41q14 0 14 -14zM893 2h-14v57h51q12 0 12 -12v-12q0 -12 -12 -12h-8l26 -21h-18l-25 21h-12v-21zM799 2h-15l33 57h14l33 -57h-14l-8 12h-37zM555 123v115l-55 159h45l30 -98l31 98h45l-55 -159v-115h-41zM756 2h-13v25 l-30 32h18l19 -22l20 22h16l-30 -30v-27zM522 164v-41h-112v274l18 17l23 -17v-233h71zM721 2h-59v57h14v-47h45v-10zM647 2h-57v57h12v-47h45v-10zM381 164v-41h-113v274l19 17l22 -17v-233h72zM563 2h-12v57h12v-57zM510 2h-47v57h51q12 0 12 -12v-6q0 -7 -10 -10 q10 -3 10 -11v-8q0 -10 -16 -10zM418 0h-8l34 74h9zM231 397v-274l-22 -14l-21 14v274h43zM381 0h-8l35 74h8zM350 59h10q3 0 5 -2v-18h-21v18q2 2 6 2zM344 23h21v-21h-19l-2 2v19zM90 123h-76v233l-14 19l14 22h62q71 0 71 -75q0 -40 -28 -56q35 -12 35 -65q0 -78 -64 -78 zM274 2h-14v57h51q15 0 15 -12v-12q0 -10 -15 -10h-37v-23zM244 49h-29v-47h-12v47h-27v10h68v-10zM170 49h-27v-47h-14v47h-27v10h68v-10zM29 2h-15v57h15v-22h43v22h12v-57h-12v25h-43v-25zM1280 698l45 29l-98 592h-123l-100 -592l47 -29l45 29l22 135h92l21 -135z M2091 47v-35h47v35h-47zM1776 186v150q0 24 -23 24q-24 0 -24 -24v-150q0 -24 24 -24q23 0 23 24zM1788 47v-35h45v35h-45zM1737 49h-31v-14h31q6 0 6 4v6q0 4 -6 4zM1430 47v-35h45v35h-45zM1300 49h-30v-12h30q7 0 7 4v4q0 4 -7 4zM1300 27h-30v-15h30q7 0 7 4v7q0 4 -7 4 zM981 291v41q0 22 -23 22h-24v-86h24q23 0 23 23zM799 227l-17 107l-14 -107h31zM924 49h-31v-16h31q6 0 6 4v8q0 4 -6 4zM823 49l-12 -24h27zM508 49h-33v-12h33q6 0 6 4v4q0 4 -6 4zM508 27h-33v-15h33q6 0 6 4v7q0 4 -6 4zM59 356v-71h17q28 0 28 37q0 34 -28 34h-17z M305 49h-31v-14h31q6 0 6 4v6q0 4 -6 4zM59 246v-82h17q33 0 33 39q0 43 -33 43h-17zM1130 950l33 234l35 -234h-68z" />
<glyph unicode="2" d="M2324 193q3 -72 -65 -72q-67 0 -70 78l17 14l22 -12q3 -43 29 -43q27 3 27 32q0 21 -33 54q-25 22 -47 47q-11 29 -11 41q0 69 64 69q62 0 65 -63l-38 -8q-3 35 -27 35q-21 0 -21 -31q0 -20 54 -74q34 -34 34 -67zM2075 123v233h-43v41h129v-41h-45v-233l-21 -14zM2269 0 h-8l35 74h8zM2185 2h-10v57h10l29 -34l27 34h10v-57h-13v39l-24 -33h-2l-27 33v-39zM987 1245l180 393l174 -391l431 -49l-318 -287l88 -424l-373 213l-376 -213l88 418l-320 293zM1855 397h48l53 -184v184h43v-274h-45l-58 176v-176h-41v235l-14 19zM2079 16v29q0 14 14 14 h43q14 0 14 -14v-29q0 -14 -14 -14h-43q-14 0 -14 14zM2044 37v10h-37v-35h37v13l12 -2v-7q0 -14 -14 -14h-35q-14 0 -14 14v29q0 14 14 14h35q14 0 14 -14v-6zM1753 401q66 0 66 -65v-150q0 -65 -66 -65q-65 0 -65 65v150q0 65 65 65zM1950 23h18q2 -2 2 -5v-12q0 -2 -2 -4 h-16q-2 0 -2 2v19zM1931 49h-26v-47h-15v47h-26v10h67v-10zM1583 240v-117h-41v233l-14 21l14 20h117v-41h-76v-75h55v-41h-55zM1776 16v29q0 14 14 14h43q14 0 14 -14v-29q0 -14 -14 -14h-43q-14 0 -14 14zM1706 2h-14v57h51q14 0 14 -12v-12q0 -10 -14 -10h-37v-23z M1485 164v-41h-113v274l21 17l20 -17v-233h72zM1657 43v6h-39v-12h37q14 0 14 -14v-7q0 -14 -14 -14h-37q-14 0 -14 14l10 2v-6h43v13h-37q-14 0 -14 14v6q0 14 14 14h33q14 0 14 -12v-2zM1567 43v4h-43v-35h43v13h-23v10h37v-19q0 -14 -14 -14h-41q-15 0 -15 14v29 q0 14 15 14h41q14 0 14 -14zM1343 123h-116v233l-15 21l15 20h116v-41h-75v-75h55v-41h-55v-76h75v-41zM1415 16v29q0 14 15 14h45q14 0 14 -14v-29q0 -14 -14 -14h-45q-15 0 -15 14zM1401 2h-58v57h15v-47h43v-10zM1124 119q-65 0 -65 65v150q0 67 65 67q66 0 66 -67v-31 h-43v33q0 24 -23 24q-24 0 -24 -24v-150q0 -24 24 -24q23 0 23 24v54h-23l-16 18l16 23h66v-97q0 -65 -66 -65zM1303 2h-48v57h52q12 0 12 -12v-6q0 -7 -8 -10q10 -3 10 -11v-8q0 -10 -18 -10zM1212 23h19v-21h-17q-4 0 -4 4v12q0 3 2 5zM893 397h63q66 0 66 -65v-39 q0 -29 -23 -49l31 -121h-45l-24 104h-27v-104h-41v235l-14 19zM1196 2h-57v57h14v-47h43v-10zM1118 2h-61v57h61v-10h-47v-12h27v-10h-27v-15h47v-10zM805 186h-43l-10 -63l-23 -12l-20 12l45 274h57l47 -274l-22 -12l-23 12zM1020 43v4h-43v-35h43v13h-23v10h37v-19 q0 -14 -14 -14h-41q-14 0 -14 14v29q0 14 14 14h41q14 0 14 -14zM893 2h-14v57h51q12 0 12 -12v-12q0 -12 -12 -12h-8l26 -21h-18l-25 21h-12v-21zM799 2h-15l33 57h14l33 -57h-14l-8 12h-37zM555 123v115l-55 159h45l30 -98l31 98h45l-55 -159v-115h-41zM756 2h-13v25 l-30 32h18l19 -22l20 22h16l-30 -30v-27zM522 164v-41h-112v274l18 17l23 -17v-233h71zM721 2h-59v57h14v-47h45v-10zM647 2h-57v57h12v-47h45v-10zM381 164v-41h-113v274l19 17l22 -17v-233h72zM563 2h-12v57h12v-57zM510 2h-47v57h51q12 0 12 -12v-6q0 -7 -10 -10 q10 -3 10 -11v-8q0 -10 -16 -10zM418 0h-8l34 74h9zM231 397v-274l-22 -14l-21 14v274h43zM381 0h-8l35 74h8zM350 59h10q3 0 5 -2v-18h-21v18q2 2 6 2zM344 23h21v-21h-19l-2 2v19zM90 123h-76v233l-14 19l14 22h62q71 0 71 -75q0 -40 -28 -56q35 -12 35 -65q0 -78 -64 -78 zM274 2h-14v57h51q15 0 15 -12v-12q0 -10 -15 -10h-37v-23zM244 49h-29v-47h-12v47h-27v10h68v-10zM170 49h-27v-47h-14v47h-27v10h68v-10zM29 2h-15v57h15v-22h43v22h12v-57h-12v25h-43v-25zM1280 698l45 29l-98 592h-123l-100 -592l47 -29l45 29l22 135h92l21 -135z M2091 47v-35h47v35h-47zM1776 186v150q0 24 -23 24q-24 0 -24 -24v-150q0 -24 24 -24q23 0 23 24zM1788 47v-35h45v35h-45zM1737 49h-31v-14h31q6 0 6 4v6q0 4 -6 4zM1430 47v-35h45v35h-45zM1300 49h-30v-12h30q7 0 7 4v4q0 4 -7 4zM1300 27h-30v-15h30q7 0 7 4v7q0 4 -7 4 zM981 291v41q0 22 -23 22h-24v-86h24q23 0 23 23zM799 227l-17 107l-14 -107h31zM924 49h-31v-16h31q6 0 6 4v8q0 4 -6 4zM823 49l-12 -24h27zM508 49h-33v-12h33q6 0 6 4v4q0 4 -6 4zM508 27h-33v-15h33q6 0 6 4v7q0 4 -6 4zM59 356v-71h17q28 0 28 37q0 34 -28 34h-17z M305 49h-31v-14h31q6 0 6 4v6q0 4 -6 4zM59 246v-82h17q33 0 33 39q0 43 -33 43h-17zM1130 950l33 234l35 -234h-68z" />
<glyph unicode="3" d="M2324 193q3 -72 -65 -72q-67 0 -70 78l17 14l22 -12q3 -43 29 -43q27 3 27 32q0 21 -33 54q-25 22 -47 47q-11 29 -11 41q0 69 64 69q62 0 65 -63l-38 -8q-3 35 -27 35q-21 0 -21 -31q0 -20 54 -74q34 -34 34 -67zM2075 123v233h-43v41h129v-41h-45v-233l-21 -14zM2269 0 h-8l35 74h8zM2185 2h-10v57h10l29 -34l27 34h10v-57h-13v39l-24 -33h-2l-27 33v-39zM987 1245l180 393l174 -391l431 -49l-318 -287l88 -424l-373 213l-376 -213l88 418l-320 293zM1855 397h48l53 -184v184h43v-274h-45l-58 176v-176h-41v235l-14 19zM2079 16v29q0 14 14 14 h43q14 0 14 -14v-29q0 -14 -14 -14h-43q-14 0 -14 14zM2044 37v10h-37v-35h37v13l12 -2v-7q0 -14 -14 -14h-35q-14 0 -14 14v29q0 14 14 14h35q14 0 14 -14v-6zM1753 401q66 0 66 -65v-150q0 -65 -66 -65q-65 0 -65 65v150q0 65 65 65zM1950 23h18q2 -2 2 -5v-12q0 -2 -2 -4 h-16q-2 0 -2 2v19zM1931 49h-26v-47h-15v47h-26v10h67v-10zM1583 240v-117h-41v233l-14 21l14 20h117v-41h-76v-75h55v-41h-55zM1776 16v29q0 14 14 14h43q14 0 14 -14v-29q0 -14 -14 -14h-43q-14 0 -14 14zM1706 2h-14v57h51q14 0 14 -12v-12q0 -10 -14 -10h-37v-23z M1485 164v-41h-113v274l21 17l20 -17v-233h72zM1657 43v6h-39v-12h37q14 0 14 -14v-7q0 -14 -14 -14h-37q-14 0 -14 14l10 2v-6h43v13h-37q-14 0 -14 14v6q0 14 14 14h33q14 0 14 -12v-2zM1567 43v4h-43v-35h43v13h-23v10h37v-19q0 -14 -14 -14h-41q-15 0 -15 14v29 q0 14 15 14h41q14 0 14 -14zM1343 123h-116v233l-15 21l15 20h116v-41h-75v-75h55v-41h-55v-76h75v-41zM1415 16v29q0 14 15 14h45q14 0 14 -14v-29q0 -14 -14 -14h-45q-15 0 -15 14zM1401 2h-58v57h15v-47h43v-10zM1124 119q-65 0 -65 65v150q0 67 65 67q66 0 66 -67v-31 h-43v33q0 24 -23 24q-24 0 -24 -24v-150q0 -24 24 -24q23 0 23 24v54h-23l-16 18l16 23h66v-97q0 -65 -66 -65zM1303 2h-48v57h52q12 0 12 -12v-6q0 -7 -8 -10q10 -3 10 -11v-8q0 -10 -18 -10zM1212 23h19v-21h-17q-4 0 -4 4v12q0 3 2 5zM893 397h63q66 0 66 -65v-39 q0 -29 -23 -49l31 -121h-45l-24 104h-27v-104h-41v235l-14 19zM1196 2h-57v57h14v-47h43v-10zM1118 2h-61v57h61v-10h-47v-12h27v-10h-27v-15h47v-10zM805 186h-43l-10 -63l-23 -12l-20 12l45 274h57l47 -274l-22 -12l-23 12zM1020 43v4h-43v-35h43v13h-23v10h37v-19 q0 -14 -14 -14h-41q-14 0 -14 14v29q0 14 14 14h41q14 0 14 -14zM893 2h-14v57h51q12 0 12 -12v-12q0 -12 -12 -12h-8l26 -21h-18l-25 21h-12v-21zM799 2h-15l33 57h14l33 -57h-14l-8 12h-37zM555 123v115l-55 159h45l30 -98l31 98h45l-55 -159v-115h-41zM756 2h-13v25 l-30 32h18l19 -22l20 22h16l-30 -30v-27zM522 164v-41h-112v274l18 17l23 -17v-233h71zM721 2h-59v57h14v-47h45v-10zM647 2h-57v57h12v-47h45v-10zM381 164v-41h-113v274l19 17l22 -17v-233h72zM563 2h-12v57h12v-57zM510 2h-47v57h51q12 0 12 -12v-6q0 -7 -10 -10 q10 -3 10 -11v-8q0 -10 -16 -10zM418 0h-8l34 74h9zM231 397v-274l-22 -14l-21 14v274h43zM381 0h-8l35 74h8zM350 59h10q3 0 5 -2v-18h-21v18q2 2 6 2zM344 23h21v-21h-19l-2 2v19zM90 123h-76v233l-14 19l14 22h62q71 0 71 -75q0 -40 -28 -56q35 -12 35 -65q0 -78 -64 -78 zM274 2h-14v57h51q15 0 15 -12v-12q0 -10 -15 -10h-37v-23zM244 49h-29v-47h-12v47h-27v10h68v-10zM170 49h-27v-47h-14v47h-27v10h68v-10zM29 2h-15v57h15v-22h43v22h12v-57h-12v25h-43v-25zM1280 698l45 29l-98 592h-123l-100 -592l47 -29l45 29l22 135h92l21 -135z M2091 47v-35h47v35h-47zM1776 186v150q0 24 -23 24q-24 0 -24 -24v-150q0 -24 24 -24q23 0 23 24zM1788 47v-35h45v35h-45zM1737 49h-31v-14h31q6 0 6 4v6q0 4 -6 4zM1430 47v-35h45v35h-45zM1300 49h-30v-12h30q7 0 7 4v4q0 4 -7 4zM1300 27h-30v-15h30q7 0 7 4v7q0 4 -7 4 zM981 291v41q0 22 -23 22h-24v-86h24q23 0 23 23zM799 227l-17 107l-14 -107h31zM924 49h-31v-16h31q6 0 6 4v8q0 4 -6 4zM823 49l-12 -24h27zM508 49h-33v-12h33q6 0 6 4v4q0 4 -6 4zM508 27h-33v-15h33q6 0 6 4v7q0 4 -6 4zM59 356v-71h17q28 0 28 37q0 34 -28 34h-17z M305 49h-31v-14h31q6 0 6 4v6q0 4 -6 4zM59 246v-82h17q33 0 33 39q0 43 -33 43h-17zM1130 950l33 234l35 -234h-68z" />
<glyph unicode="4" d="M2324 193q3 -72 -65 -72q-67 0 -70 78l17 14l22 -12q3 -43 29 -43q27 3 27 32q0 21 -33 54q-25 22 -47 47q-11 29 -11 41q0 69 64 69q62 0 65 -63l-38 -8q-3 35 -27 35q-21 0 -21 -31q0 -20 54 -74q34 -34 34 -67zM2075 123v233h-43v41h129v-41h-45v-233l-21 -14zM2269 0 h-8l35 74h8zM2185 2h-10v57h10l29 -34l27 34h10v-57h-13v39l-24 -33h-2l-27 33v-39zM987 1245l180 393l174 -391l431 -49l-318 -287l88 -424l-373 213l-376 -213l88 418l-320 293zM1855 397h48l53 -184v184h43v-274h-45l-58 176v-176h-41v235l-14 19zM2079 16v29q0 14 14 14 h43q14 0 14 -14v-29q0 -14 -14 -14h-43q-14 0 -14 14zM2044 37v10h-37v-35h37v13l12 -2v-7q0 -14 -14 -14h-35q-14 0 -14 14v29q0 14 14 14h35q14 0 14 -14v-6zM1753 401q66 0 66 -65v-150q0 -65 -66 -65q-65 0 -65 65v150q0 65 65 65zM1950 23h18q2 -2 2 -5v-12q0 -2 -2 -4 h-16q-2 0 -2 2v19zM1931 49h-26v-47h-15v47h-26v10h67v-10zM1583 240v-117h-41v233l-14 21l14 20h117v-41h-76v-75h55v-41h-55zM1776 16v29q0 14 14 14h43q14 0 14 -14v-29q0 -14 -14 -14h-43q-14 0 -14 14zM1706 2h-14v57h51q14 0 14 -12v-12q0 -10 -14 -10h-37v-23z M1485 164v-41h-113v274l21 17l20 -17v-233h72zM1657 43v6h-39v-12h37q14 0 14 -14v-7q0 -14 -14 -14h-37q-14 0 -14 14l10 2v-6h43v13h-37q-14 0 -14 14v6q0 14 14 14h33q14 0 14 -12v-2zM1567 43v4h-43v-35h43v13h-23v10h37v-19q0 -14 -14 -14h-41q-15 0 -15 14v29 q0 14 15 14h41q14 0 14 -14zM1343 123h-116v233l-15 21l15 20h116v-41h-75v-75h55v-41h-55v-76h75v-41zM1415 16v29q0 14 15 14h45q14 0 14 -14v-29q0 -14 -14 -14h-45q-15 0 -15 14zM1401 2h-58v57h15v-47h43v-10zM1124 119q-65 0 -65 65v150q0 67 65 67q66 0 66 -67v-31 h-43v33q0 24 -23 24q-24 0 -24 -24v-150q0 -24 24 -24q23 0 23 24v54h-23l-16 18l16 23h66v-97q0 -65 -66 -65zM1303 2h-48v57h52q12 0 12 -12v-6q0 -7 -8 -10q10 -3 10 -11v-8q0 -10 -18 -10zM1212 23h19v-21h-17q-4 0 -4 4v12q0 3 2 5zM893 397h63q66 0 66 -65v-39 q0 -29 -23 -49l31 -121h-45l-24 104h-27v-104h-41v235l-14 19zM1196 2h-57v57h14v-47h43v-10zM1118 2h-61v57h61v-10h-47v-12h27v-10h-27v-15h47v-10zM805 186h-43l-10 -63l-23 -12l-20 12l45 274h57l47 -274l-22 -12l-23 12zM1020 43v4h-43v-35h43v13h-23v10h37v-19 q0 -14 -14 -14h-41q-14 0 -14 14v29q0 14 14 14h41q14 0 14 -14zM893 2h-14v57h51q12 0 12 -12v-12q0 -12 -12 -12h-8l26 -21h-18l-25 21h-12v-21zM799 2h-15l33 57h14l33 -57h-14l-8 12h-37zM555 123v115l-55 159h45l30 -98l31 98h45l-55 -159v-115h-41zM756 2h-13v25 l-30 32h18l19 -22l20 22h16l-30 -30v-27zM522 164v-41h-112v274l18 17l23 -17v-233h71zM721 2h-59v57h14v-47h45v-10zM647 2h-57v57h12v-47h45v-10zM381 164v-41h-113v274l19 17l22 -17v-233h72zM563 2h-12v57h12v-57zM510 2h-47v57h51q12 0 12 -12v-6q0 -7 -10 -10 q10 -3 10 -11v-8q0 -10 -16 -10zM418 0h-8l34 74h9zM231 397v-274l-22 -14l-21 14v274h43zM381 0h-8l35 74h8zM350 59h10q3 0 5 -2v-18h-21v18q2 2 6 2zM344 23h21v-21h-19l-2 2v19zM90 123h-76v233l-14 19l14 22h62q71 0 71 -75q0 -40 -28 -56q35 -12 35 -65q0 -78 -64 -78 zM274 2h-14v57h51q15 0 15 -12v-12q0 -10 -15 -10h-37v-23zM244 49h-29v-47h-12v47h-27v10h68v-10zM170 49h-27v-47h-14v47h-27v10h68v-10zM29 2h-15v57h15v-22h43v22h12v-57h-12v25h-43v-25zM1280 698l45 29l-98 592h-123l-100 -592l47 -29l45 29l22 135h92l21 -135z M2091 47v-35h47v35h-47zM1776 186v150q0 24 -23 24q-24 0 -24 -24v-150q0 -24 24 -24q23 0 23 24zM1788 47v-35h45v35h-45zM1737 49h-31v-14h31q6 0 6 4v6q0 4 -6 4zM1430 47v-35h45v35h-45zM1300 49h-30v-12h30q7 0 7 4v4q0 4 -7 4zM1300 27h-30v-15h30q7 0 7 4v7q0 4 -7 4 zM981 291v41q0 22 -23 22h-24v-86h24q23 0 23 23zM799 227l-17 107l-14 -107h31zM924 49h-31v-16h31q6 0 6 4v8q0 4 -6 4zM823 49l-12 -24h27zM508 49h-33v-12h33q6 0 6 4v4q0 4 -6 4zM508 27h-33v-15h33q6 0 6 4v7q0 4 -6 4zM59 356v-71h17q28 0 28 37q0 34 -28 34h-17z M305 49h-31v-14h31q6 0 6 4v6q0 4 -6 4zM59 246v-82h17q33 0 33 39q0 43 -33 43h-17zM1130 950l33 234l35 -234h-68z" />
<glyph unicode="5" d="M2324 193q3 -72 -65 -72q-67 0 -70 78l17 14l22 -12q3 -43 29 -43q27 3 27 32q0 21 -33 54q-25 22 -47 47q-11 29 -11 41q0 69 64 69q62 0 65 -63l-38 -8q-3 35 -27 35q-21 0 -21 -31q0 -20 54 -74q34 -34 34 -67zM2075 123v233h-43v41h129v-41h-45v-233l-21 -14zM2269 0 h-8l35 74h8zM2185 2h-10v57h10l29 -34l27 34h10v-57h-13v39l-24 -33h-2l-27 33v-39zM987 1245l180 393l174 -391l431 -49l-318 -287l88 -424l-373 213l-376 -213l88 418l-320 293zM1855 397h48l53 -184v184h43v-274h-45l-58 176v-176h-41v235l-14 19zM2079 16v29q0 14 14 14 h43q14 0 14 -14v-29q0 -14 -14 -14h-43q-14 0 -14 14zM2044 37v10h-37v-35h37v13l12 -2v-7q0 -14 -14 -14h-35q-14 0 -14 14v29q0 14 14 14h35q14 0 14 -14v-6zM1753 401q66 0 66 -65v-150q0 -65 -66 -65q-65 0 -65 65v150q0 65 65 65zM1950 23h18q2 -2 2 -5v-12q0 -2 -2 -4 h-16q-2 0 -2 2v19zM1931 49h-26v-47h-15v47h-26v10h67v-10zM1583 240v-117h-41v233l-14 21l14 20h117v-41h-76v-75h55v-41h-55zM1776 16v29q0 14 14 14h43q14 0 14 -14v-29q0 -14 -14 -14h-43q-14 0 -14 14zM1706 2h-14v57h51q14 0 14 -12v-12q0 -10 -14 -10h-37v-23z M1485 164v-41h-113v274l21 17l20 -17v-233h72zM1657 43v6h-39v-12h37q14 0 14 -14v-7q0 -14 -14 -14h-37q-14 0 -14 14l10 2v-6h43v13h-37q-14 0 -14 14v6q0 14 14 14h33q14 0 14 -12v-2zM1567 43v4h-43v-35h43v13h-23v10h37v-19q0 -14 -14 -14h-41q-15 0 -15 14v29 q0 14 15 14h41q14 0 14 -14zM1343 123h-116v233l-15 21l15 20h116v-41h-75v-75h55v-41h-55v-76h75v-41zM1415 16v29q0 14 15 14h45q14 0 14 -14v-29q0 -14 -14 -14h-45q-15 0 -15 14zM1401 2h-58v57h15v-47h43v-10zM1124 119q-65 0 -65 65v150q0 67 65 67q66 0 66 -67v-31 h-43v33q0 24 -23 24q-24 0 -24 -24v-150q0 -24 24 -24q23 0 23 24v54h-23l-16 18l16 23h66v-97q0 -65 -66 -65zM1303 2h-48v57h52q12 0 12 -12v-6q0 -7 -8 -10q10 -3 10 -11v-8q0 -10 -18 -10zM1212 23h19v-21h-17q-4 0 -4 4v12q0 3 2 5zM893 397h63q66 0 66 -65v-39 q0 -29 -23 -49l31 -121h-45l-24 104h-27v-104h-41v235l-14 19zM1196 2h-57v57h14v-47h43v-10zM1118 2h-61v57h61v-10h-47v-12h27v-10h-27v-15h47v-10zM805 186h-43l-10 -63l-23 -12l-20 12l45 274h57l47 -274l-22 -12l-23 12zM1020 43v4h-43v-35h43v13h-23v10h37v-19 q0 -14 -14 -14h-41q-14 0 -14 14v29q0 14 14 14h41q14 0 14 -14zM893 2h-14v57h51q12 0 12 -12v-12q0 -12 -12 -12h-8l26 -21h-18l-25 21h-12v-21zM799 2h-15l33 57h14l33 -57h-14l-8 12h-37zM555 123v115l-55 159h45l30 -98l31 98h45l-55 -159v-115h-41zM756 2h-13v25 l-30 32h18l19 -22l20 22h16l-30 -30v-27zM522 164v-41h-112v274l18 17l23 -17v-233h71zM721 2h-59v57h14v-47h45v-10zM647 2h-57v57h12v-47h45v-10zM381 164v-41h-113v274l19 17l22 -17v-233h72zM563 2h-12v57h12v-57zM510 2h-47v57h51q12 0 12 -12v-6q0 -7 -10 -10 q10 -3 10 -11v-8q0 -10 -16 -10zM418 0h-8l34 74h9zM231 397v-274l-22 -14l-21 14v274h43zM381 0h-8l35 74h8zM350 59h10q3 0 5 -2v-18h-21v18q2 2 6 2zM344 23h21v-21h-19l-2 2v19zM90 123h-76v233l-14 19l14 22h62q71 0 71 -75q0 -40 -28 -56q35 -12 35 -65q0 -78 -64 -78 zM274 2h-14v57h51q15 0 15 -12v-12q0 -10 -15 -10h-37v-23zM244 49h-29v-47h-12v47h-27v10h68v-10zM170 49h-27v-47h-14v47h-27v10h68v-10zM29 2h-15v57h15v-22h43v22h12v-57h-12v25h-43v-25zM1280 698l45 29l-98 592h-123l-100 -592l47 -29l45 29l22 135h92l21 -135z M2091 47v-35h47v35h-47zM1776 186v150q0 24 -23 24q-24 0 -24 -24v-150q0 -24 24 -24q23 0 23 24zM1788 47v-35h45v35h-45zM1737 49h-31v-14h31q6 0 6 4v6q0 4 -6 4zM1430 47v-35h45v35h-45zM1300 49h-30v-12h30q7 0 7 4v4q0 4 -7 4zM1300 27h-30v-15h30q7 0 7 4v7q0 4 -7 4 zM981 291v41q0 22 -23 22h-24v-86h24q23 0 23 23zM799 227l-17 107l-14 -107h31zM924 49h-31v-16h31q6 0 6 4v8q0 4 -6 4zM823 49l-12 -24h27zM508 49h-33v-12h33q6 0 6 4v4q0 4 -6 4zM508 27h-33v-15h33q6 0 6 4v7q0 4 -6 4zM59 356v-71h17q28 0 28 37q0 34 -28 34h-17z M305 49h-31v-14h31q6 0 6 4v6q0 4 -6 4zM59 246v-82h17q33 0 33 39q0 43 -33 43h-17zM1130 950l33 234l35 -234h-68z" />
<glyph unicode="6" d="M2324 193q3 -72 -65 -72q-67 0 -70 78l17 14l22 -12q3 -43 29 -43q27 3 27 32q0 21 -33 54q-25 22 -47 47q-11 29 -11 41q0 69 64 69q62 0 65 -63l-38 -8q-3 35 -27 35q-21 0 -21 -31q0 -20 54 -74q34 -34 34 -67zM2075 123v233h-43v41h129v-41h-45v-233l-21 -14zM2269 0 h-8l35 74h8zM2185 2h-10v57h10l29 -34l27 34h10v-57h-13v39l-24 -33h-2l-27 33v-39zM987 1245l180 393l174 -391l431 -49l-318 -287l88 -424l-373 213l-376 -213l88 418l-320 293zM1855 397h48l53 -184v184h43v-274h-45l-58 176v-176h-41v235l-14 19zM2079 16v29q0 14 14 14 h43q14 0 14 -14v-29q0 -14 -14 -14h-43q-14 0 -14 14zM2044 37v10h-37v-35h37v13l12 -2v-7q0 -14 -14 -14h-35q-14 0 -14 14v29q0 14 14 14h35q14 0 14 -14v-6zM1753 401q66 0 66 -65v-150q0 -65 -66 -65q-65 0 -65 65v150q0 65 65 65zM1950 23h18q2 -2 2 -5v-12q0 -2 -2 -4 h-16q-2 0 -2 2v19zM1931 49h-26v-47h-15v47h-26v10h67v-10zM1583 240v-117h-41v233l-14 21l14 20h117v-41h-76v-75h55v-41h-55zM1776 16v29q0 14 14 14h43q14 0 14 -14v-29q0 -14 -14 -14h-43q-14 0 -14 14zM1706 2h-14v57h51q14 0 14 -12v-12q0 -10 -14 -10h-37v-23z M1485 164v-41h-113v274l21 17l20 -17v-233h72zM1657 43v6h-39v-12h37q14 0 14 -14v-7q0 -14 -14 -14h-37q-14 0 -14 14l10 2v-6h43v13h-37q-14 0 -14 14v6q0 14 14 14h33q14 0 14 -12v-2zM1567 43v4h-43v-35h43v13h-23v10h37v-19q0 -14 -14 -14h-41q-15 0 -15 14v29 q0 14 15 14h41q14 0 14 -14zM1343 123h-116v233l-15 21l15 20h116v-41h-75v-75h55v-41h-55v-76h75v-41zM1415 16v29q0 14 15 14h45q14 0 14 -14v-29q0 -14 -14 -14h-45q-15 0 -15 14zM1401 2h-58v57h15v-47h43v-10zM1124 119q-65 0 -65 65v150q0 67 65 67q66 0 66 -67v-31 h-43v33q0 24 -23 24q-24 0 -24 -24v-150q0 -24 24 -24q23 0 23 24v54h-23l-16 18l16 23h66v-97q0 -65 -66 -65zM1303 2h-48v57h52q12 0 12 -12v-6q0 -7 -8 -10q10 -3 10 -11v-8q0 -10 -18 -10zM1212 23h19v-21h-17q-4 0 -4 4v12q0 3 2 5zM893 397h63q66 0 66 -65v-39 q0 -29 -23 -49l31 -121h-45l-24 104h-27v-104h-41v235l-14 19zM1196 2h-57v57h14v-47h43v-10zM1118 2h-61v57h61v-10h-47v-12h27v-10h-27v-15h47v-10zM805 186h-43l-10 -63l-23 -12l-20 12l45 274h57l47 -274l-22 -12l-23 12zM1020 43v4h-43v-35h43v13h-23v10h37v-19 q0 -14 -14 -14h-41q-14 0 -14 14v29q0 14 14 14h41q14 0 14 -14zM893 2h-14v57h51q12 0 12 -12v-12q0 -12 -12 -12h-8l26 -21h-18l-25 21h-12v-21zM799 2h-15l33 57h14l33 -57h-14l-8 12h-37zM555 123v115l-55 159h45l30 -98l31 98h45l-55 -159v-115h-41zM756 2h-13v25 l-30 32h18l19 -22l20 22h16l-30 -30v-27zM522 164v-41h-112v274l18 17l23 -17v-233h71zM721 2h-59v57h14v-47h45v-10zM647 2h-57v57h12v-47h45v-10zM381 164v-41h-113v274l19 17l22 -17v-233h72zM563 2h-12v57h12v-57zM510 2h-47v57h51q12 0 12 -12v-6q0 -7 -10 -10 q10 -3 10 -11v-8q0 -10 -16 -10zM418 0h-8l34 74h9zM231 397v-274l-22 -14l-21 14v274h43zM381 0h-8l35 74h8zM350 59h10q3 0 5 -2v-18h-21v18q2 2 6 2zM344 23h21v-21h-19l-2 2v19zM90 123h-76v233l-14 19l14 22h62q71 0 71 -75q0 -40 -28 -56q35 -12 35 -65q0 -78 -64 -78 zM274 2h-14v57h51q15 0 15 -12v-12q0 -10 -15 -10h-37v-23zM244 49h-29v-47h-12v47h-27v10h68v-10zM170 49h-27v-47h-14v47h-27v10h68v-10zM29 2h-15v57h15v-22h43v22h12v-57h-12v25h-43v-25zM1280 698l45 29l-98 592h-123l-100 -592l47 -29l45 29l22 135h92l21 -135z M2091 47v-35h47v35h-47zM1776 186v150q0 24 -23 24q-24 0 -24 -24v-150q0 -24 24 -24q23 0 23 24zM1788 47v-35h45v35h-45zM1737 49h-31v-14h31q6 0 6 4v6q0 4 -6 4zM1430 47v-35h45v35h-45zM1300 49h-30v-12h30q7 0 7 4v4q0 4 -7 4zM1300 27h-30v-15h30q7 0 7 4v7q0 4 -7 4 zM981 291v41q0 22 -23 22h-24v-86h24q23 0 23 23zM799 227l-17 107l-14 -107h31zM924 49h-31v-16h31q6 0 6 4v8q0 4 -6 4zM823 49l-12 -24h27zM508 49h-33v-12h33q6 0 6 4v4q0 4 -6 4zM508 27h-33v-15h33q6 0 6 4v7q0 4 -6 4zM59 356v-71h17q28 0 28 37q0 34 -28 34h-17z M305 49h-31v-14h31q6 0 6 4v6q0 4 -6 4zM59 246v-82h17q33 0 33 39q0 43 -33 43h-17zM1130 950l33 234l35 -234h-68z" />
<glyph unicode="7" d="M2324 193q3 -72 -65 -72q-67 0 -70 78l17 14l22 -12q3 -43 29 -43q27 3 27 32q0 21 -33 54q-25 22 -47 47q-11 29 -11 41q0 69 64 69q62 0 65 -63l-38 -8q-3 35 -27 35q-21 0 -21 -31q0 -20 54 -74q34 -34 34 -67zM2075 123v233h-43v41h129v-41h-45v-233l-21 -14zM2269 0 h-8l35 74h8zM2185 2h-10v57h10l29 -34l27 34h10v-57h-13v39l-24 -33h-2l-27 33v-39zM987 1245l180 393l174 -391l431 -49l-318 -287l88 -424l-373 213l-376 -213l88 418l-320 293zM1855 397h48l53 -184v184h43v-274h-45l-58 176v-176h-41v235l-14 19zM2079 16v29q0 14 14 14 h43q14 0 14 -14v-29q0 -14 -14 -14h-43q-14 0 -14 14zM2044 37v10h-37v-35h37v13l12 -2v-7q0 -14 -14 -14h-35q-14 0 -14 14v29q0 14 14 14h35q14 0 14 -14v-6zM1753 401q66 0 66 -65v-150q0 -65 -66 -65q-65 0 -65 65v150q0 65 65 65zM1950 23h18q2 -2 2 -5v-12q0 -2 -2 -4 h-16q-2 0 -2 2v19zM1931 49h-26v-47h-15v47h-26v10h67v-10zM1583 240v-117h-41v233l-14 21l14 20h117v-41h-76v-75h55v-41h-55zM1776 16v29q0 14 14 14h43q14 0 14 -14v-29q0 -14 -14 -14h-43q-14 0 -14 14zM1706 2h-14v57h51q14 0 14 -12v-12q0 -10 -14 -10h-37v-23z M1485 164v-41h-113v274l21 17l20 -17v-233h72zM1657 43v6h-39v-12h37q14 0 14 -14v-7q0 -14 -14 -14h-37q-14 0 -14 14l10 2v-6h43v13h-37q-14 0 -14 14v6q0 14 14 14h33q14 0 14 -12v-2zM1567 43v4h-43v-35h43v13h-23v10h37v-19q0 -14 -14 -14h-41q-15 0 -15 14v29 q0 14 15 14h41q14 0 14 -14zM1343 123h-116v233l-15 21l15 20h116v-41h-75v-75h55v-41h-55v-76h75v-41zM1415 16v29q0 14 15 14h45q14 0 14 -14v-29q0 -14 -14 -14h-45q-15 0 -15 14zM1401 2h-58v57h15v-47h43v-10zM1124 119q-65 0 -65 65v150q0 67 65 67q66 0 66 -67v-31 h-43v33q0 24 -23 24q-24 0 -24 -24v-150q0 -24 24 -24q23 0 23 24v54h-23l-16 18l16 23h66v-97q0 -65 -66 -65zM1303 2h-48v57h52q12 0 12 -12v-6q0 -7 -8 -10q10 -3 10 -11v-8q0 -10 -18 -10zM1212 23h19v-21h-17q-4 0 -4 4v12q0 3 2 5zM893 397h63q66 0 66 -65v-39 q0 -29 -23 -49l31 -121h-45l-24 104h-27v-104h-41v235l-14 19zM1196 2h-57v57h14v-47h43v-10zM1118 2h-61v57h61v-10h-47v-12h27v-10h-27v-15h47v-10zM805 186h-43l-10 -63l-23 -12l-20 12l45 274h57l47 -274l-22 -12l-23 12zM1020 43v4h-43v-35h43v13h-23v10h37v-19 q0 -14 -14 -14h-41q-14 0 -14 14v29q0 14 14 14h41q14 0 14 -14zM893 2h-14v57h51q12 0 12 -12v-12q0 -12 -12 -12h-8l26 -21h-18l-25 21h-12v-21zM799 2h-15l33 57h14l33 -57h-14l-8 12h-37zM555 123v115l-55 159h45l30 -98l31 98h45l-55 -159v-115h-41zM756 2h-13v25 l-30 32h18l19 -22l20 22h16l-30 -30v-27zM522 164v-41h-112v274l18 17l23 -17v-233h71zM721 2h-59v57h14v-47h45v-10zM647 2h-57v57h12v-47h45v-10zM381 164v-41h-113v274l19 17l22 -17v-233h72zM563 2h-12v57h12v-57zM510 2h-47v57h51q12 0 12 -12v-6q0 -7 -10 -10 q10 -3 10 -11v-8q0 -10 -16 -10zM418 0h-8l34 74h9zM231 397v-274l-22 -14l-21 14v274h43zM381 0h-8l35 74h8zM350 59h10q3 0 5 -2v-18h-21v18q2 2 6 2zM344 23h21v-21h-19l-2 2v19zM90 123h-76v233l-14 19l14 22h62q71 0 71 -75q0 -40 -28 -56q35 -12 35 -65q0 -78 -64 -78 zM274 2h-14v57h51q15 0 15 -12v-12q0 -10 -15 -10h-37v-23zM244 49h-29v-47h-12v47h-27v10h68v-10zM170 49h-27v-47h-14v47h-27v10h68v-10zM29 2h-15v57h15v-22h43v22h12v-57h-12v25h-43v-25zM1280 698l45 29l-98 592h-123l-100 -592l47 -29l45 29l22 135h92l21 -135z M2091 47v-35h47v35h-47zM1776 186v150q0 24 -23 24q-24 0 -24 -24v-150q0 -24 24 -24q23 0 23 24zM1788 47v-35h45v35h-45zM1737 49h-31v-14h31q6 0 6 4v6q0 4 -6 4zM1430 47v-35h45v35h-45zM1300 49h-30v-12h30q7 0 7 4v4q0 4 -7 4zM1300 27h-30v-15h30q7 0 7 4v7q0 4 -7 4 zM981 291v41q0 22 -23 22h-24v-86h24q23 0 23 23zM799 227l-17 107l-14 -107h31zM924 49h-31v-16h31q6 0 6 4v8q0 4 -6 4zM823 49l-12 -24h27zM508 49h-33v-12h33q6 0 6 4v4q0 4 -6 4zM508 27h-33v-15h33q6 0 6 4v7q0 4 -6 4zM59 356v-71h17q28 0 28 37q0 34 -28 34h-17z M305 49h-31v-14h31q6 0 6 4v6q0 4 -6 4zM59 246v-82h17q33 0 33 39q0 43 -33 43h-17zM1130 950l33 234l35 -234h-68z" />
<glyph unicode="8" d="M2324 193q3 -72 -65 -72q-67 0 -70 78l17 14l22 -12q3 -43 29 -43q27 3 27 32q0 21 -33 54q-25 22 -47 47q-11 29 -11 41q0 69 64 69q62 0 65 -63l-38 -8q-3 35 -27 35q-21 0 -21 -31q0 -20 54 -74q34 -34 34 -67zM2075 123v233h-43v41h129v-41h-45v-233l-21 -14zM2269 0 h-8l35 74h8zM2185 2h-10v57h10l29 -34l27 34h10v-57h-13v39l-24 -33h-2l-27 33v-39zM987 1245l180 393l174 -391l431 -49l-318 -287l88 -424l-373 213l-376 -213l88 418l-320 293zM1855 397h48l53 -184v184h43v-274h-45l-58 176v-176h-41v235l-14 19zM2079 16v29q0 14 14 14 h43q14 0 14 -14v-29q0 -14 -14 -14h-43q-14 0 -14 14zM2044 37v10h-37v-35h37v13l12 -2v-7q0 -14 -14 -14h-35q-14 0 -14 14v29q0 14 14 14h35q14 0 14 -14v-6zM1753 401q66 0 66 -65v-150q0 -65 -66 -65q-65 0 -65 65v150q0 65 65 65zM1950 23h18q2 -2 2 -5v-12q0 -2 -2 -4 h-16q-2 0 -2 2v19zM1931 49h-26v-47h-15v47h-26v10h67v-10zM1583 240v-117h-41v233l-14 21l14 20h117v-41h-76v-75h55v-41h-55zM1776 16v29q0 14 14 14h43q14 0 14 -14v-29q0 -14 -14 -14h-43q-14 0 -14 14zM1706 2h-14v57h51q14 0 14 -12v-12q0 -10 -14 -10h-37v-23z M1485 164v-41h-113v274l21 17l20 -17v-233h72zM1657 43v6h-39v-12h37q14 0 14 -14v-7q0 -14 -14 -14h-37q-14 0 -14 14l10 2v-6h43v13h-37q-14 0 -14 14v6q0 14 14 14h33q14 0 14 -12v-2zM1567 43v4h-43v-35h43v13h-23v10h37v-19q0 -14 -14 -14h-41q-15 0 -15 14v29 q0 14 15 14h41q14 0 14 -14zM1343 123h-116v233l-15 21l15 20h116v-41h-75v-75h55v-41h-55v-76h75v-41zM1415 16v29q0 14 15 14h45q14 0 14 -14v-29q0 -14 -14 -14h-45q-15 0 -15 14zM1401 2h-58v57h15v-47h43v-10zM1124 119q-65 0 -65 65v150q0 67 65 67q66 0 66 -67v-31 h-43v33q0 24 -23 24q-24 0 -24 -24v-150q0 -24 24 -24q23 0 23 24v54h-23l-16 18l16 23h66v-97q0 -65 -66 -65zM1303 2h-48v57h52q12 0 12 -12v-6q0 -7 -8 -10q10 -3 10 -11v-8q0 -10 -18 -10zM1212 23h19v-21h-17q-4 0 -4 4v12q0 3 2 5zM893 397h63q66 0 66 -65v-39 q0 -29 -23 -49l31 -121h-45l-24 104h-27v-104h-41v235l-14 19zM1196 2h-57v57h14v-47h43v-10zM1118 2h-61v57h61v-10h-47v-12h27v-10h-27v-15h47v-10zM805 186h-43l-10 -63l-23 -12l-20 12l45 274h57l47 -274l-22 -12l-23 12zM1020 43v4h-43v-35h43v13h-23v10h37v-19 q0 -14 -14 -14h-41q-14 0 -14 14v29q0 14 14 14h41q14 0 14 -14zM893 2h-14v57h51q12 0 12 -12v-12q0 -12 -12 -12h-8l26 -21h-18l-25 21h-12v-21zM799 2h-15l33 57h14l33 -57h-14l-8 12h-37zM555 123v115l-55 159h45l30 -98l31 98h45l-55 -159v-115h-41zM756 2h-13v25 l-30 32h18l19 -22l20 22h16l-30 -30v-27zM522 164v-41h-112v274l18 17l23 -17v-233h71zM721 2h-59v57h14v-47h45v-10zM647 2h-57v57h12v-47h45v-10zM381 164v-41h-113v274l19 17l22 -17v-233h72zM563 2h-12v57h12v-57zM510 2h-47v57h51q12 0 12 -12v-6q0 -7 -10 -10 q10 -3 10 -11v-8q0 -10 -16 -10zM418 0h-8l34 74h9zM231 397v-274l-22 -14l-21 14v274h43zM381 0h-8l35 74h8zM350 59h10q3 0 5 -2v-18h-21v18q2 2 6 2zM344 23h21v-21h-19l-2 2v19zM90 123h-76v233l-14 19l14 22h62q71 0 71 -75q0 -40 -28 -56q35 -12 35 -65q0 -78 -64 -78 zM274 2h-14v57h51q15 0 15 -12v-12q0 -10 -15 -10h-37v-23zM244 49h-29v-47h-12v47h-27v10h68v-10zM170 49h-27v-47h-14v47h-27v10h68v-10zM29 2h-15v57h15v-22h43v22h12v-57h-12v25h-43v-25zM1280 698l45 29l-98 592h-123l-100 -592l47 -29l45 29l22 135h92l21 -135z M2091 47v-35h47v35h-47zM1776 186v150q0 24 -23 24q-24 0 -24 -24v-150q0 -24 24 -24q23 0 23 24zM1788 47v-35h45v35h-45zM1737 49h-31v-14h31q6 0 6 4v6q0 4 -6 4zM1430 47v-35h45v35h-45zM1300 49h-30v-12h30q7 0 7 4v4q0 4 -7 4zM1300 27h-30v-15h30q7 0 7 4v7q0 4 -7 4 zM981 291v41q0 22 -23 22h-24v-86h24q23 0 23 23zM799 227l-17 107l-14 -107h31zM924 49h-31v-16h31q6 0 6 4v8q0 4 -6 4zM823 49l-12 -24h27zM508 49h-33v-12h33q6 0 6 4v4q0 4 -6 4zM508 27h-33v-15h33q6 0 6 4v7q0 4 -6 4zM59 356v-71h17q28 0 28 37q0 34 -28 34h-17z M305 49h-31v-14h31q6 0 6 4v6q0 4 -6 4zM59 246v-82h17q33 0 33 39q0 43 -33 43h-17zM1130 950l33 234l35 -234h-68z" />
<glyph unicode="9" d="M2324 193q3 -72 -65 -72q-67 0 -70 78l17 14l22 -12q3 -43 29 -43q27 3 27 32q0 21 -33 54q-25 22 -47 47q-11 29 -11 41q0 69 64 69q62 0 65 -63l-38 -8q-3 35 -27 35q-21 0 -21 -31q0 -20 54 -74q34 -34 34 -67zM2075 123v233h-43v41h129v-41h-45v-233l-21 -14zM2269 0 h-8l35 74h8zM2185 2h-10v57h10l29 -34l27 34h10v-57h-13v39l-24 -33h-2l-27 33v-39zM987 1245l180 393l174 -391l431 -49l-318 -287l88 -424l-373 213l-376 -213l88 418l-320 293zM1855 397h48l53 -184v184h43v-274h-45l-58 176v-176h-41v235l-14 19zM2079 16v29q0 14 14 14 h43q14 0 14 -14v-29q0 -14 -14 -14h-43q-14 0 -14 14zM2044 37v10h-37v-35h37v13l12 -2v-7q0 -14 -14 -14h-35q-14 0 -14 14v29q0 14 14 14h35q14 0 14 -14v-6zM1753 401q66 0 66 -65v-150q0 -65 -66 -65q-65 0 -65 65v150q0 65 65 65zM1950 23h18q2 -2 2 -5v-12q0 -2 -2 -4 h-16q-2 0 -2 2v19zM1931 49h-26v-47h-15v47h-26v10h67v-10zM1583 240v-117h-41v233l-14 21l14 20h117v-41h-76v-75h55v-41h-55zM1776 16v29q0 14 14 14h43q14 0 14 -14v-29q0 -14 -14 -14h-43q-14 0 -14 14zM1706 2h-14v57h51q14 0 14 -12v-12q0 -10 -14 -10h-37v-23z M1485 164v-41h-113v274l21 17l20 -17v-233h72zM1657 43v6h-39v-12h37q14 0 14 -14v-7q0 -14 -14 -14h-37q-14 0 -14 14l10 2v-6h43v13h-37q-14 0 -14 14v6q0 14 14 14h33q14 0 14 -12v-2zM1567 43v4h-43v-35h43v13h-23v10h37v-19q0 -14 -14 -14h-41q-15 0 -15 14v29 q0 14 15 14h41q14 0 14 -14zM1343 123h-116v233l-15 21l15 20h116v-41h-75v-75h55v-41h-55v-76h75v-41zM1415 16v29q0 14 15 14h45q14 0 14 -14v-29q0 -14 -14 -14h-45q-15 0 -15 14zM1401 2h-58v57h15v-47h43v-10zM1124 119q-65 0 -65 65v150q0 67 65 67q66 0 66 -67v-31 h-43v33q0 24 -23 24q-24 0 -24 -24v-150q0 -24 24 -24q23 0 23 24v54h-23l-16 18l16 23h66v-97q0 -65 -66 -65zM1303 2h-48v57h52q12 0 12 -12v-6q0 -7 -8 -10q10 -3 10 -11v-8q0 -10 -18 -10zM1212 23h19v-21h-17q-4 0 -4 4v12q0 3 2 5zM893 397h63q66 0 66 -65v-39 q0 -29 -23 -49l31 -121h-45l-24 104h-27v-104h-41v235l-14 19zM1196 2h-57v57h14v-47h43v-10zM1118 2h-61v57h61v-10h-47v-12h27v-10h-27v-15h47v-10zM805 186h-43l-10 -63l-23 -12l-20 12l45 274h57l47 -274l-22 -12l-23 12zM1020 43v4h-43v-35h43v13h-23v10h37v-19 q0 -14 -14 -14h-41q-14 0 -14 14v29q0 14 14 14h41q14 0 14 -14zM893 2h-14v57h51q12 0 12 -12v-12q0 -12 -12 -12h-8l26 -21h-18l-25 21h-12v-21zM799 2h-15l33 57h14l33 -57h-14l-8 12h-37zM555 123v115l-55 159h45l30 -98l31 98h45l-55 -159v-115h-41zM756 2h-13v25 l-30 32h18l19 -22l20 22h16l-30 -30v-27zM522 164v-41h-112v274l18 17l23 -17v-233h71zM721 2h-59v57h14v-47h45v-10zM647 2h-57v57h12v-47h45v-10zM381 164v-41h-113v274l19 17l22 -17v-233h72zM563 2h-12v57h12v-57zM510 2h-47v57h51q12 0 12 -12v-6q0 -7 -10 -10 q10 -3 10 -11v-8q0 -10 -16 -10zM418 0h-8l34 74h9zM231 397v-274l-22 -14l-21 14v274h43zM381 0h-8l35 74h8zM350 59h10q3 0 5 -2v-18h-21v18q2 2 6 2zM344 23h21v-21h-19l-2 2v19zM90 123h-76v233l-14 19l14 22h62q71 0 71 -75q0 -40 -28 -56q35 -12 35 -65q0 -78 -64 -78 zM274 2h-14v57h51q15 0 15 -12v-12q0 -10 -15 -10h-37v-23zM244 49h-29v-47h-12v47h-27v10h68v-10zM170 49h-27v-47h-14v47h-27v10h68v-10zM29 2h-15v57h15v-22h43v22h12v-57h-12v25h-43v-25zM1280 698l45 29l-98 592h-123l-100 -592l47 -29l45 29l22 135h92l21 -135z M2091 47v-35h47v35h-47zM1776 186v150q0 24 -23 24q-24 0 -24 -24v-150q0 -24 24 -24q23 0 23 24zM1788 47v-35h45v35h-45zM1737 49h-31v-14h31q6 0 6 4v6q0 4 -6 4zM1430 47v-35h45v35h-45zM1300 49h-30v-12h30q7 0 7 4v4q0 4 -7 4zM1300 27h-30v-15h30q7 0 7 4v7q0 4 -7 4 zM981 291v41q0 22 -23 22h-24v-86h24q23 0 23 23zM799 227l-17 107l-14 -107h31zM924 49h-31v-16h31q6 0 6 4v8q0 4 -6 4zM823 49l-12 -24h27zM508 49h-33v-12h33q6 0 6 4v4q0 4 -6 4zM508 27h-33v-15h33q6 0 6 4v7q0 4 -6 4zM59 356v-71h17q28 0 28 37q0 34 -28 34h-17z M305 49h-31v-14h31q6 0 6 4v6q0 4 -6 4zM59 246v-82h17q33 0 33 39q0 43 -33 43h-17zM1130 950l33 234l35 -234h-68z" />
<glyph unicode="A" horiz-adv-x="1232" d="M1227 561q-15 -119 -125 -182q-65 -39 -135 -39q-111 0 -164 109q-13 35 -15 57l-2 16q0 15 25 146q-3 20 -16 20q-7 0 -19 -6q-34 -9 -102 -33q-9 -3 -56 -59q-212 -246 -397 -246q-84 0 -145 43q-67 46 -76 125q-6 56 23 109q16 22 24 22q2 0 10 -4q72 -87 138 -84 q93 3 221 131q89 89 272 354l19 27l24 43q9 28 -24 45q-17 9 -48 12q-12 0 -14 2q-14 8 -14 21q0 31 102 55q116 30 195 51q129 29 194 29q17 0 45 -4q48 -15 39 -59q-6 -37 -63 -220q-67 -207 -82 -327q-4 -50 -4 -53q2 -39 25.5 -69t56.5 -24t67 49q10 10 13 7q5 -3 8 -23 q3 -15 0 -41zM1110 1276l6 4q0 10 -22 10q-24 0 -70 -12q-4 0 -156 -47q-98 -29 -157 -29q-15 -9 -15 -12l4 -4q28 -4 43 -4q50 0 160 37q86 27 207 57zM956 954q0 17 -4 21q-7 0 -12 -2.5t-9.5 -8.5t-8 -12.5t-8 -18.5t-7.5 -21.5t-8.5 -27t-9.5 -30.5q-12 -36 -27.5 -64.5 t-24.5 -39.5t-12 -13q-51 0 -51 -12q4 -4 10 -6q28 -4 35 -4q37 0 59.5 30t43.5 99q4 14 14 39.5t15 42t5 28.5zM895 981q3 9 -2 14q-7 7 -25 -24q-44 -71 -116 -180q-6 -16 -4 -21q3 -6 12 -6q57 0 80 29q13 24 55 188zM1155 514q0 7 -6 4q-8 -3 -8 -6q0 -2 2 -4q12 0 12 6 zM874 645q-3 17 -6 17q-13 0 -22 -46q-10 -48 -10 -63q0 -22 8 -25q15 9 30 117zM797 1100q0 8 -4 8q-11 0 -35 -37q-162 -243 -226 -321q-151 -183 -313 -244q-20 -3 -20 -10l6 -7q158 12 350 234q117 134 231 338q11 33 11 39zM55 530q6 3 6 17q0 20 -8 47q-4 4 -6 4 q-11 0 -8 -33q3 -32 16 -35z" />
<glyph unicode="B" horiz-adv-x="1044" d="M1067 1151q0 -133 -141 -219q-18 -12 -15 -25q5 -5 43 -22q93 -41 93 -131q0 -135 -164 -279q-213 -186 -496 -186q-145 0 -252 49q-144 65 -135 194q9 97 115 160q29 16 49 19q17 3 20 -9q3 -3 0 -26q-12 -125 119 -168q77 -23 143 -23q171 0 259 119q47 65 47 144 q-3 9 -15 30q-8 4 -12 4q-12 0 -29 -39q-21 -47 -82 -34l-36 14q-13 3 -29 -23q-13 -27 -82 -143l-25 -22q-29 -16 -57 -13q-109 12 -121 62q0 20 17 51l73 131q46 90 58 137l4 25q0 50 33 67q130 74 210 80q23 -4 29 -8q17 -14 14 -43q-23 -37 -49 -106q0 -14 13 -17l20 4 q116 58 143 135q5 30 5 35q0 82 -95 82q-109 0 -278 -117q-76 -55 -101 -86l-22 -34q-12 -15 -25 -15q-23 0 -41 47l-4 15q-18 78 2 123q57 81 183 151q177 100 356 115q108 8 183 -48.5t75 -156.5zM895 1051q-2 2 -4 2q-12 0 -62 -92q-6 -6 -92 -70q-64 -47 -57 -55 q82 9 147 71q68 65 68 144zM735 1274l84 22q-5 6 -10 7q-138 0 -360 -115q-146 -96 -146 -135q0 -14 12 -23l7 2q102 163 413 242zM633 1010q0 6 -15 6q-36 0 -92 -21q-65 -24 -65 -53q0 -10 10 -20q82 50 145 73q17 10 17 15zM813 715q-4 4 -6 4q-8 0 -23 -55 q-83 -201 -299 -228q-6 -3 -6 -8q0 -2 4 -6q130 3 226 84q104 82 104 209zM475 887q0 35 -6 35q-10 -10 -158 -328l8 -6q35 3 95 131q48 105 61 168zM139 647q0 4 -6 4q-22 0 -57 -41q-33 -39 -33 -65q0 -15 10 -25l64 88l4 4q18 24 18 35z" />
<glyph unicode="C" horiz-adv-x="739" d="M1010 1298q3 -19 -6 -47q-116 -394 -281 -432q-49 -9 -94 -4q-29 3 -68 16q-62 21 -59 60q0 19 76 113q16 37 16 55q0 23 -19 33q-16 10 -38 0q-136 -54 -228 -174q-103 -133 -100 -267q3 -87 59 -143q30 -30 74 -33q87 -3 158 80q23 27 49 45q28 9 43 -31q10 -30 10 -49 q-3 -89 -88 -141q-76 -48 -168 -51q-148 -9 -256 114q-90 104 -90 250q0 84 35 187q111 316 424 454q129 57 248 60q64 3 104 -31q25 -22 39 -25q14 10 39 13q34 -5 106 -33q12 -8 15 -19zM895 1288q0 8 -12 8q-27 0 -27 -16q0 -5 6 -8q10 0 31 6q2 4 2 10zM653 1044 q0 11 -4 11l-8 -6q-7 -18 -49 -80q-41 -62 -41 -78q0 -2 4 -6q26 3 78 76q20 39 20 83zM690 1333q0 6 -12 6q-11 0 -19 -2q-225 -9 -413 -188q-184 -175 -193 -401q-2 -6 -2 -19q0 -10 4 -14q9 3 11 10q34 236 208 401q169 159 410 199q6 3 6 8zM559 547q0 19 -35 -19 l-45 -47l-65 -32q-52 -24 -52 -35q0 -4 3 -4q55 3 112 32q64 36 78 86q4 16 4 19z" />
<glyph unicode="D" horiz-adv-x="1069" d="M760 1087q-65 -136 -201 -342l-51 -75q-38 -38 -86 -29q-36 5 -84 27q-29 13 -29 45q0 17 56 106q39 62 94 170q3 3 6 51q3 22 37 37q147 69 217 66q24 0 37.5 -18t3.5 -38zM1122 983q6 -147 -39 -246q-137 -315 -526 -395q-96 -19 -207 -10q-123 9 -215 57 q-114 62 -123 172q-12 147 168 248q30 18 37 14q5 -3 2 -18q-4 -20 -4 -45q0 -61 37 -101q58 -67 172 -67q97 0 207 55q107 54 172 127q88 98 88 219q0 181 -223 181q-6 0 -74 -5q-122 -12 -172 -51l-41 -37q-20 -17 -47 -20q-45 -3 -51 76q-9 95 145 157q116 46 234 49 q189 3 311 -83q140 -98 149 -277zM657 1286q-8 8 -53 2q-82 -10 -160 -41q-120 -43 -120 -84q0 -14 14 -22l33 35q69 69 233 96q56 9 53 14zM952 956q0 7 -4 7q-7 -2 -10 -11q-41 -213 -262 -325q-56 -30 -230 -95q0 -4 7 -8q182 24 329 135q173 129 170 297zM688 1079 q2 2 -3 3q-4 1 -13 1q-30 0 -94 -18q-75 -21 -72 -41q1 -7 1.5 -12.5t0.5 -6.5v-1q0 -43 -70 -144q-6 -15 -39 -74q-34 -58 -41 -65q0 -7 7 -10q17 3 57 61l43 64q49 96 63 163q6 28 156 74q1 0 4 6zM176 750q0 6 -4 6q-27 6 -72 -60q-43 -64 -43 -96q0 -15 11 -22 q4 11 38 77q70 82 70 95z" />
<glyph unicode="E" horiz-adv-x="870" d="M1098 1214q0 -18 -39 -57l-92 -78l-72 -57l-47 -39q-2 -2 -8 -2q-7 0 -9 2q-47 117 -143 117q-93 0 -137 -84q-3 -26 8 -43q21 -21 53 -12q74 22 84 22q22 0 35 -8q19 -16 19 -39q0 -30 -27 -57l-29 -29q-27 -21 -55 -21q-3 0 -23 5q-57 20 -79 14q-6 -1 -54 -33 q-120 -89 -129 -199q-4 -55 31.5 -89.5t93.5 -34.5q96 0 176 65q74 59 115 154q9 17 41 6q35 -21 35 -82q0 -90 -113 -184q-173 -144 -373 -144q-38 0 -81 6q-279 41 -279 248q0 74 41 139q65 108 221 170q71 27 74 35q-50 89 -35 152q35 156 250 246q105 45 209 45 q91 0 155 -43q35 -28 101 -66q20 -4 33 -2l34 4q15 -12 15 -27zM741 1290q-20 4 -30 4q-86 0 -197 -57q-45 -21 -102 -74q-72 -66 -72 -112q0 -19 12 -31l8 4q40 113 152 182q105 66 227 72q6 3 6 6q0 2 -4 6zM686 924q0 14 -43 2q-45 -12 -45 -25l6 -6q38 0 70 14 q12 9 12 15zM797 645q3 37 -2 37q-7 -7 -13 -37q-27 -73 -114 -133q-70 -50 -162 -72q-8 -3 -8 -8l6 -6q167 9 276 160q14 25 17 59zM397 891q0 6 -4 6q-5 0 -28 -23q-27 -21 -111 -59q-80 -36 -107 -55q-31 -8 -67 -72q-33 -56 -33 -96q0 -19 8 -27q11 4 19 41 q40 94 119 146l176 88q28 22 28 51z" />
<glyph unicode="F" horiz-adv-x="884" d="M1325 1229q19 -14 -4 -47q-103 -139 -289 -142q-79 -3 -133 25l-80 39q-96 35 -190 35q-121 0 -203 -58q-65 -44 -68 -98q-3 -42 35 -80q19 -13 19 -20l-4 -4q-108 -54 -197 -54q-100 0 -158 49q-53 44 -53 113q0 124 152 236q86 65 172 92l71 24q21 2 62 13l59 6 q12 0 66 4q106 -3 168 -23q53 -20 165 -77q97 -49 197 -58q78 -9 145 13q14 4 41 12q15 3 27 0zM954 848q3 -15 -24 -49q-44 -50 -58 -74q-33 -56 -43 -80q-3 -18 -26 -63q-7 -7 -19 -11q-27 0 -39 9q-21 21 -6 69l15 60q-3 29 -41 26q-23 -7 -49 -57q-7 -20 -35 -74 q-143 -259 -307 -280q-52 -6 -154 24q-32 11 -39 35q-9 39 57 96q11 11 66 56l8 6q136 101 232 309q22 52 22 74q0 33 -41 45q-6 3 -6 8q0 27 125 67q112 37 160 37q77 0 98 -30q6 -9 6 -23q0 -18 -10 -41q-27 -37 -68 -115q-5 -14 3.5 -22.5t29.5 -9.5q9 -3 88 24 q50 15 55 -16zM1196 1143q0 12 -12 6q-6 -3 -6 -6q0 -1 6 -4zM586 1300q0 7 -11 7q-12 0 -12 -7l4 -6h17q2 2 2 6zM887 811q0 2 -4 2q-11 0 -35.5 -13t-24.5 -20q0 -2 4 -6q13 3 50 25q10 10 10 12zM739 1020q0 6 -47 6q-23 -3 -131 -39q-45 0 -45 -6q0 -5 45 -20l105 28 q73 21 73 31zM528 1292q7 4 7 6q-5 5 -11 7q-192 0 -356 -123q-30 -8 -78 -74q-43 -61 -43 -96q0 -17 10 -27q2 2 6 2q44 133 187 215q127 73 278 90zM799 672q0 10 -4 10q-5 0 -14 -23t-9 -32t2 -11q10 3 25 56zM578 905l-7 6l-8 -6q-144 -320 -338 -446q-49 -46 -49 -58 q0 -5 6 -8q3 0 19 4q128 91 241 230q130 160 136 278z" />
<glyph unicode="G" horiz-adv-x="919" d="M1061 1257q4 -21 -4 -45q-113 -373 -262 -419q-45 -13 -105 -5q-129 15 -123 76q6 19 41 64q42 58 45 86q3 33 -8 41q-17 12 -43 2q-137 -55 -223 -168q-99 -123 -96 -260q0 -86 57 -140q28 -28 80 -28q73 0 127 51q12 15 12 25q0 23 -41 41q-30 0 -76 14q-6 6 -6 14 q0 54 135 78q98 17 177 14q124 -3 124 -63q0 -66 -90 -232q-131 -241 -252 -356q-173 -164 -389 -164q-202 0 -309 107q-68 65 -68 151q0 107 101 201q40 40 65 43q7 2 11 -2q1 -1 -2 -31q-6 -53 28 -106t86 -80q62 -33 125 -33q34 0 86 8q100 15 223 144q31 35 23 43 q-7 10 -39 2q-59 -13 -96 -11q-137 6 -219 107q-78 96 -78 233q0 93 35 193q108 309 411 440q128 57 242 60q27 0 61 -6q38 -29 78 -50q14 10 39 13q32 -5 105 -31q9 -6 12 -21zM950 1241q3 16 -10 16q-27 0 -27 -18q0 -5 7 -8q10 0 30 10zM713 987q3 22 -2 31q-2 4 -7 -6 q-2 -6 -6 -17q-80 -103 -80 -133q0 -3 5 -8q39 9 86 98q1 3 1.5 8t1 13t1.5 14zM758 1284q8 3 8 6t-8 6q-245 -3 -434 -180q-187 -175 -193 -422q0 -2 4 -10q17 7 23 76q57 216 217 354q162 143 383 170zM664 637l-21 6q-170 -9 -170 -31q0 -4 2 -6l94 8q2 0 95 23zM625 516 q0 8 -7 8q-10 0 -65 -61q-113 -46 -113 -64q0 -2 2 -4q137 9 179 103q4 16 4 18zM578 303q0 10 -13 10q-104 -116 -157 -153q-86 -62 -209 -80l-4 -4l4 -6q115 3 194 45q68 38 154 127q31 42 31 61zM-92 313q0 4 -4 4q-24 0 -58 -61t-34 -88q0 -17 10 -27q50 106 63 119 q23 44 23 53z" />
<glyph unicode="H" horiz-adv-x="1222" d="M1532 1290q3 -37 -19 -73q-116 -143 -268 -388q-118 -187 -127 -301q3 -47 17 -79l16 -21q3 -10 -6 -25q-64 -58 -137 -67q-83 -9 -134 24q-58 34 -61 113q-3 55 53 158q-42 -43 -71 -33q-15 9 0 49q15 35 -15 58q-26 23 -59 6q-19 -11 -55 -66q-250 -385 -506 -364 q-70 6 -115 47.5t-45 105.5q0 42 29 92q20 33 32 33q5 -5 5 -6q5 -25 10 -33q21 -55 86 -55q228 0 446 541q3 20 -7.5 29t-35.5 9q-63 0 -84 -55q-18 -54 17 -63q-3 -13 -21 -17q-54 -6 -85.5 37.5t-20.5 100.5q18 105 116 178q81 63 199 88q108 21 221 6q54 -15 70 -43 q15 -31 -14 -100q-8 -14 -60 -111q-17 -39 -74 -131q-1 -1 -53 -92l-8 -17q46 11 63 11q44 0 71.5 -26.5t23.5 -66.5l106 187l92 160q24 44 13 77l-11 15q-20 14 -20 16q0 6 8 14q122 92 254 115q34 7 84 4q22 0 59 -16q11 -8 21 -25zM1409 1274l-6 4q-77 0 -182 -51 l-33 -13q-27 -9 -27 -16q0 -5 29 -18l88 41l74 24q57 18 57 29zM1200 1133q-4 0 -8 -7q-35 -75 -107 -198l-114 -195q-35 -35 -35 -39q0 -7 6 -10q29 3 49 29q84 133 203 358q12 37 12 51q0 11 -6 11zM791 1268q-17 10 -46 10q-55 0 -151 -47q-75 -37 -121 -74 q-57 -69 -57 -113q0 -14 8 -22q13 4 39 72q95 148 321 163q7 3 7 11zM825 772q0 10 -20 10q-29 0 -29 -12l8 -8q24 0 39 6q2 2 2 4zM922 606q0 8 -4 8q-6 0 -17 -14q-39 -62 -39 -100q0 -19 8 -27q15 6 33 62q19 52 19 71zM668 999q-7 0 -15 -14q-54 -96 -166 -321 q-114 -182 -270 -240q-15 -5 -33 -14l9 -7q213 9 368 330l101 211q12 27 12 45q0 10 -6 10zM68 446q0 -7 -3 2l-10 52q-4 4 -6 4q-11 0 -8 -33t16 -43q11 4 11 18z" />
<glyph unicode="I" horiz-adv-x="841" d="M1190 1329q3 -8 -12 -29q-94 -94 -195 -280l-164 -303q-58 -110 -155 -207q-175 -178 -398 -178q-182 0 -246 123q-20 39 -20 82q0 66 47 125q23 26 39 26q6 0 14 -4l2 -8q8 -30 31 -60q51 -51 121 -51q162 0 319 207q34 46 140 217q5 6 51 90q47 87 31 109q-6 9 -31 6 q-51 -6 -135 -47q-142 -71 -142 -150q0 -64 62 -82q4 -4 4 -10t-2 -8q-84 -96 -201 -96q-71 0 -121.5 41.5t-50.5 107.5q0 140 191 248q271 152 753 143q41 0 68 -12zM891 1282q-2 2 -4 2q-296 0 -553 -160q-25 -14 -70 -71q-41 -56 -41 -82q0 -15 13 -21q6 0 8 2 q76 216 520 305l67 9q60 9 60 16zM858 1159q0 8 -2 8q-6 -3 -14 -14q-101 -237 -211 -381q-151 -197 -357 -262q-3 -7 15 -10q178 12 352 235q132 171 205 359q12 30 12 65zM84 616q0 19 -6 25q-10 0 -18.5 -30t-8.5 -50q0 -16 6 -22q27 3 27 77z" />
<glyph unicode="J" horiz-adv-x="780" d="M1116 1313q0 -16 -18 -37q-99 -119 -215 -340l-191 -358q-212 -401 -393 -535q-137 -104 -328 -104q-197 0 -258 122q-20 39 -20 84q0 64 47 123q26 29 39 29q16 0 16 -14q13 -49 56.5 -80t95.5 -31q216 0 426 358q55 94 166 308q0 1 112 229q31 64 23 80q-4 11 -35 8 q-105 -9 -238 -100q-141 -99 -141 -199q0 -43 37 -70q19 -11 70 -14q4 -4 4 -10q0 -5 -6 -14q-98 -125 -213 -125q-66 0 -108 47.5t-42 117.5q0 123 98 236q88 101 205 162q232 123 459 141q93 8 287 2q65 -3 65 -16zM780 1262q8 3 8 6l-8 6q-212 -9 -405 -100 q-222 -107 -303 -277q-21 -59 -21 -78q0 -14 8 -22q5 0 9 4q46 193 274 325q202 115 438 136zM739 1094q3 32 -4 32l-10 -8q-145 -319 -223 -461q-142 -259 -305 -415q-116 -87 -226 -121q-2 -2 -2 -6q0 -5 4 -9q212 21 402 287q60 85 235 424q57 111 129 277zM-223 225 q0 23 -8 23q-25 -16 -25 -78q0 -22 8 -25q25 9 25 80z" />
<glyph unicode="K" horiz-adv-x="931" d="M1270 1139q-9 -89 -117 -191q-123 -117 -371 -145q-11 0 -24 -8q-4 -7 6 -17q68 -84 74 -119q9 -45 -7 -137q-11 -84 -8 -131q12 -114 115 -149q57 -18 117 10l18 12q21 21 27 21t6 -15q-2 -4 -14 -41q-37 -76 -111.5 -126t-155.5 -50q-147 0 -215 150q-41 90 -41 205 q-3 167 56 362l8 33q3 25 -8 31q-13 0 -23 2q-31 3 -55 -52l-41 -90q-138 -283 -309 -301q-60 -7 -152 27q-46 15 -43 51q3 35 55 84l78 72q153 141 234 331q22 55 22 80q0 35 -41 47q-11 7 -4 17q19 31 129 69q103 35 150 35q83 0 102 -32q14 -20 -4 -68q-36 -55 -70 -123 q-5 -14 2.5 -23t24.5 -8q15 4 39 17q91 45 196 139q38 34 99 100q42 54 39 109q0 5 -1 12l-2 13l-1 -1q0 8 12 11q47 3 98 -23q120 -61 111 -190zM1126 1268q0 33 -34 51q-9 3 -9 -6q13 -23 13 -43q0 -137 -406 -369q-4 -4 -4 -6l6 -8h15q72 18 237 151q182 147 182 230z M446 1081l172 60q0 14 -22 14q-32 0 -154 -45q-38 -13 -43 -14q7 -7 37 -15h10zM698 776q0 27 -8 27q-20 -20 -47 -144q-22 -110 -22 -157q0 -27 6 -33q7 0 10 6q3 49 61 301zM451 1028q-6 0 -9 -6q-94 -291 -342 -483q-47 -53 -47 -62q0 -7 6 -10q21 3 50 37 q247 210 340 463q6 35 6 49q0 12 -4 12zM352 483l2 2v2q-3 3 -6 0z" />
<glyph unicode="L" horiz-adv-x="710" d="M1364 1313q-12 -86 -43 -105q-7 -3 -21 17q-44 65 -122 65q-239 0 -631 -536q-27 -34 -115 -162q-13 -19 -67 -103q0 -14 38 -34l54 -27q269 -151 553 -154q68 0 161 -8q19 -3 19 -12q0 -15 -74 -59q-176 -105 -340 -105q-224 0 -483 215q-29 26 -35 23l-4 -4 q-3 -3 -7 -7.5t-11.5 -12t-16.5 -15.5q-134 -131 -301 -131q-161 0 -188 131q-4 24 -4 47q0 120 153 188q99 45 219 45q38 0 52 -2l45 -4q12 0 32 33l49 82q12 23 293 516q205 350 504 408q39 8 70 8q227 0 227 -228q0 -26 -6 -69zM1022 1513l108 31q-3 12 -24 12 q-90 0 -178 -55q-167 -102 -287 -272q-81 -116 -195 -338q-123 -241 -198 -342q-49 -34 -49 -45q0 -5 8 -8q34 6 72 47q62 90 198 354q127 242 219 356q142 177 326 260zM203 387q0 8 -6 8q-15 0 -54 -39q-4 -6 -20 -22l-25 -25q-110 -46 -110 -57q2 -2 2 -4q146 15 209 121 q4 16 4 18zM137 403q-9 6 -45 9q-85 -9 -147 -50q-25 -18 -27 -26q0 -14 23 -21q35 -9 88 9q82 28 108 79zM84 512q-5 8 -31 8q-76 0 -166 -43q-110 -52 -110 -115q0 -8 4 -24l2 -2q2 1 5.5 2t4.5 2q26 73 117 121q72 37 166 43q8 3 8 8z" />
<glyph unicode="M" horiz-adv-x="1363" d="M1536 1202q13 -29 -2 -72q-43 -123 -201 -376l-104 -166l-29 -58q-6 -21 8 -32q4 -2 19 -2q14 0 24 2q16 7 43 16q21 0 21 -14q0 -23 -55 -78q-159 -126 -281 -123q-81 3 -111 88q-4 28 -4 47q0 97 60 191l61 98l72 119q13 12 47 80q15 34 -2 45q-45 9 -96 -31 q-74 -110 -211 -328q-66 -106 -97 -198l-4 -19q4 -34 -15 -52.5t-61 -21.5q-94 -6 -118 2q-46 15 -64 68q-4 32 -4 49q0 92 60 189l61 98l72 119q5 5 18 28q35 65 35 76t-10 21h-9q-4 2 -12 2q-38 -3 -78 -37l-153 -250q-129 -208 -129 -242q0 -5 15.5 -18.5t14.5 -18.5 q-9 -39 -55 -63q-83 -44 -153 -41q-82 3 -109 90q-4 28 -4 43q0 94 65 203l125 196q65 102 103 207l2 19q-3 35 14 55q65 55 94 68q142 71 217 71q55 0 66 -32q12 -31 -18 -105q219 131 354 131q12 0 16 -2h-2q51 -3 66 -41q13 -31 -11 -96q230 139 367 139q64 0 82 -43z M1448 1186q0 4 -31 4q-67 -13 -155 -43q-160 -74 -160 -94q0 -8 6 -11q45 7 100 39q46 27 99 54l79 24q62 18 62 27zM1014 1186q-3 6 -21 6q-49 0 -131 -31q-186 -70 -186 -104q0 -4 4 -8q47 7 113 45q103 56 174 71q47 9 47 21zM1180 924q0 6 -2 6q-10 0 -99 -139l-90 -136 q-74 -112 -74 -180q0 -17 7 -31q8 4 16 35q26 78 117 213t119 207q6 15 6 25zM618 1192q-6 6 -22 6q-44 0 -145 -43q-111 -47 -111 -82q0 -9 10 -16q35 26 117 73q8 6 90 35q61 21 61 27zM743 909q3 29 -4 29l-10 -8q-248 -379 -248 -455q0 -17 11 -24q2 0 4 2 q26 67 127 227q92 150 120 229zM356 1014q3 33 -4 33q-18 0 -82 -162q-223 -308 -223 -404q0 -22 8 -35q1 0 6 5q26 91 152 280q119 174 143 283z" />
<glyph unicode="N" horiz-adv-x="972" d="M1163 1182q9 -28 -6 -72q-53 -139 -233 -401l-97 -142q-14 -21 -32 -57q-6 -22 8 -33q4 -2 16 -2q17 0 27 2q26 11 43 17q20 0 20 -15q0 -22 -59 -78q-165 -125 -289 -122q-110 3 -110 127q0 98 69 198l68 98l78 119q12 12 51 80q6 15 6 27q0 13 -8 18q-67 15 -144 -74 l-153 -231q-127 -195 -127 -223q0 -10 24 -19q7 -2 4 -16q-13 -44 -57 -64q-87 -43 -158 -40q-80 3 -104 90q-2 10 -2 32q0 104 74 213l133 197q70 104 114 207l5 18q-3 37 16 56q71 56 96 67q147 72 221 72q68 0 68 -49q0 -40 -33 -105q189 115 340 142q35 6 51 6 q65 0 80 -43zM971 1130l106 35q0 4 -33 4q-61 -11 -186 -59q-151 -59 -151 -88q0 -5 8 -8q58 10 129 53q83 48 127 63zM791 903q0 9 -7 12q-11 0 -125 -176q-115 -178 -135 -221q-20 -44 -20 -84q0 -17 6 -20q19 47 55 121l129 188q97 148 97 180zM659 1165q3 9 -4 11 q-42 9 -163 -41q-127 -50 -121 -88q4 -8 4 -17q0 -46 -62 -135l-147 -217q-119 -174 -119 -238q0 -19 8 -24q7 0 19 39q25 80 168 274q126 170 147 277q0 64 107 104q18 7 163 55z" />
<glyph unicode="O" horiz-adv-x="798" d="M928 1044q0 -197 -174 -423q-121 -157 -291 -240q-127 -59 -234 -59q-137 0 -192 118q-36 77 -33 183q6 272 184 483q190 225 457 225q130 0 206.5 -78t76.5 -209zM631 1264q6 3 6 6t-6 6q-198 -3 -357 -150q-147 -135 -194 -338q-23 -104 -23 -129q0 -24 9 -30q3 0 6 6 q38 252 172 414q149 180 387 215zM586 905q0 74 -72 74q-7 0 -35 -4q-75 -15 -157 -119q-129 -159 -132 -295q-3 -69 60 -72q43 -3 104 46q70 44 158 180q74 115 74 190zM651 881q-3 6 -6 6t-6 -6q-94 -314 -344 -435q-27 -12 -27 -16q0 -3 8 -6q129 12 252 168t123 289z " />
<glyph unicode="P" horiz-adv-x="819" d="M1016 1034q-15 -137 -158 -256q-113 -93 -272 -149q-66 -21 -66 -45q0 -21 29 -37q0 -39 -51 -39q-56 0 -95 39q-3 1 -8.5 -5t-14.5 -19.5t-19.5 -31.5t-26.5 -45l-74 -133q-46 -46 -104 -43q-134 9 -150 76q0 28 21 66l92 163q50 86 71 173l5 32q0 60 43 84 q164 95 266 101q22 -3 35 -11q21 -21 18 -55q-20 -36 -61 -133q0 -18 12 -18q7 -2 27 4q186 88 186 213q0 65 -53 92q-30 12 -66 12q-138 0 -350 -147q-100 -71 -125 -109l-29 -43q-15 -18 -32 -18q-3 0 -15 4q-48 42 -51 143q-3 100 168 213q245 164 448 199q102 15 175 0 q81 -18 122 -51q118 -90 103 -226zM791 930q0 8 -3.5 11.5t-9.5 2.5q-73 -112 -84 -125q-50 -60 -116 -96l-14 -7q-14 -7 -27 -14.5t-13 -11.5q0 -5 6 -8q125 6 230 162q31 48 31 86zM690 1264q-146 -6 -289 -70q-76 -33 -194 -109q-158 -103 -158 -153q0 -16 12 -25l27 43 q257 257 600 301q8 3 8 6q0 4 -6 7zM498 907q-2 2 -13 2q-47 0 -137 -35q-102 -40 -102 -71q0 -7 8 -15l96 54q148 53 148 65zM262 756q0 12 -2 16q-9 0 -55 -119l-78 -143q-66 -123 -66 -150q0 -5 5 -10q38 6 118 182q78 173 78 224z" />
<glyph unicode="Q" horiz-adv-x="833" d="M1468 127q-114 -147 -301 -211q-121 -41 -237 -35q-123 6 -230 58q-167 78 -426 387q-36 34 -65 24l-74 -41q-50 -35 -63 -35q-6 1 -33 21q-23 30 -23 63q4 13 29 58q3 13 -12 35q-25 55 -33 118q-12 84 29 211q85 266 317 430q184 132 367 144q249 18 295 -137 q14 -43 14 -93q0 -84 -43 -194q-109 -276 -395 -455q-100 -63 -107 -53q12 -12 17 -16l6 -9q184 -147 342 -215q179 -73 393 -82q105 -3 223 37q13 0 10 -10zM739 1294q-18 2 -80 2q-238 -46 -403 -217q-164 -170 -201 -409q-3 -44 2 -54q9 4 11 9q44 260 223 442 q188 194 440 221q8 3 8 6zM743 958q-3 7 -4 7q-7 -4 -10 -9q-52 -155 -164 -294q-115 -143 -250 -218q-6 -6 -6 -10q0 -5 6 -8q63 3 113 53q12 6 88 88q227 248 227 391zM676 989q-6 39 -55 39q-27 0 -60 -10q-184 -57 -352 -377q-16 -26 -31 -86v-3q0 -2 -0.5 -6t-1.5 -9 q-3 -47 8 -52q15 6 70 17q20 0 43 -10q35 12 45 16q66 38 193 199q153 199 141 282zM260 440q0 13 -18 13q-45 0 -45 -25q0 -3 6 -6q42 3 57 18zM117 401q0 15 -8 15q-11 0 -25 -22t-14 -36q0 -10 6 -16q26 6 41 59z" />
<glyph unicode="R" horiz-adv-x="929" d="M1618 195q-175 -181 -451 -181q-203 0 -379 129q-97 69 -233 246l-66 84q-23 33 -65 33q-22 0 -76 -31q-63 -124 -94 -162q-34 -49 -100 -43q-132 9 -148 76q0 27 47 113q4 8 26.5 45t37.5 65q8 12 59 158q38 117 55 125q157 92 263 98q23 -3 34 -10q20 -17 17 -53 q-26 -44 -60 -131q0 -19 13 -19q8 0 26 6q183 83 183 211q0 59 -52 86q-33 13 -65 13q-134 0 -342 -146q-103 -71 -123 -104l-29 -43q-16 -19 -30 -19q-7 0 -15 4q-48 42 -51 142q-3 70 70 137q29 26 94 70q242 161 440 196q99 15 170 0q81 -19 121 -51q115 -87 100 -221 q-18 -152 -161 -256q-72 -54 -277 -148q87 -24 178 -96l158 -129q156 -130 371 -180q124 -28 215 -25q67 3 131 21q10 -3 8 -10zM774 920q0 14 -6 14l-6 -4q-40 -135 -240 -240q-8 -8 -8 -12l4 -6q78 10 144 65q68 55 100 121q12 34 12 62zM674 1229q3 1 10 8q-4 4 -10 6 q-207 -12 -469 -176q-154 -95 -154 -147q0 -15 8 -23q11 0 31 39q93 113 266 194q167 81 318 99zM487 891q0 2 -4 6q-44 0 -137 -37q-106 -40 -106 -67q0 -9 12 -15l106 58l70 24q59 21 59 31zM260 743q0 11 -4 11q-10 0 -47 -82q-26 -60 -53 -123q-95 -154 -95 -187 q0 -7 5 -12q33 3 106 158q63 135 84 203q4 28 4 32z" />
<glyph unicode="S" horiz-adv-x="1052" d="M1038 1331q-6 -72 -110 -188q54 -96 71 -150q22 -61 19 -166q0 -45 -23 -157q-35 -167 -153 -267t-283 -100q-144 0 -297 84q-14 7 -31 4q-85 -49 -178 -49q-97 0 -156 55.5t-63 151.5q6 16 19 16q4 0 12 -4q60 -48 102 -53q46 -6 92 2q59 9 76 39q8 14 2 49 q-12 65 0 115q15 100 82 176q75 84 170 84q47 0 111 -31q20 0 108 102l88 101q56 77 47 117q-2 6 -2 24q0 66 58 109q49 37 119 43q52 5 88 -26t32 -81zM934 1372q3 7 -1 10.5t-15 3.5q-32 0 -78 -24q-52 -27 -52 -55q0 -12 13 -25q8 3 24 31q22 29 109 59zM807 1176 q6 27 6 38q0 7 -2.5 11t-7.5 2q-62 -115 -252 -305q-39 -23 -39 -37q0 -8 10 -11q62 20 164 134q95 109 121 168zM815 899q0 90 -24 90q-9 0 -168 -184q0 -3 3.5 -19t5 -29.5t-0.5 -27.5q-4 -20 -10.5 -28t-14.5 -3q-29 13 -49 13q-42 0 -63 -43q-7 -21 -7 -35q0 -27 19 -49 q40 -29 80 -29q72 0 143 86q61 76 76 156q10 65 10 102zM883 850q-3 6 -6 6q-6 0 -9 -6q-15 -137 -123 -260q-7 -7 -83 -55q-60 -39 -56 -46q128 15 203 127q68 100 74 234zM387 913q-6 9 -20 9q-85 0 -150 -121q-35 -65 -35 -103q0 -17 11 -32q31 81 75 165q12 12 119 82z M209 530q0 27 -8 27t-27 -25l-27 -36q-8 -8 -63 -25q-55 -18 -55 -27q0 -2 2 -4q72 8 108 21q56 22 70 69zM-78 463q0 9 -22 45q-23 33 -37 33q-8 0 -4 -11q25 -50 59 -73q4 4 4 6z" />
<glyph unicode="T" horiz-adv-x="718" d="M1327 1229q19 -14 -4 -47q-103 -139 -289 -142q-81 -3 -135 25q-27 12 -78 39q-103 35 -192 35q-86 0 -164 -37q-99 -47 -105 -119q-3 -42 35 -80q17 -14 17 -20q-2 -2 -2 -4q-116 -51 -193 -54q-101 -3 -162 49q-53 44 -53 113q0 124 152 236q91 66 170 92l73 24 q18 2 60 13l59 6q14 0 68 4q103 -3 168 -23q34 -11 163 -77q97 -50 199 -58q70 -6 143 13l43 12q17 3 27 0zM852 1051q4 -4 4 -15q0 -47 -86 -211q-250 -480 -448 -501q-39 -3 -152 24q-46 15 -43 47q6 40 55 80l78 66q154 135 234 309q22 52 22 76q0 31 -41 43q-6 3 -6 8 q0 27 123 67q112 37 156 37q83 0 104 -30zM1204 1145q0 4 -10 4t-10 -4l6 -6q14 0 14 6zM594 1298q0 9 -12 9q-13 0 -13 -7q7 -7 9 -8q7 0 16 6zM745 1020q0 6 -45 6q-55 -18 -170 -39l-8 -8l43 -18q1 0 107 28q73 21 73 31zM543 1296q0 9 -21 9q-4 0 -9 -1t-13 -2t-13 -2 q-138 -9 -284 -100q-32 -8 -94 -82q-58 -70 -58 -108q0 -16 12 -25q10 3 21 41q53 111 192 184q115 61 259 82q8 3 8 4zM586 895q0 20 -6 20q-5 0 -9 -4q-38 -121 -206 -331q-98 -89 -143 -136t-38 -53l27 8q120 81 231 219q129 160 144 277z" />
<glyph unicode="U" horiz-adv-x="868" d="M1116 1178q0 -35 -41 -91l-157 -219q-199 -275 -199 -366q0 -47 53 -47q16 0 37 6l27 12q6 0 6 -6t-2 -10q-23 -38 -101 -95q-83 -47 -151 -47q-78 0 -125 56q-16 19 -43 39q-8 2 -37 -9q-17 -10 -57 -24q-67 -25 -138 -25q-77 0 -129 43q-57 45 -57 121q0 103 98 201 l138 131q76 73 96 129q18 46 -25 86q-20 20 -57 20q-53 0 -84 -37t-25 -92l11 -45q-3 -23 -70 -20q-17 0 -37 4q-36 11 -74 39q-55 58 -55 135q0 39 14 80q34 102 144 158q90 46 211 49q295 3 295 -180q0 -69 -97 -211q-29 -44 -125 -179l-34 -69q-15 -41 -15 -70 q0 -25 8 -41q25 -32 78 -41q45 -9 66 12l37 60q76 117 184 305q58 98 55 162q0 28 -45 45q-4 4 -4 8q0 8 82 51l49 21q104 31 178 28q43 -4 62 -10q58 -21 55 -67zM981 1192q2 6 -3 9t-17 3q-31 0 -132 -26l-47 -13q-26 -6 -26 -10q0 -10 32 -18q7 0 50 16q43 10 143 39z M799 1040q3 44 0 47q-1 -1 -4 -18q-38 -119 -125 -258l-156 -244q-76 -61 -76 -69q0 -2 2 -4q70 3 138 108q47 73 208 373q10 20 13 65zM297 1294l-6 4q-111 0 -195 -34q-38 -20 -80 -68q-47 -53 -47 -86q0 -18 15 -33l8 8q62 194 299 203q6 3 6 6zM408 979q0 15 -11 8 q-50 -78 -274 -313q-70 -91 -70 -144q0 -15 10 -18q5 0 9 4q30 94 147 211q137 137 176 199q13 37 13 53z" />
<glyph unicode="V" horiz-adv-x="886" d="M1096 1100q0 -118 -135 -256q-270 -279 -646 -455q-115 -53 -188 -53q-140 0 -125 151l16 78q78 221 93 271q55 170 67 274q-4 19 -10 25q-27 15 -27 28q0 5 13 15q105 54 168 63q104 16 149 14q70 -3 78 -28q0 -27 -8 -43q-34 -80 -117 -310l-37 -102q-23 -65 -43 -137 q0 -16 14 -19q16 0 50 17q306 170 397 448q18 55 18 99q0 108 -98 172q-10 8 -8 10q3 3 16 6q38 3 60 0q120 -20 204 -82q99 -74 99 -186zM870 1286q0 16 -47 43q-45 26 -65 23q-1 -1 9.5 -9t35.5 -25t59 -38q8 3 8 6zM465 1196q-16 8 -43 8q-36 0 -113 -22 q-74 -21 -112 -21q-7 -3 -7 -6t41 -18q79 21 123 39q118 9 111 20zM889 1110q3 49 -2 49t-8 -6q-77 -371 -490 -582q-10 -7 -10 -12t6 -8q24 3 45 12q394 206 459 547zM250 1065q0 27 -8 35q-15 0 -21 -66q-16 -62 -86 -260q-58 -165 -76 -264q0 -45 4 -45q41 106 58 176 q39 101 69 186q60 168 60 238z" />
<glyph unicode="W" horiz-adv-x="1107" d="M1401 1200q-3 -66 -35 -133q-99 -232 -322 -438q-172 -161 -352 -252q-78 -41 -135 -51q-68 -9 -100 28q-15 30 -17 45l2 21q3 33 41 137q20 54 17 74q-5 8 -25 -8l-201 -189q-28 -25 -114 -76q-27 -10 -49 -10q-30 0 -66 19l-14 12q-31 36 -31 80q0 42 59 237l78 246 q12 50 6 105q-3 15 -12 30q-19 22 -16 29q49 43 131 63q127 32 205 29q48 -3 88 -18q4 -8 4 -17q0 -8 -2 -14l-21 -47q-58 -131 -90 -197l-29 -55l-28 -64q-37 -79 -25 -79q6 0 8 2q82 69 170 172q3 4 107 155q71 103 135 103q84 0 84 -86q-2 -18 -23 -97q-34 -128 -79 -268 q-24 -58 -21 -72q4 -4 14 -4q25 11 78 52q121 95 166 155q88 119 88 250q0 77 -45 139l-72 60q-3 8 19 20q119 49 258 43q66 -3 113 -33q56 -36 53 -98zM1065 1249l113 17l4 2q0 5 -86 8q-82 3 -101 -2q-7 -10 70 -25zM1133 989q3 30 0 45q-3 12 -9 6q-65 -265 -374 -473 q-5 -5 -5 -8q0 -5 9 -8q24 3 57 22q276 192 322 416zM735 1065q23 16 23 22q0 7 -15 7q-22 0 -36 -17q-31 -98 -224 -297q-125 -104 -125 -131q0 -4 2 -4q48 6 156 123q63 68 191 238q12 29 28 59zM416 1145q-2 2 -19 2q-28 0 -110 -10q-119 -15 -119 -41q0 -8 18 -17 q6 0 45 17q1 0 11.5 2.5t37.5 8t54 11.5q82 18 82 27zM561 610q-4 4 -8 4q-21 -21 -41 -86q-23 -71 -23 -96q0 -15 7 -22q18 4 41 90q24 82 24 110zM197 913q5 23 2 60q0 24 -4 24q-4 -4 -7 -16q-6 -76 -73 -250q-64 -165 -64 -252q0 -12 4 -16q17 3 76 203q52 183 66 247z " />
<glyph unicode="X" horiz-adv-x="1116" d="M1483 1141q3 -33 -15 -68q-38 -68 -100 -65q-15 3 -12 30q8 24 8 35q0 35 -66 35q-145 0 -313 -139q-125 -104 -125 -252q0 -81 57.5 -131.5t139.5 -42.5q3 1 8.5 1.5t15.5 1t17 1.5q6 -9 6 -17q0 -16 -27 -51q-104 -137 -260 -137q-17 0 -53 4q-167 21 -170 201 q-226 -185 -436 -197q-107 -6 -148 72q-21 44 -10 88q24 101 111 98q12 -3 12 -20q0 -5 -4 -21t-4 -20q0 -12 28 -31q36 -22 136 2q150 38 264 184q73 94 73 195q0 85 -52.5 132.5t-137.5 39.5q-28 -3 -43 0q-8 5 -8 16q0 19 26 52q104 137 261 137q17 0 53 -4 q167 -21 170 -201q229 185 436 197q67 5 112.5 -29t49.5 -96zM1280 1214q-112 -21 -244 -88q-34 -15 -80 -49q-61 -43 -61 -59q0 -4 4 -8q22 4 31 8q124 95 241 143q9 5 97 27q59 15 59 22t-47 4zM662 1214q0 13 -21 13q-34 0 -156 -58q-61 -49 -61 -59q0 -4 2 -4 q23 3 72 33l65 43q54 14 99 32zM670 811q0 1 4 35q3 33 0 39l-2 2q-6 -6 -8 -23q-108 -336 -439 -403q-8 -5 -8 -10q0 -3 4 -7q154 9 281 115q127 103 168 252zM57 549q-14 -25 -14 -47q0 -16 8 -21q7 1 17 30t10 42q0 10 -4 10q-6 0 -17 -14z" />
<glyph unicode="Y" horiz-adv-x="901" d="M1126 1124q0 -34 -82 -153l-102 -150q-50 -79 -237 -399q-138 -235 -254 -387q-304 -389 -588 -365q-104 9 -172 70q-72 66 -72 170q0 168 193 270q48 22 71 19q11 -4 8 -13l-20 -24q-34 -37 -37 -90q-9 -95 78 -107q139 -18 321 152q127 118 236 286v3l-12 -9 q-115 -69 -226 -69q-77 0 -129.5 43t-52.5 114q0 94 98 195l127 123q88 88 101 137q10 35 -16.5 64.5t-65.5 29.5q-43 0 -74.5 -29t-32.5 -71q9 -40 11 -70q-3 -21 -62 -18q-101 6 -141 82q-23 44 -23 92q0 35 13 76q35 100 137 151q87 46 205 49q235 3 290 -143 q21 -63 7 -131q-15 -60 -70 -141q-12 -18 -45 -64t-48.5 -70t-30.5 -58.5t-15 -59.5q0 -62 67 -62q86 0 164 146q122 228 119 340q0 25 -43 43q-6 3 -6 8q0 9 82 49q3 3 47 21q96 32 172 26q37 -3 59 -10q54 -19 51 -66zM932 1149q-62 -18 -164 -37q-6 -3 -6 -6t22 -12 l27 -7l1 1q2 0 6.5 1.5t10 3.5t14.5 4.5t19 6t24.5 7.5t28.5 9q62 18 62 27q0 5 -45 2zM825 1012q0 22 -4 22t-8 -4q-95 -268 -108 -291q-76 -144 -216 -221q-6 -9 7 -12q135 9 229 196q66 133 100 310zM309 1235q6 12 -18 12q-63 0 -139 -30q-40 -15 -86 -64 q-54 -57 -54 -90q0 -19 15 -31q8 3 14 29q34 81 106 121q20 11 162 53zM438 926q0 20 -6 20q-8 0 -55 -86l-154 -153q-129 -132 -129 -191q0 -17 10 -27q5 5 19 33q27 62 172 201q128 125 143 203zM526 367q6 15 6 22q0 10 -6 10q-9 0 -26 -20q-270 -396 -535 -461 q-10 -3 -10 -8q0 -3 12 -6q162 18 332 174q134 125 227 289zM-193 141q-45 -22 -94 -80q-51 -60 -51 -108q0 -20 12 -35q6 0 21 51q6 18 63 97q28 40 39 57.5t10 17.5z" />
<glyph unicode="Z" horiz-adv-x="944" d="M1059 553q-3 -28 -45 -31l-211 -18q-157 -27 -172 -88q-7 -23 -15 -72q-10 -37 -49 -129q-70 -173 -293 -319q-185 -121 -401 -175q-76 -19 -160 -22q-104 15 -104 100q0 153 264 408q60 57 133 110q171 119 354 181q50 23 54 41q3 17 -39 26q-21 4 -66 -8 q-46 -12 -63 -6q-84 24 -99 96q-9 62 33 107q27 27 43 30q12 0 29 -10l22 -12t17 -9.5t8 -4.5q46 -18 82 -9q33 11 119 68q30 18 57 57q28 46 23 76q-12 61 -95 61q-142 0 -317 -190q-8 -8 -16 -8q-29 0 -41 45q-18 220 235 354q89 47 133 62q155 55 281 55q192 0 239 -150 q9 -27 9 -61q0 -141 -189 -277q-33 -22 -119 -75l-137 -66q-8 -3 -8 -8q0 -7 12 -16q21 -27 68 -68q2 -2 113 16q86 15 141 17q65 3 108 -8q71 -18 62 -70zM696 1266q-174 -18 -321 -90q-176 -87 -211 -224q-3 -43 0 -49q10 3 31 62q89 179 397 264q143 24 143 33 q-4 4 -39 4zM909 580l-8 4q-17 0 -131 -21q-111 -21 -111 -22q0 -4 5 -4q47 9 172 28q70 12 73 15zM641 920q-5 3 -12 -7q-44 -90 -101 -135l-94 -53q-65 -38 -65 -49q0 -2 2 -2q81 6 172 76q100 75 100 149q0 15 -2 21zM217 737q-24 -27 -24 -47q0 -13 8 -18q32 6 32 55 q0 12 -8 12q-6 0 -8 -2zM465 313q-3 9 -12 6q-103 -157 -197 -247q-104 -96 -262 -176q-4 -4 -4 -7q0 -5 6 -8q116 9 295 162q174 152 174 270zM369 326q-91 -53 -172 -125q-47 -41 -123 -123q-97 -105 -97 -129q0 -1 5 -6q44 15 84 32q155 70 278 240q59 83 59 113 q0 8 -8 8q-6 0 -26 -10zM477 530q-3 6 -110 -73q-347 -141 -598 -420q-115 -165 -115 -211q0 -18 10 -21l29 60q166 358 694 573q90 38 90 92z" />
<glyph unicode="a" horiz-adv-x="866" d="M938 899q-2 -11 -33 -61q-122 -187 -160 -310q-3 -31 0 -53q12 -26 41 -26q11 0 23 4l80 30q21 0 24 -14q2 -12 -8 -33q-17 -21 -96 -78l-51 -28q-122 -49 -166 -49q-73 0 -100 59q-12 42 -39 33q-95 -68 -183 -68q-106 0 -161 94q-39 62 -39 142q0 224 245 370 q123 72 226 72q17 0 53 -4l24 -6q18 -7 41 -31l7 -10q1 0 5.5 1t15.5 3.5t22 5.5q108 26 174 16q58 -18 55 -59zM825 907q-4 4 -24 4q-29 0 -70 -8q-57 -9 -57 -24l6 -9q145 18 145 37zM629 639q0 25 -6 25q-10 0 -68 -119l-47 -60l-43 -51q112 9 164 205zM559 639 q17 41 -5 68.5t-65 15.5q-73 -21 -104 -111q-21 -58 14 -96q22 -22 45 -22t31 8q45 45 84 137zM532 920q7 4 7 6q-4 4 -11 6q-145 0 -292 -129q-36 -32 -72 -90q-51 -77 -51 -123q0 -25 14 -33q6 3 8 10q35 141 146 236q104 91 251 117z" />
<glyph unicode="b" horiz-adv-x="907" d="M928 788q-9 -137 -144 -301q-147 -178 -313 -184q-50 -3 -98 33l-31 29q-35 41 -43 38q-10 -3 -49 -57q-48 -51 -107 -45q-93 9 -137 90q-3 23 4 43q1 3 7 11t8 12q102 140 237 432q32 73 49 125q11 34 17 63q3 18 -9 74q13 28 82 55q88 35 168 45q55 6 93 -2 q43 -19 40 -69q-37 -75 -92 -236q3 -16 19 -16l73 24q33 12 64 15q78 9 125 -47q40 -52 37 -132zM594 1198q-4 4 -21 4q-35 0 -114 -18q-90 -21 -90 -45q0 -8 18 -17q84 37 96 41q111 27 111 35zM776 915q-10 5 -18 5q-24 0 -68 -15q-53 -15 -53 -33q0 -5 6 -8l74 25 q18 7 27.5 10.5t18 7.5t11.5 5.5t2 2.5zM602 653q-6 54 -61 54q-51 0 -99 -60q-24 -41 -65 -127q-4 -25 10 -37t47 -12q75 0 133 82q35 50 35 100zM655 639q-43 -93 -84 -137q-51 -54 -137 -80q-3 -7 2 -12q129 6 205 131q21 35 21 94q0 8 -3 8zM385 1022q21 61 2 61 q-3 0 -6 -6l-135 -332q-71 -176 -191 -305q-12 -6 -12 -16q0 -4 4 -4l27 6q26 14 67 80q155 247 244 516z" />
<glyph unicode="c" horiz-adv-x="661" d="M711 836q-21 -198 -228 -242q-54 -10 -94 -2q-34 12 -43 39q0 11 13.5 38t13.5 29q0 9 -13 9q-16 -5 -45 -31q-104 -98 -104 -158q0 -87 123 -84q65 3 164 47q81 37 104 37q33 0 33 -33q-5 -18 -41 -57q-175 -123 -326 -145q-53 -9 -96 4q-155 44 -170 207q-9 112 61 225 q64 99 166 170q153 108 308 108q103 0 153 -71q27 -40 21 -90zM436 672q0 20 -8 20q-10 0 -21.5 -16.5t-11.5 -28.5q0 -4 4 -8q27 3 37 33zM508 946q-167 0 -311 -135q-40 -37 -88 -104q-64 -88 -64 -140q0 -20 12 -32l9 4q71 295 393 383l55 16q0 5 -6 8zM569 461 q11 11 11 12q0 2 -2 2q-10 0 -78 -35q-1 -1 -92 -32q-67 -26 -66 -35q88 3 227 88z" />
<glyph unicode="d" horiz-adv-x="841" d="M1053 1178q-3 -14 -31 -56q-10 -15 -34.5 -50t-70 -99.5t-88.5 -126.5q-115 -167 -153 -291q-3 -33 0 -53q12 -27 43 -27q14 0 20 2l80 31q22 0 25 -14q3 -13 -8 -31q-21 -27 -97 -78q-30 -20 -51 -31l-78 -30q-50 -16 -82 -19q-35 -3 -71 19q-13 10 -33 45 q-18 30 -31 30q-6 0 -10 -2l-68 -39q-56 -26 -112 -26q-113 0 -170 106q-44 76 -29 178q30 194 242 320q123 72 225 72q17 0 53 -4l23 -9q25 -11 43 -26q14 -23 24 -33q16 -7 80 106q19 32 19 54q0 23 -19 39q-13 5 -26 12q0 9 14 20q55 29 72 35q11 4 69 21q102 26 174 16 q59 -18 56 -61zM938 1190q-27 4 -104 -10q-107 -18 -107 -27q0 -6 33 -20q188 27 188 45q0 5 -10 12zM768 1034q10 38 10 45q0 4 -4 4q-12 0 -53 -71l-45 -78q-49 -43 -49 -53q0 -5 4 -9q65 3 137 162zM795 461q3 6 -4 6q-8 0 -21.5 -8.5t-13.5 -14.5q0 -2 2 -2q21 3 37 19z M559 664q0 22 -6 22t-57 -100q-2 -6 -60 -70q-24 -27 -34 -40.5t-7 -14.5q61 3 111 74q41 59 53 129zM489 666q17 41 -4.5 67.5t-64.5 14.5q-75 -21 -105 -111q-13 -37 -4 -64q3 -14 19 -30q23 -23 45 -23t31 6q40 40 83 140zM455 958q-114 -3 -248 -96q-37 -12 -101 -110 q-63 -97 -63 -140q0 -20 14 -28q6 0 9 6q46 228 317 336q84 18 84 28z" />
<glyph unicode="e" horiz-adv-x="622" d="M723 895q9 -65 -47 -145q-102 -147 -264 -193q-38 -9 -119 -12q-27 -9 -27 -45q0 -45 56 -60q74 -9 213 62q25 14 40 10q12 -3 21 -18q6 -18 -12 -39q-159 -129 -357 -144q-218 3 -227 205q-3 45 6 88q52 184 219 293q163 106 328 109q158 3 170 -111zM567 686 q0 11 -45 -22l-57 -41l-53 -17q-43 -12 -43 -20l4 -4q147 26 194 104zM522 705q2 6 2 12q0 22 -32 22q-21 0 -48 -8q-84 -38 -127 -90q-9 -22 11 -25q6 -2 51 5q57 18 80 30q42 19 63 54zM506 956q-174 -27 -301 -122q-152 -116 -152 -273q0 -2 4 -10q10 3 13 29 q77 218 321 325l86 21q70 18 70 24t-41 6zM563 479q-9 6 -22 6q-31 0 -80 -34q-62 -44 -62 -54q0 -2 2 -2q39 10 93 35q69 34 69 49z" />
<glyph unicode="f" horiz-adv-x="450" d="M944 1356l-108 -185q-23 -37 -34 -43t-54 -6h-35q-71 0 -97 -45l-2 -2v-6q2 -2 9 -2h104q21 -9 18 -31q-7 -23 -20 -39q-7 -7 -41 -10l-115 -4q-30 -6 -45 -43l-94 -231q-42 -102 -108 -226q-137 -256 -347 -309q-49 -11 -94 -8q-37 5 -82 35q-24 20 -35 43q0 10 7 14 q126 34 245 221q86 138 230 490q5 8 2 18q-3 8 -37 8q-90 -3 -121 0q-38 3 -29 25q9 25 33 57q8 4 27 4q23 0 33 -2h116q24 0 39 11q1 2 64 118q135 252 411 234q99 -6 158 -62q5 -11 2 -24zM725 1393q-93 -5 -150.5 -32t-113.5 -95q-12 -16 -53 -92q-32 -69 -58 -95 q-37 -40 -96 -37l-4 -4q16 -10 47 -22q51 6 78 47q10 23 43 82q125 233 307 233q12 3 12 6q-7 8 -12 9zM125 1036q0 11 -8 11q-11 0 -11 -7q0 -4 7 -8q8 0 12 4zM-170 227q53 0 76 29q138 111 246 319q23 42 157 367q6 15 6 25q0 8 -4 8q-13 0 -28 -31q-104 -240 -123 -274 q-72 -149 -154 -258q-101 -128 -199 -170q0 -12 23 -15z" />
<glyph unicode="g" horiz-adv-x="770" d="M803 930q-6 -38 -45 -80q-8 -8 -117 -29q-111 -20 -145 -35q-124 -54 -185 -151q-24 -37 -14 -66q9 -25 51 -28q52 0 105 53q42 42 39 72l-15 32q-1 20 23.5 37.5t79.5 34.5q84 24 137 29q36 0 59 -13q22 -25 19 -53q-3 -30 -217 -389q-208 -346 -469 -463 q-82 -37 -170 -31q-87 6 -141 55.5t-54 129.5q0 144 154 221q26 13 41 16q8 3 16 0t6 -10l-16 -18q-29 -37 -29 -82q0 -67 61 -76q158 -21 365 236q10 13 10 16q-1 1 -22 -2q-92 -18 -152 -12q-160 30 -160 180q0 68 33 133q81 172 314 278q137 64 297 76q71 6 106 -8 q35 -21 35 -53zM727 741q-3 7 -27 7q-33 0 -96 -13q-78 -15 -78 -35q0 -6 19 -16q1 1 26 11t43 16q50 9 113 30zM649 942q-224 -35 -373 -123q-204 -119 -204 -305q0 -2 4 -6q4 0 8 4q65 299 496 401q94 21 98 25q-4 4 -29 4zM553 618q6 18 6 25q0 6 -4 6q-8 0 -86 -96 q-2 -1 -61 -35q-46 -27 -46 -37q0 -2 3 -2q62 5 115.5 44t72.5 95zM406 289q10 23 10 37q0 8 -4 8q-3 0 -11 -4q-155 -165 -168 -174q-81 -84 -215 -119q-2 -2 -2 -6q0 -2 4 -6q190 15 386 264zM-109 209q0 4 -4 4q-10 0 -47 -43q-47 -56 -47 -96q0 -18 8 -29l9 4 q7 29 81 160z" />
<glyph unicode="h" horiz-adv-x="753" d="M805 860q6 -59 -60 -172q-10 -17 -26 -43.5t-41 -67t-45 -73.5q-27 -46 -12 -66q12 -15 43 -6q52 14 49 17q4 -4 4 -9q0 -27 -64 -73q-115 -80 -204 -86q-115 -6 -130 94q-9 83 154 307q43 57 43 80q0 14 -14 20q-38 0 -72 -30q-39 -52 -199 -314q-72 -96 -180 -96 q-83 0 -117 51q-3 12 3 27l313 530q41 69 78 158q6 22 0 43q-4 18 -2 20q115 75 229 103q44 11 86 14q33 3 64 -4q16 -6 16 -24l-14 -37l-166 -287q-13 -23 -11 -33q5 -8 23 -4q60 19 156 35q87 3 96 -74zM639 1233q-8 4 -21 4q-36 0 -137 -29q-106 -34 -106 -61 q0 -8 16 -14q88 42 119 53q68 29 123 37q6 3 6 10zM678 887q-125 -27 -125 -43q0 -5 6 -8q23 3 88 18q66 18 66 27q0 6 -35 6zM573 756q-37 -34 -114 -158q-88 -137 -88 -188q0 -13 6 -19q4 0 8 4q35 86 176 289q23 44 23 59q0 13 -11 13zM393 1083q3 43 -2 43l-8 -6 q-45 -116 -225 -403l-92 -146q-76 -119 -76 -153q0 -6 4 -10q17 7 26 16l201 324q115 190 172 335z" />
<glyph unicode="i" horiz-adv-x="432" d="M657 1128q0 -51 -63 -88q-51 -32 -111 -32q-104 0 -110 63q-9 96 131 133q65 15 108 -4q45 -20 45 -72zM324 520q-14 -21 -23 -39q-3 -13 12 -22q8 -3 41 4l37 8q21 0 21 -12q0 -11 -43 -51q-143 -87 -246 -84q-75 3 -111 59q-18 40 -12 80q6 41 106 184q12 19 26 38.5 t19.5 28t6.5 11.5q25 38 39 86v12q-2 6 -2 17q0 12 8 20q46 32 78 43q127 47 192 47q72 0 72 -43q0 -67 -221 -387zM555 1157q-5 8 -23 8q-26 0 -69 -24q-43 -21 -43 -45q0 -10 10 -17q11 4 35 31q6 6 47 23q43 18 43 24zM369 866l102 31q-3 6 -22 6q-40 0 -119 -26 q-95 -27 -92 -50q8 -8 8 -24q0 -34 -101 -174q-98 -137 -98 -162q0 -15 10 -25q9 3 31 54l98 143q54 80 76 154q3 43 107 73z" />
<glyph unicode="j" horiz-adv-x="432" d="M733 1165q15 -46 -28 -86q-31 -31 -84 -47q-63 -16 -99 -8q-63 12 -69 59q-6 45 41 86q39 33 90 45q67 15 106 -2q33 -14 43 -47zM598 928q3 -23 -104 -209q-153 -259 -267 -432q-299 -452 -565 -428q-87 8 -140.5 57t-53.5 127q0 141 153 221q25 14 41 17q10 3 16 0 q10 -3 7 -11l-17 -18q-28 -36 -28 -82q0 -73 71 -82q148 -15 367 365l72 133q75 141 75 211q0 12 -4 28q-8 11 -8 21q0 6 4 10q136 77 309 92q66 6 72 -20zM637 1163q-3 13 -23 13q-26 0 -67 -21q-47 -21 -47 -45q0 -8 10 -18q5 5 51 41q39 14 76 30zM520 889q0 8 -22 8 q-54 0 -131 -27q-105 -21 -105 -36q0 -12 19 -21l118 43q39 6 121 33zM291 768q0 19 -4 23q-2 -9 -25 -66q-205 -555 -500 -678l-24 -12q0 -5 6 -8q114 6 229 139q61 69 150 221q82 143 102 184q57 118 66 197zM-473 53l88 160q-2 2 -4 2q-11 0 -49 -41q-47 -53 -47 -94 q0 -18 12 -27z" />
<glyph unicode="k" horiz-adv-x="802" d="M874 829q0 -33 -20 -77q-71 -121 -262 -195q-11 -2 -53 -20q-17 -17 -2 -35q20 -23 57 -23q56 0 154 43q25 11 45 2q33 -11 20 -43q-12 -27 -160 -110q-113 -61 -164 -64q-82 -6 -155 76l-31 33q-1 1 -16 -16q-3 -4 -45 -54q-39 -51 -107 -45q-37 5 -77.5 31.5 t-57.5 58.5q-3 31 16 66q146 200 287 557q28 72 16 112l-6 25q12 35 125 72q127 42 215 26q47 -21 41 -73q-6 -47 -76 -189q-28 -60 -20 -65q3 -3 29 0q14 2 47 2q200 6 200 -95zM590 1194q-3 8 -29 8q-31 0 -108 -18q-86 -21 -86 -45q0 -9 12 -15q34 8 110 35q26 9 53.5 18 t37 12.5t10.5 4.5zM666 866q0 4 -7 4q-10 3 -10 -4l6 -6q11 4 11 6zM655 705q0 22 -6 22q-12 -12 -45 -53q-117 -74 -117 -84q0 -2 2 -4q56 6 105 39.5t61 79.5zM580 709q8 13 8 24q0 35 -45 29q-22 -4 -41 -17q-36 -36 -47 -77q-3 -12 8 -19q63 -6 117 60zM764 479l4 6 q-4 4 -6 4q-30 0 -76 -30q-15 -10 -25 -17t-14.5 -11t-3.5 -5q62 18 121 53zM387 1083q-6 3 -12 -6q-108 -342 -320 -639q-6 -12 -6 -20q0 -9 6 -12q62 6 199 296q135 279 135 367q0 10 -2 14z" />
<glyph unicode="l" horiz-adv-x="468" d="M727 1192q-23 -64 -63 -129q-35 -60 -289 -473q-28 -50 -51 -84q-14 -19 -23 -39q-3 -14 12 -23q12 -3 39 0q37 11 39 11q21 0 21 -11q0 -17 -45 -53q-145 -91 -248 -88q-74 3 -109 62q-19 42 -10 84q6 39 39 86q150 228 311 505q17 28 33 78v15q-2 6 -2 16q0 12 8 20 q45 34 78 45q127 50 192 50q48 0 68 -23q12 -15 0 -49zM616 1194q36 9 39 12q-4 4 -16 4q-44 0 -119 -16q-92 -21 -92 -51q0 -9 6 -15q8 -19 -53 -124l-184 -287q-146 -228 -146 -277q0 -11 6 -14l121 195l154 231q95 147 119 248q3 54 165 94z" />
<glyph unicode="m" horiz-adv-x="1259" d="M1202 633q-22 -29 -80 -113q0 -1 -3.5 -6.5t-8 -14t-8.5 -18.5q-3 -13 12 -22q18 -6 76 12q22 0 22 -12q0 -11 -43 -51q-143 -87 -245 -84q-75 3 -111 59q-18 40 -12 80q6 32 82 149l53 80q12 12 35 56q4 12 4 14q0 10 -12 16q-45 6 -84 -20q-132 -183 -160 -223 q-47 -65 -68 -136v-12q2 -6 2 -16q0 -32 -65 -35q-69 -3 -96 0q-55 9 -80 47q-19 43 -11 80q9 46 136 229l14 21q24 41 24 47q0 12 -12 18h-20q-33 0 -68 -24l-113 -168q-94 -143 -94 -162q0 -5 5.5 -9.5t12 -8t11.5 -6.5t4 -5q-6 -28 -43 -43q-72 -31 -139 -28 q-75 3 -109 61q-18 44 -10 82q10 49 47 98q60 84 64 92q81 121 94 168v15q-6 26 8 37q56 37 78 45q125 49 194 49q72 0 72 -43q0 -14 -6 -29l-8 -20q192 88 313 88h14q74 0 74 -56l-8 -39q195 95 328 95q84 0 84 -56q0 -64 -146 -278zM1255 905q5 5 5 6q0 4 -15 4 q-73 0 -158 -26q-137 -40 -137 -60q0 -2 4 -6l54 6q129 56 247 76zM854 913q-7 7 -27 7q-44 0 -147 -33q-117 -35 -117 -58q0 -2 2 -4q47 3 154 52l78 16q57 12 57 20zM1040 727q4 16 4 18q0 11 -8 11q-4 0 -8 -4l-94 -123q-84 -116 -84 -164q0 -15 8 -23q14 3 94 136 q74 120 88 149zM641 752q-2 7 -12 4l-92 -129q-86 -121 -86 -168q0 -14 8 -17l8 7q27 59 80 133q77 108 86 133q10 28 8 37zM479 920q-2 2 -14 2q-35 0 -121 -25q-96 -27 -96 -51q4 -12 4 -19q0 -57 -82 -170l-107 -145q-12 -30 -12 -49q0 -13 6 -19q6 2 41 70 q67 89 152 229l29 78q16 28 71 51q69 18 100.5 29.5t28.5 18.5z" />
<glyph unicode="n" horiz-adv-x="868" d="M805 616q-43 -58 -88 -135q-3 -13 10 -22q12 -4 43 4l35 8q20 0 20 -12q0 -13 -41 -51q-143 -87 -247 -84q-75 3 -111 59q-12 27 -12 55q0 15 2 25q3 32 135 229q15 15 35 56q9 21 -8 30q-62 9 -119 -51l-105 -154q-86 -127 -86 -149q0 -5 5.5 -9.5t12 -8t11.5 -6.5t4 -5 q-6 -28 -43 -43q-72 -31 -139 -28q-75 3 -109 61q-18 44 -10 82q10 49 47 98q60 84 64 92q81 121 94 168v15q-6 26 8 37q56 37 78 45q125 49 194 49q72 0 72 -45q0 -10 -18 -60q163 80 288 97q36 4 52 4q84 0 84 -56q0 -75 -158 -295zM872 909q0 9 -22 9q-21 0 -150 -29 q-145 -53 -145 -64l4 -4q119 10 170 17q110 21 143 71zM649 713q6 18 6 37q-2 7 -10 4l-4 -4l-92 -125q-84 -122 -84 -162q0 -16 8 -21q10 3 19 27q45 64 157 244zM481 915q-3 7 -20 7q-39 0 -121 -27q-95 -27 -92 -51q6 -6 6 -19q0 -45 -90 -176l-107 -153q-6 -18 -6 -31 q0 -15 6 -21l11 7q15 39 120 184q81 112 84 192q14 17 209 88z" />
<glyph unicode="o" horiz-adv-x="675" d="M682 795q0 -86 -47 -172t-119 -136l-10 -12q-1 -1 2 -2q6 -2 22 -2q1 0 52 23q46 24 61 24q14 0 19 -8q3 -12 0 -27q-54 -109 -254 -118q-37 -3 -93 -29q-65 -27 -86 -29q-124 -15 -190 82q-41 59 -41 139q0 123 94 254q164 228 369 228q100 0 160.5 -58t60.5 -157z M623 477q-5 3 -45 -18q-37 -21 -29 -29q20 2 47 18t27 29zM438 666q-9 42 -49 36q-33 -6 -33 -61q3 -81 33 -90q33 3 47 65q6 22 2 50zM473 584l-43 -49q-30 -41 -22 -46q36 6 66 47t30 80q0 7 -4 11q-9 0 -27 -43zM455 948l4 4l-4 4q-12 2 -39 2q-113 0 -197 -96 q-51 -17 -113 -127q-59 -109 -59 -166q0 -21 10 -34q1 0 9 4q24 149 133 264t256 145zM246 440q0 -14 -17 16q-3 5 -6 11q-16 31 -22 49q-2 17 -19 55q-7 3 -22 -24q-28 -42 -19 -78q9 -38 49 -41q19 0 29 2q23 6 27 10zM311 436q-92 -47 -92 -63q0 -4 4 -4q90 12 90 53 q0 8 -2 14z" />
<glyph unicode="p" horiz-adv-x="823" d="M834 772q-15 -161 -197 -328q-83 -77 -211 -127q-27 -6 -53 -6q-52 0 -82 21l-35 22q-27 9 -96 -94l-62 -92q-73 -110 -174 -119q-46 -3 -94 25q-37 18 -37 49q0 12 6 27l62 94q113 175 164 260q85 140 120 262q1 3 11 43q3 27 -29 49q-6 6 -6 14q0 5 4 13 q133 121 244 149q53 12 82 -14q5 -4 18 -27q3 -16 25 -41h12q114 38 178 35q71 -6 113.5 -71.5t36.5 -143.5zM664 934q-9 6 -27 6q-25 0 -84 -18q-39 -12 -39 -23l4 -8q27 3 84 18q62 15 62 25zM371 989q-47 -14 -105 -45q-84 -44 -84 -65q0 -12 21 -15q16 8 65 43 q135 67 135 80q0 5 -32 2zM502 678q-3 51 -39 51q-29 0 -84 -37q-5 -4 -45 -96q-6 -17 -10.5 -30t-6.5 -18.5t-2 -4.5q6 -33 33 -33q50 0 103 59q54 60 51 109zM569 657q-1 1 -2 3t-2 2q-11 0 -39 -48l-37 -61l-65 -53q-57 -49 -57 -51q71 3 137 69q65 68 65 139zM221 768 q3 37 -4 37q-4 0 -6 -2q-139 -309 -369 -666q0 -11 8 -14q17 3 27 16q153 231 195 305q102 171 149 324z" />
<glyph unicode="q" horiz-adv-x="786" d="M879 954q17 -25 -13 -71l-67 -162q-34 -85 -92 -94l-74 -115l-64 -96q-2 -7 -12 -23q-3 -11 0 -14t10 0l17 4q20 6 32 2q19 -6 19 -25q-3 -42 -57 -59l-66 -22q-22 -7 -59 -64q-79 -131 -121 -209q-18 -35 -10 -43l16 -24q-3 -23 -88 -29q-34 -3 -74 0q-63 3 -90 49 q-15 40 -6 80q6 35 39 82l14 29q-5 0 -14 -3l-17 -6q-19 -6 -34 0q-20 3 -17 25q3 39 55 57l50 17q65 21 94 69l20 33q-70 -21 -135 -6q-80 21 -115 110q-33 79 -14 166q40 193 258 322q124 74 225 74q25 0 56 -7l26 -6q18 -9 39 -30l6 -11q112 34 183 31h6q37 0 57 -14 q6 -2 17 -17zM786 930q-12 4 -30 4q-31 0 -70 -8q-55 -9 -55 -25q0 -4 4 -8q151 18 151 37zM567 649q3 35 -4 35q-15 0 -45 -61q-2 -6 -35 -68q-86 -86 -86 -96q0 -4 2 -4q112 15 168 194zM496 662q19 41 -3 68t-65 15q-74 -21 -109 -110q-21 -59 9 -96q23 -23 45 -23t30 8 q50 50 93 138zM489 950l-6 4q-10 2 -30 2q-120 0 -285 -145q-119 -131 -119 -217q0 -23 12 -35q10 3 19 55q73 192 282 291l72 21q55 15 55 24zM332 305q2 6 2 14q0 13 -64 -45q-77 -71 -123 -71q-57 -15 -57 -25q0 -4 4 -8q94 13 139 33q51 23 99 102zM195 106q4 20 4 25 q0 10 -6 10q-9 0 -29 -26q-35 -47 -35 -80q0 -16 8 -21q8 0 58 92z" />
<glyph unicode="r" horiz-adv-x="675" d="M715 436l-17 -16q-69 -55 -174 -107q-55 -18 -106 -18q-48 0 -80 14q-55 25 -70 72q-19 58 15 151q20 44 32 68l50 76q4 10 -6.5 17t-36.5 12q-47 9 -62 0q-22 -13 -94 -91q-21 -20 -64 -63q-33 -23 -55 -23q-36 0 -39 37q-2 12 17 49q44 44 106 125q19 25 16 39 q-18 74 -18 80q0 90 74 152q41 35 92 32q40 -3 59 -34q27 -41 0 -113q-13 -30 2 -39q34 -9 78 -12q86 -3 193 49q19 3 28 -23q3 -85 27 -139q15 -29 -8 -49q-152 -130 -185 -229q-1 -18 9.5 -27.5t29.5 -7.5q28 0 121 43q40 18 60 8q16 -10 6 -33zM600 809q14 11 14 18 t-10 7q-20 0 -63 -15q-62 -21 -62 -33q0 -2 2 -4q72 6 119 27zM254 956l39 25q6 12 -6 12q-31 0 -72 -35q-39 -33 -39 -63q0 -19 14 -33q28 48 64 94zM680 442q-10 2 -68 -26q-45 -23 -45 -35q0 -2 2 -2q21 7 66 27q26 12 37 21t8 15zM430 678q-34 0 -74 -94 q-39 -82 -39 -127q0 -10 5 -25l55 129q59 95 59 105q0 9 -6 12zM211 768q-7 0 -96 -109q-62 -74 -54 -81q29 3 91 77q63 75 63 103q0 6 -4 10z" />
<glyph unicode="s" horiz-adv-x="679" d="M678 623q-11 -159 -109 -253t-256 -94t-260 97q-71 71 -71 164q0 100 67 176q68 80 164 92q41 0 41 -31q0 -10 -35 -82q-16 -37 -16 -47q0 -17 18 -14l8 4q31 25 86 76q34 31 156 155l6 19q-7 33 -8 47q-1 56 42 97.5t101 41.5q64 0 64 -51q0 -26 -19 -72l-30 -71l2 -23 q18 -40 45 -129q6 -69 4 -102zM612 1020q-6 2 -18 2q-24 0 -49 -20.5t-25 -40.5q0 -16 12 -19q7 2 17 19q8 8 33 28q34 23 30 31zM543 879q-7 3 -15 -5q-73 -102 -274 -274l-27 -25l6 -8q50 6 189 142q137 134 121 170zM573 662q2 10 2 24t-6 14l-6 -6q-42 -109 -65 -141 q-49 -70 -138 -88q-12 -9 -12 -14q0 -3 4 -7q87 9 154 70q67 64 67 148zM508 709q-3 24 -16 24q-6 0 -15 -6q-48 -48 -180 -192q-3 -13 7 -20t34 -9l33 8q122 46 137 195zM199 754q-8 4 -15 4q-43 0 -98 -70q-55 -67 -55 -113q0 -21 12 -30q29 60 70 129q86 71 86 80z" />
<glyph unicode="t" horiz-adv-x="520" d="M813 1049q-15 -51 -88 -60h-119q-129 -215 -231 -379q-28 -50 -51 -84q-14 -19 -23 -39q-3 -13 12 -22q12 -3 39 0q33 10 39 10q36 0 10 -33q-11 -13 -34 -30q-136 -91 -248 -88q-75 3 -109 61q-19 42 -10 84q6 39 39 86q134 209 274 440q-55 2 -139 2q-17 0 -24 6.5 t-3 18.5q3 15 19 47q8 14 39 14h78l10 2h39h30q12 27 21 54v14q-2 6 -2 16q0 13 8 21q45 34 78 45q125 49 192 49q49 0 68 -22q12 -15 0 -50q-19 -60 -63 -129l-2 -4q71 -3 133 0q21 -9 18 -30zM664 1233q-12 4 -25 4q-30 0 -121 -31q-90 -27 -90 -45q4 -16 4 -26 q0 -39 -28.5 -67t-65.5 -21q-16 0 -21 -5l52 -22q63 9 84 96q0 66 206 107q8 4 5 10zM305 1044q-4 -4 -4 -8q4 4 4 8zM266 1038l-8 9q-10 0 -10 -7q0 -4 6 -4q8 0 12 2zM217 1042q0 7 -12 7t-12 -7q0 -4 6 -10q18 3 18 10zM375 987q-20 0 -164 -231q-126 -199 -152 -256 q-6 -21 -6 -35q0 -13 6 -19q6 0 258 408q64 101 64 121q0 9 -6 12z" />
<glyph unicode="u" horiz-adv-x="882" d="M827 651q-6 -12 -88 -127l-22 -51q3 -9 10 -14q7 0 78 12q20 0 20 -12q0 -13 -41 -51q-125 -70 -245 -93q-105 -18 -140 -10q-25 6 -34 21q-17 24 10 82q-69 -34 -101 -46l-16 -10q-47 -21 -92 -24q-4 -2 -10 -2q-6 -3 -37 0q-74 3 -109 59q-19 42 -10 82q9 48 47 100 l64 90q80 116 94 170v13q-6 28 8 37q44 32 78 45q128 49 192 49q52 0 68 -23q12 -18 0 -49q-37 -99 -201 -334l-14 -20q-24 -38 0 -47q67 -9 113 45l145 207q25 36 51 104q3 15 -6 33l-10 18q0 39 198 60q14 2 43 2q93 0 93 -56q0 -65 -136 -260zM870 915q-186 0 -186 -22 q0 -9 23 -19q1 0 6.5 1.5t17.5 4t25 5.5q52 10 55 10q63 9 63 16zM711 848q-7 0 -103 -152l-92 -141q-67 -80 -135 -94q-6 -3 -6 -6l41 -13q49 8 90 58l61 88l82 108q68 89 68 135q0 11 -6 17zM485 920q-4 2 -18 2q-37 0 -123 -25q-94 -27 -94 -53q8 -8 8 -23 q0 -31 -106 -184q-105 -153 -99 -184l3 -4q3 -4 5 -5q0 2 7 5q15 33 122 184q81 112 84 194q18 25 76 45q28 7 50.5 13t39 11.5t27 10t15 8t3.5 5.5zM442 393q-3 6 -8 6q-20 0 -20 -26q0 -10 6 -13q22 6 22 33z" />
<glyph unicode="v" horiz-adv-x="765" d="M977 909q8 -8 -4 -41q-67 -166 -228 -190h-81q-11 0 -21 -10q-9 -20 -47 -80q-99 -156 -289 -223q-116 -41 -211 -23q-105 21 -96 88q2 31 125 291l18 43q0 12 -12 18l-20 6q-17 17 -17 31q-3 29 86 76q124 67 205 57q17 -3 39 -22q14 -20 14 -49q0 -40 -47 -123 q-35 -59 -110 -205q-5 -15 -5 -21q0 -11 9 -14q25 -11 82 35q93 72 139 178q12 17 18 43q3 16 -6 35q-51 57 -51 137q0 91 84 144q27 15 45 18q32 0 53 -21q12 -20 2 -49q-5 -13 -10 -39q-3 -28 23 -57q57 -63 174 -63q60 0 108 28q21 12 31 2zM887 825q0 6 -13 6 q-12 -3 -12 -6q0 -4 4 -8q21 7 21 8zM604 1049q0 12 -8 12q-22 0 -48 -34t-26 -60q0 -16 8 -27q16 26 33 61q25 25 41 48zM371 899q-4 4 -19 4q-25 0 -61 -8q-150 -53 -150 -70q0 -4 4 -4h39q65 22 187 78zM594 772q-7 7 -12 4q-49 -91 -70 -123q-49 -71 -88 -110 q-115 -71 -115 -82l4 -6q93 6 187 114q94 107 94 203zM213 735q0 21 -8 21q-4 0 -6 -2q-35 -58 -76 -144q-66 -138 -66 -176q0 -11 6 -14q14 7 78 147q69 145 72 168z" />
<glyph unicode="w" horiz-adv-x="1206" d="M1343 838q-10 -51 -47 -99q-57 -79 -63 -92q-76 -114 -94 -168v-14q2 -6 2 -14q0 -15 -8 -23q-44 -31 -80 -45q-125 -49 -193 -49q-72 0 -72 45q0 22 15 49q-194 -90 -314 -90q-12 0 -14 2q-74 6 -74 55q0 22 9 37q-201 -94 -332 -94q-82 0 -82 57q0 65 147 277l78 112 q15 25 21 39q3 13 -11 23q-15 3 -41 0q-30 -10 -36 -10q-34 0 -13 30q7 11 33 31q143 87 248 84q74 -3 110 -59q13 -29 13 -56q0 -14 -2 -24q-3 -33 -135 -230l-35 -53q-4 -12 -4 -14q0 -11 12 -17q40 -8 84 21q38 50 162 223q47 65 65 133v15q-6 23 10 35t54 14q72 3 96 0 q58 -9 80 -47q18 -43 12 -80q-6 -28 -84 -150q-9 -17 -53 -80l-12 -20q-25 -42 -25 -47q0 -19 18 -19h13q31 0 67 25l113 168q96 146 96 162q0 5 -5.5 9.5t-12 7.5t-11.5 6t-4 5q3 30 43 45q74 30 138 27q73 -3 110 -61q16 -44 8 -82zM1214 930q-25 2 -61 2q-49 0 -49 -10 q0 -9 33 -23q82 15 82 27q0 1 -2 2q-1 1 -1.5 1t-1.5 1zM1133 874q-51 -65 -115 -174q-50 -83 -113 -174q-6 -6 -47 -24q-41 -15 -41 -23q0 -6 21 -12q51 6 92 41q60 84 194 293q23 38 23 67q0 9 -6 9q-5 0 -8 -3zM766 895l18 20q-2 0 -41 17q-10 0 -10 -6l5 -11 q5 -11 5 -16q-39 -87 -108 -186l-125 -178q-8 -8 -45 -27q-41 -21 -41 -29q0 -7 20 -10q34 3 78 33q109 148 137 190q75 118 107 203zM850 391q18 3 18 19q0 8 -6 8q-7 0 -16 -12q-4 -11 4 -15zM412 920l4 6q-1 10 -25 9t-76 -13q-147 -38 -147 -62q0 -2 2 -4l74 25 q46 4 84 16q56 17 84 23zM475 410q3 12 -6 12q-10 0 -10 -10q0 -5 4 -9q1 0 12 7zM305 780q8 21 8 35q0 6 -2 6q-10 0 -155 -207q-103 -148 -103 -198q0 -12 6 -15q12 4 17 11q34 76 110 186q98 142 119 182z" />
<glyph unicode="x" horiz-adv-x="817" d="M918 940q-3 -33 -41 -39q-84 -15 -175 -78q-102 -73 -102 -151q0 -41 31.5 -71t73.5 -30q19 0 61 17l37 16q6 0 6 -8q0 -19 -31 -61q-150 -191 -291 -191q-74 0 -122 66q-3 6 -11 23t-12 24q-17 17 -41 -4q-117 -99 -231 -111q-50 -6 -81.5 21.5t-27.5 76.5q3 37 27 58 q19 16 32 16q7 0 9 -2q10 -15 43 -53q24 -15 57 -6q79 20 143 106q47 65 47 137q0 87 -77 105q-62 15 -62 33q0 27 43 67l33 27q70 41 152 51h61q54 -11 78 -29t49 -67q6 -6 14 -6q9 0 13 2q125 93 241 96q21 0 27 -2q27 -15 27 -33zM772 922q-135 -55 -135 -88q0 -5 2 -7 q13 3 47 29q137 67 137 76q-2 2 -4 2q-17 0 -47 -12zM387 928q-20 -4 -86 -29q-65 -27 -65 -45q0 -4 4 -8q33 3 63 24l72 25q57 20 57 29q0 7 -45 4zM387 666q-3 8 -6 8l-8 -6q-52 -169 -238 -254q-4 -8 4 -11q98 28 168 95q80 77 80 168zM27 455q0 10 -3 14t-8 2 q-8 -5 -8 -20q0 -16 12 -25q13 3 7 29z" />
<glyph unicode="y" horiz-adv-x="870" d="M823 637q-213 -326 -372 -508q-111 -128 -279 -207q-82 -40 -170 -31q-87 8 -141 57.5t-54 127.5q0 144 154 221q26 13 41 16q8 3 16 0q9 -3 7 -10l-17 -18q-28 -36 -28 -82q0 -28 18 -52t43 -24q145 0 303 186q46 51 72 97q10 17 10 26l-4 4q6 0 10 -4q0 -15 -274 -110 q-19 -3 -35 0q-75 3 -111 59q-16 46 -8 82q9 47 47 100l64 90q69 97 94 170v13q-2 6 -2 16q0 13 8 21q45 34 78 45q125 49 192 49q52 0 68 -23q12 -15 0 -49q-35 -91 -199 -334q-28 -45 -28 -51q0 -18 41 -18q58 0 98 43l41 63q46 57 137 197l12 39q2 10 1.5 19t-3 18.5 t-5.5 16.5t-5 12l-2 5q15 41 156 56q50 4 65 4q105 0 105 -58q0 -57 -144 -274zM834 905l4 2q0 11 -64 11q-82 0 -82 -19q0 -7 25 -20q8 2 29 7t43 10t45 9zM723 803q2 4 2 24q0 23 -4 23l-8 -8q-23 -81 -197 -307q-33 -45 -92 -54q-12 -3 -12 -8q0 -8 65 -8q30 3 55 39 l125 176q44 60 66 123zM489 918q-3 6 -22 6q-33 0 -115 -27q-79 -24 -98 -43q9 -54 -94 -205t-103 -194l6 -11q31 3 121 170q94 168 97 213q12 21 73 45q135 24 135 46zM494 399q4 12 4 21q0 10 -9 10q-6 0 -8 -2q-121 -160 -170 -209q-104 -101 -237 -139q-6 -3 -6 -6 l12 -6q120 14 244 112q121 100 170 219zM-129 92l88 154q0 4 -4 4q-7 0 -45 -41q-49 -55 -49 -92q0 -15 10 -25z" />
<glyph unicode="z" horiz-adv-x="720" d="M799 377q-3 -22 -35 -25l-143 -12q-82 -9 -140 -35q-11 -5 -20 -41l-12 -53q-5 -21 -37 -100q-58 -139 -230 -252q-152 -98 -319 -140q-69 -16 -127 -16q-82 9 -82 80q0 113 209 319q115 115 383 232q39 15 43 33q3 14 -29 20q-11 3 -50 -5.5t-52 -4.5q-69 18 -78 76 q-9 46 24 82q21 24 35 24l62 -29q34 -15 63 -6q55 16 105 60q60 54 51 100q-9 47 -74 47q-115 0 -252 -149q-4 -7 -12 -7q-22 0 -31 35q-15 173 185 281q71 36 104 47q122 43 223 43q151 0 189 -117q8 -24 8 -49q0 -111 -150 -219q-8 -6 -21 -14.5t-35 -21.5t-38 -23 q-41 -18 -108 -52l-7 -6q0 -5 11 -12q18 -25 53 -53l201 24q46 3 86 -6q56 -15 47 -55zM543 922l8 6l-8 6q-150 -3 -310 -86q-28 -14 -79 -62q-60 -57 -60 -90q0 -12 8 -20q17 3 50 65q114 144 391 181zM653 399q-2 2 -18 2q-30 0 -74 -8q-57 -9 -57 -20l4 -4q145 27 145 30 zM485 662q0 8 -4 8q-3 0 -71 -92q-158 -106 -158 -111q0 -4 2 -4q48 3 96 35q20 17 82 63q53 53 53 101zM131 473q21 3 21 25t-13 22q-8 0 -14 -20q-3 -21 6 -27zM342 178q0 21 -6 21q-8 0 -17 -15q-100 -196 -333 -317q-29 -16 -29 -21q0 -7 8 -10q111 21 230 127 q117 105 147 215zM254 197q-62 -35 -135 -99q-61 -56 -99 -96q-75 -78 -75 -102q0 -2 4 -6q43 18 65 26q134 65 222 191q47 65 47 86q0 8 -9 8q-7 0 -20 -8zM332 360q-39 -47 -164 -108q-169 -81 -188 -94q-38 -11 -156 -144q-125 -137 -125 -200q0 -15 10 -25q10 3 25 47 q53 99 94 135q73 102 217 187q44 26 260 133q16 13 33 45q10 20 10 26q0 5 -4 5q-2 0 -12 -7z" />
<glyph unicode="&#x2000;" horiz-adv-x="819" />
<glyph unicode="&#x2001;" horiz-adv-x="1638" />
<glyph unicode="&#x2002;" horiz-adv-x="819" />
<glyph unicode="&#x2003;" horiz-adv-x="1638" />
<glyph unicode="&#x2004;" horiz-adv-x="546" />
<glyph unicode="&#x2005;" horiz-adv-x="409" />
<glyph unicode="&#x2006;" horiz-adv-x="273" />
<glyph unicode="&#x2007;" horiz-adv-x="273" />
<glyph unicode="&#x2008;" horiz-adv-x="204" />
<glyph unicode="&#x2009;" horiz-adv-x="327" />
<glyph unicode="&#x200a;" horiz-adv-x="91" />
<glyph unicode="&#x202f;" horiz-adv-x="327" />
<glyph unicode="&#x205f;" horiz-adv-x="409" />
<glyph unicode="&#x25fc;" horiz-adv-x="983" d="M0 983h983v-983h-983v983z" />
</font>
</defs>
</svg>
