<svg xmlns="http://www.w3.org/2000/svg" xmlns:xlink="http://www.w3.org/1999/xlink" version="1.1" id="Ebene_1" x="0px" y="0px" width="119.416px" height="119.416px" viewBox="0 0 119.416 119.416" enable-background="new 0 0 119.416 119.416" xml:space="preserve">
<defs>
  <style type="text/css"><![CDATA[
		@font-face {
		    font-family: msyi;
		    src: url('../fonts/msyi/msyi-webfont.ttf') format("truetype");
		    }
		}]]>
  </style>
</defs>
<g>
	<path d="M63.864 43.616l-4.153-6.847l-4.395 7.213h0.001c-0.439 0.752-0.695 1.624-0.695 2.557c0 2.8 2.3 5.1 5.1 5.1 c2.809 0 5.086-2.277 5.086-5.086C64.793 45.5 64.4 44.4 63.9 43.616z"/>
</g>
<text transform="matrix(1 0 0 1 28.8311 67.6816)" font-family="'msyi'" font-size="17.7345">easydrops</text>
<g>
	<path d="M74.257 46.038l36.216-36.216l-0.725-0.724L73.536 45.31C73.782 45.5 74 45.8 74.3 46.038z"/>
	<path d="M45.31 73.536l-33.071 33.071l-6.12 1.716l-0.534 1.516l4.754-1.334l-3.684 3.685l-6.122 1.719L0 115.426l5.774-1.621 l-1.451 5.481l1.522-0.56l1.543-5.821l3.71-3.71l-1.192 4.506l1.525-0.561l1.539-5.817l33.068-33.067 C45.789 74 45.5 73.8 45.3 73.536z"/>
	<polygon points="119.4,0.1 108.2,7.6 112,11.3"/>
	<path d="M118.722 113.569l-5.821-1.543l-3.711-3.709l4.507 1.193l-0.56-1.525l-5.817-1.54L74.254 73.4 c-0.234 0.249-0.474 0.491-0.721 0.728l33.069 33.068l1.716 6.12l1.517 0.533l-1.335-4.754l3.685 3.685l1.719 6.121l1.517 0.5 l-1.621-5.775l5.481 1.451L118.722 113.569z"/>
	<path d="M46.035 45.161L9.816 8.943L9.092 9.667l36.215 36.215C45.544 45.6 45.8 45.4 46 45.161z"/>
	<polygon points="11.3,7.4 0.1,0 7.6,11.2"/>
	<path fill="none" stroke="#000000" stroke-miterlimit="10" d="M46.035 45.2"/>
	<path fill="none" stroke="#000000" stroke-miterlimit="10" d="M73.536 45.3"/>
	<path fill="none" stroke="#000000" stroke-miterlimit="10" d="M45.308 45.9"/>
	<path fill="none" stroke="#000000" stroke-miterlimit="10" d="M74.257 46"/>
	<path fill="none" stroke="#000000" stroke-miterlimit="10" d="M74.254 73.4"/>
</g>
<path fill="none" stroke="#000000" stroke-miterlimit="10" d="M94.919 21.236c0 0 0 33.2 0 50.2 c0 16.979-35.211 42.122-35.211 42.122S24.496 89.7 24.5 71.448c0-18.276 0-50.212 0-50.212H94.919z"/>
<g>
	<path fill-rule="evenodd" clip-rule="evenodd" d="M67.802 75.237c0 0-3.843 5.551-5.843 8.441c1.054 0.2 1.8 0.3 2.7 0.5 c-2.881 3.134-5.637 6.129-8.681 9.439c1.168-3.172 2.191-5.948 3.269-8.872c-1.131-0.18-1.944-0.31-3.008-0.479 c1.085-2.872 3.22-8.754 3.22-8.754L67.802 75.237z"/>
</g>
<circle fill-rule="evenodd" clip-rule="evenodd" cx="54" cy="97.9" r="2"/>
</svg>
