<svg xmlns="http://www.w3.org/2000/svg" xmlns:xlink="http://www.w3.org/1999/xlink" version="1.1" id="Ebene_1" x="0px" y="0px" width="119.416px" height="119.416px" viewBox="0 0 119.416 119.416" enable-background="new 0 0 119.416 119.416" xml:space="preserve">
<defs>
  <style type="text/css"><![CDATA[
		@font-face {
		    font-family: msyi;
		    src: url('../fonts/msyi/msyi-webfont.ttf') format("truetype");
		    }
		}]]>
  </style>
</defs>
<g>
	<path fill="#FFFFFF" d="M63.864 43.616l-4.153-6.847l-4.395 7.213h0.001c-0.439 0.752-0.695 1.624-0.695 2.6 c0 2.8 2.3 5.1 5.1 5.1c2.808 0 5.085-2.277 5.085-5.086c-0.015-1.053-0.408-2.153-0.908-2.937H63.864z"/>
</g>
<text transform="matrix(1 0 0 1 28.8311 67.6807)" fill="#FFFFFF" font-family="'msyi'" font-size="17.7345">easydrops</text>
<g>
	<path fill="#FFFFFF" d="M74.257 46.038l36.217-36.216l-0.726-0.724L73.536 45.31C73.782 45.5 74 45.8 74.3 46.038H74.257z"/>
	<path fill="#FFFFFF" d="M45.31 73.536l-33.071 33.07l-6.12 1.717l-0.534 1.516l4.754-1.334l-3.684 3.686l-6.122 1.719L0 115.4 l5.774-1.62l-1.451 5.48l1.522-0.561l1.543-5.82l3.71-3.711l-1.192 4.507l1.525-0.562l1.539-5.816l33.068-33.067 C45.789 74 45.5 73.8 45.3 73.536H45.31z"/>
	<polygon fill="#FFFFFF" points="119.4,0.1 108.2,7.6 112,11.3"/>
	<path fill="#FFFFFF" d="M118.722 113.569l-5.82-1.543l-3.711-3.709l4.506 1.193l-0.559-1.525l-5.818-1.541L74.254 73.4 c-0.233 0.25-0.474 0.492-0.721 0.729l33.069 33.068l1.715 6.119l1.518 0.533l-1.335-4.754l3.685 3.686l1.719 6.121l1.518 0.5 l-1.621-5.775l5.48 1.451L118.722 113.569z"/>
	<path fill="#FFFFFF" d="M46.035 45.161L9.816 8.943L9.092 9.667l36.215 36.215C45.544 45.6 45.8 45.4 46 45.161H46.035z"/>
	<polygon fill="#FFFFFF" points="11.3,7.4 0.1,0 7.6,11.2"/>
	<path fill="#FFFFFF" d="M46.035 45.2"/>
	<path fill="#FFFFFF" d="M73.536 45.3"/>
	<path fill="#FFFFFF" d="M45.308 45.9"/>
	<path fill="#FFFFFF" d="M74.257 46"/>
	<path fill="#FFFFFF" d="M74.254 73.4"/>
</g>
<path fill="none" stroke="#FFFFFF" stroke-miterlimit="10" d="M94.919 21.236c0 0 0 33.2 0 50.2 c0 16.979-35.211 42.121-35.211 42.121S24.496 89.7 24.5 71.448c0-18.276 0-50.212 0-50.212H94.919z"/>
<g>
	<path fill="#FFFFFF" d="M67.802 75.237c0 0-3.843 5.551-5.843 8.441c1.054 0.2 1.8 0.3 2.7 0.5 c-2.881 3.133-5.637 6.129-8.681 9.438c1.168-3.173 2.191-5.948 3.269-8.872c-1.131-0.18-1.944-0.311-3.008-0.479 c1.085-2.873 3.22-8.754 3.22-8.754L67.802 75.237z"/>
</g>
<circle fill="#FFFFFF" cx="54" cy="97.9" r="2"/>
</svg>
