<?xml version="1.0" encoding="utf-8"?>
<!-- Generator: Adobe Illustrator 17.0.0, SVG Export Plug-In . SVG Version: 6.00 Build 0)  -->
<!DOCTYPE svg PUBLIC "-//W3C//DTD SVG 1.1//EN" "http://www.w3.org/Graphics/SVG/1.1/DTD/svg11.dtd">
<svg version="1.1" id="Capa_1" xmlns="http://www.w3.org/2000/svg" xmlns:xlink="http://www.w3.org/1999/xlink" x="0px" y="0px"
	 width="200px" height="200px" viewBox="0 0 200 200" enable-background="new 0 0 200 200" xml:space="preserve">
<path d="M191.84,51.861C178,8.749,107.705,7.333,95.406,48.437c-16.55-33.422-63.698-34.059-81.654,2.043
	c-24.76,49.78,28.093,111.247,70.717,130.2c0.246,0.109,0.486,0.158,0.718,0.17c0.413,0.722,1.031,1.315,1.877,1.545
	c7.351,2.009,19.017-8.444,24.546-11.859c5.945-3.671,12.227-7.222,18.378-10.952c0.323,0.177,0.637,0.387,0.965,0.549
	c1.866,0.931,3.679-1.115,2.63-2.761c4.495-2.819,8.868-5.767,12.924-8.976C175.057,125.816,204.389,90.95,191.84,51.861z
	 M181.892,49.94c-1.867-1.389-3.645-2.624-4.971-3.646c-8.527-6.571-17.394-12.708-26.366-18.661
	C163.578,29.866,175.545,37.325,181.892,49.94z M144.927,27.03c0.1,0.252,0.252,0.493,0.527,0.681
	c14.578,9.945,27.966,20.416,40.114,32.943c0.234,1.131,0.472,2.259,0.629,3.447c0.085,0.647,0.13,1.291,0.19,1.935
	c-8.359-6.377-17.397-11.964-25.604-18.595c-7.793-6.298-15.258-13.098-22.136-20.414C140.738,26.884,142.836,26.912,144.927,27.03z
	 M85.219,176.933c-15.458-9.09-31.253-22.883-43.835-39.046c1.752,1.658,3.47,3.253,5.076,4.771
	c12.067,11.404,25.875,24.294,40.138,33.357C86.015,176.203,85.532,176.502,85.219,176.933z M90.993,174.522
	c-9.677-11.473-24.109-20.153-35.508-29.807c-11.483-9.725-21.938-19.857-30.027-32.38c-2.664-5.628-4.807-11.379-6.381-17.175
	c10.148,14.422,22.989,27.621,35.196,40.193c12.533,12.905,28.157,27.645,45.684,33.455
	C97.007,170.962,93.849,173.152,90.993,174.522z M111.218,161.068c-18.503-8.804-34.171-25.726-48.666-39.614
	c-9.082-8.703-17.878-17.713-26.351-27.009c-4.999-5.484-9.388-13.311-15.086-17.95c-0.427-0.348-0.963-0.113-1.025,0.425
	c-0.619,5.312,7.15,12.364,10.201,16.072c9.088,11.044,19.17,21.344,29.248,31.476c10.345,10.401,21.104,20.427,32.511,29.657
	c3.791,3.067,8.95,7.864,14.286,10.067c-0.847,0.574-1.748,1.21-2.735,1.934c-0.124-0.121-0.24-0.247-0.414-0.34
	c-17.168-9.172-31.775-19.986-45.896-33.45c-13.459-12.832-24.746-28.149-38.638-40.442c-0.131-0.115-0.285-0.146-0.438-0.162
	c-1.37-5.971-2.114-11.978-2.048-17.947c0.044-4.043,0.642-8.004,1.695-11.802c33.694,31.02,63.741,65.813,98.116,96.081
	C114.389,159.061,112.809,160.072,111.218,161.068z M120.578,155.158C85.648,124.54,55.232,88.791,18.322,60.466
	c0.926-2.947,2.154-5.771,3.629-8.444c16.738,24.147,39.12,43.571,60.498,63.508c9.538,8.896,18.666,18.218,28.151,27.173
	c3.709,3.501,7.56,7.717,11.713,11.359C121.734,154.427,121.156,154.793,120.578,155.158z M127.39,150.857
	C93.493,116.512,52.747,88.268,23.165,49.937c1.324-2.124,2.843-4.11,4.494-5.974c29.544,38.681,70.802,66.543,101.209,104.609
	c0.306,0.384,0.646,0.593,0.993,0.725C129.037,149.816,128.214,150.337,127.39,150.857z M136.71,144.972
	c-1.275,0.809-2.554,1.613-3.831,2.419c0.22-0.768,0.168-1.628-0.43-2.401c-29.798-38.544-71.436-65.67-103.25-102.455
	c-0.035-0.041-0.079-0.056-0.119-0.089c1.673-1.717,3.502-3.276,5.442-4.693c33.952,35.134,67.699,71.046,103.448,104.303
	c0.738,0.687,1.581,0.767,2.33,0.54C139.102,143.415,137.903,144.215,136.71,144.972z M141.655,141.668
	c0.684-0.874,0.854-2.107-0.196-3.101c-35.273-33.378-67.289-71.37-104.893-102.223c2.666-1.714,5.557-3.107,8.62-4.174
	c13.214,22.694,34.979,40.324,54.512,57.333c9.662,8.413,19.591,16.53,28.043,26.174c4.514,5.15,12.097,15.964,19.239,17.379
	c1.511,0.299,3.05-1.26,2.108-2.742c-3.685-5.799-10.515-10.51-15.282-15.473c-8.675-9.034-17.675-17.229-27.291-25.303
	C85.141,71.587,63.601,54.415,47.36,31.484c0.809-0.23,1.614-0.469,2.446-0.649c19.151-4.135,33.22,9.614,40.379,25.508
	c-3.782-3.66-7.556-7.327-11.412-10.909c-5.862-5.445-12.338-12.826-20.397-14.406c-0.692-0.136-1.122,0.769-0.488,1.157
	c8.354,5.105,15.958,14.024,22.946,20.81c11.234,10.91,22.055,22.248,32.911,33.531c8.242,8.567,16.471,17.135,24.651,25.76
	c3.552,3.745,13.298,17.475,19.904,15.517c0.014-0.004,0.022-0.012,0.036-0.017C153.021,132.983,147.351,137.671,141.655,141.668z
	 M159.505,126.667c0.251-0.858-0.21-1.909-1.203-2.308c-8.301-3.336-16.998-16.488-23.024-22.844
	c-8.259-8.711-16.821-17.135-25.286-25.646c-4.179-4.201-8.386-8.375-12.606-12.535c1.444-0.649,2.465-2.148,1.942-4.226
	c-0.13-0.516-0.296-1-0.438-1.504c0.244-0.838,0.545-1.628,0.83-2.432c3.102,9.93,17.211,19.61,23.699,25.33
	c14.192,12.511,29.33,23.914,43.232,36.757c0.284,0.263,0.586,0.413,0.89,0.504C165.007,120.863,162.32,123.846,159.505,126.667z
	 M169.993,114.648c-0.091-0.148-0.152-0.301-0.29-0.443c-11.58-11.888-25.617-21.649-38.48-32.079
	c-10.033-8.134-24.188-17.779-30.398-29.775c1.216-2.8,2.713-5.341,4.398-7.679c0.974,2.729,3.524,6.881,4.079,7.562
	c5.087,6.252,10.985,11.544,17.156,16.701c15.336,12.817,29.786,26.803,45.403,39.232c0.847,0.674,1.825,0.596,2.565,0.162
	C173.031,110.481,171.556,112.592,169.993,114.648z M175.517,106.602c0-0.475-0.188-0.971-0.673-1.42
	c-15.714-14.528-32.119-27.638-48.84-40.914c-7.184-5.705-14.709-11.984-18.994-20.239c-0.106-0.204-0.247-0.593-0.424-1.033
	c0.243,0.126,0.463,0.293,0.712,0.41c0.166,0.091,0.303-0.148,0.147-0.252c-0.29-0.193-0.522-0.317-0.758-0.445
	c1.307-1.601,2.727-3.071,4.23-4.429c8.916,13.229,20.502,24.911,31.733,36.032c8.757,8.672,22.367,25.325,34.982,28.612
	C176.947,104.16,176.263,105.395,175.517,106.602z M179.241,99.862c-3.806-4.515-9.961-7.737-14.5-11.397
	c-6.662-5.372-13.036-11.117-19.326-16.915c-11.719-10.8-22.756-22.339-32.551-34.902c1.333-1.063,2.735-2.024,4.177-2.914
	c11.098,10.454,21.898,21.199,32.886,31.768c9.593,9.227,20.539,20.429,32.882,25.883c0.027,0.012,0.055,0.009,0.082,0.019
	C181.856,94.272,180.632,97.095,179.241,99.862z M184.033,87.879c-10.414-8.454-21.421-16.013-31.519-24.965
	c-11.26-9.981-21.968-20.595-33.404-30.375c2.115-1.15,4.325-2.111,6.594-2.913c9.046,10.44,18.903,20.102,29.212,29.305
	c8.451,7.544,19.457,18.988,30.595,23.057C185.114,83.968,184.619,85.933,184.033,87.879z M186.242,77.297
	c-8.987-7.468-19.697-13.498-28.737-20.955c-10.381-8.563-20.451-17.664-29.815-27.365c2.537-0.772,5.149-1.283,7.783-1.634
	c6.92,8.19,14.555,15.657,22.633,22.775c8.494,7.484,18.191,16.328,28.502,21.41C186.581,73.462,186.467,75.387,186.242,77.297z"/>
</svg>
