<?xml version="1.0" encoding="utf-8"?>
<!-- Generator: Adobe Illustrator 16.0.0, SVG Export Plug-In . SVG Version: 6.00 Build 0)  -->
<!DOCTYPE svg PUBLIC "-//W3C//DTD SVG 1.1//EN" "http://www.w3.org/Graphics/SVG/1.1/DTD/svg11.dtd">
<svg version="1.1" id="Layer_1" xmlns="http://www.w3.org/2000/svg" xmlns:xlink="http://www.w3.org/1999/xlink" x="0px" y="0px"
	 width="100px" height="100px" viewBox="0 0 100 100" enable-background="new 0 0 100 100" xml:space="preserve">
<g>
	<path d="M56.615,73.863v-5.009c0.038-0.049,0.079-0.097,0.107-0.153c0.236-0.461,5.778-11.355,5.778-16.37
		c0-7.162-5.827-12.988-12.99-12.988s-12.99,5.826-12.99,12.988c0,4.205,4.636,13.361,5.91,15.796
		c-0.005,0.041-0.024,0.077-0.024,0.119v5.617c0,0.553,0.448,1,1,1h12.208C56.167,74.863,56.615,74.416,56.615,73.863z
		 M47.623,56.274h3.775v10.845c0,0.045,0.02,0.084,0.025,0.127h-3.826c0.005-0.043,0.025-0.082,0.025-0.127V56.274z M49.511,41.343
		c6.06,0,10.99,4.93,10.99,10.988c0,3.947-4.169,12.653-5.287,14.915h-1.841c0.005-0.043,0.025-0.082,0.025-0.127V56.274h1.026
		c0.552,0,1-0.447,1-1s-0.448-1-1-1h-1.026v-0.5c0-0.553-0.448-1-1-1s-1,0.447-1,1v0.5h-3.775v-0.5c0-0.553-0.448-1-1-1
		s-1,0.447-1,1v0.5h-1.335c-0.552,0-1,0.447-1,1s0.448,1,1,1h1.335v10.845c0,0.045,0.02,0.084,0.025,0.127h-1.422
		c-1.822-3.466-5.705-11.554-5.705-14.915C38.521,46.272,43.451,41.343,49.511,41.343z"/>
	<path d="M46.623,76.115c-0.552,0-1,0.447-1,1s0.448,1,1,1h5.775c0.552,0,1-0.447,1-1s-0.448-1-1-1H46.623z"/>
	<path d="M50.511,32.038v-7.022c0-0.553-0.448-1-1-1s-1,0.447-1,1v7.022c0,0.553,0.448,1,1,1S50.511,32.591,50.511,32.038z"/>
	<path d="M66.528,40.086c0.256,0,0.512-0.098,0.707-0.293l4.965-4.966c0.391-0.391,0.391-1.023,0-1.414s-1.023-0.391-1.414,0
		l-4.965,4.966c-0.391,0.391-0.391,1.023,0,1.414C66.016,39.988,66.272,40.086,66.528,40.086z"/>
	<path d="M62.994,26.987c-0.502-0.232-1.096-0.014-1.328,0.487l-2.95,6.371c-0.232,0.501-0.014,1.096,0.487,1.327
		c0.136,0.063,0.279,0.093,0.42,0.093c0.377,0,0.739-0.215,0.908-0.58l2.95-6.371C63.713,27.813,63.495,27.219,62.994,26.987z"/>
	<path d="M37.787,26.236c-0.514,0.201-0.768,0.782-0.565,1.296l2.565,6.534c0.154,0.395,0.532,0.635,0.931,0.635
		c0.121,0,0.245-0.022,0.365-0.069c0.514-0.201,0.768-0.782,0.565-1.296l-2.565-6.534C38.881,26.288,38.3,26.035,37.787,26.236z"/>
	<path d="M19.256,45.415c-0.184,0.521,0.089,1.092,0.61,1.275l6.622,2.34c0.11,0.039,0.223,0.058,0.333,0.058
		c0.412,0,0.798-0.256,0.943-0.667c0.184-0.521-0.089-1.092-0.61-1.275l-6.622-2.34C20.012,44.622,19.44,44.894,19.256,45.415z"/>
	<path d="M79.156,65.512l-6.622-2.337c-0.521-0.18-1.092,0.09-1.276,0.61c-0.184,0.521,0.089,1.092,0.61,1.276l6.622,2.337
		c0.11,0.038,0.223,0.057,0.333,0.057c0.412,0,0.798-0.257,0.943-0.667C79.95,66.267,79.676,65.696,79.156,65.512z"/>
	<path d="M28.701,66.047c-0.239-0.498-0.837-0.71-1.334-0.471l-6.335,3.029c-0.498,0.238-0.709,0.836-0.471,1.334
		c0.172,0.358,0.53,0.568,0.903,0.568c0.145,0,0.292-0.031,0.431-0.098l6.335-3.029C28.728,67.143,28.939,66.545,28.701,66.047z"/>
	<path d="M71.654,46.628l6.335-3.027c0.499-0.238,0.709-0.835,0.471-1.334c-0.239-0.498-0.835-0.709-1.333-0.471l-6.335,3.027
		c-0.499,0.238-0.709,0.835-0.471,1.334c0.172,0.358,0.53,0.568,0.903,0.568C71.368,46.726,71.515,46.694,71.654,46.628z"/>
	<path d="M31.59,40.009c0.194,0.189,0.446,0.284,0.698,0.284c0.26,0,0.52-0.101,0.716-0.302c0.034-0.035,0.048-0.08,0.077-0.118
		c0.039-0.029,0.084-0.045,0.12-0.08c0.391-0.391,0.391-1.023,0-1.414l-4.963-4.966c-0.391-0.391-1.024-0.391-1.415,0
		c-0.049,0.05-0.074,0.111-0.111,0.167c-0.055,0.037-0.117,0.063-0.165,0.112c-0.386,0.396-0.378,1.028,0.018,1.414L31.59,40.009z"
		/>
	<path d="M26.46,56.897c-0.02-0.553-0.498-1.02-1.034-0.965l-7.017,0.243c-0.552,0.019-0.984,0.481-0.965,1.033
		c0.019,0.541,0.462,0.966,0.999,0.966c0.012,0,0.023,0,0.035-0.001l7.017-0.243C26.047,57.912,26.479,57.449,26.46,56.897z"/>
	<path d="M80.543,54.032l-7.017,0.243c-0.552,0.019-0.984,0.481-0.965,1.033c0.019,0.541,0.462,0.966,0.999,0.966
		c0.012,0,0.023,0,0.035-0.001l7.017-0.243c0.552-0.019,0.984-0.481,0.965-1.033C81.558,54.444,81.094,53.982,80.543,54.032z"/>
</g>
</svg>
