<?xml version="1.0"?>
<svg width="76" height="123" xmlns="http://www.w3.org/2000/svg">
 <!-- Created with Method Draw - http://github.com/duopixel/Method-Draw/ -->
 <g>
  <title>background</title>
  <g display="none" overflow="visible" y="0" x="0" height="100%" width="100%" id="canvasGrid">
   <rect fill="url(#gridpattern)" stroke-width="0" y="0" x="0" height="100%" width="100%"/>
  </g>
 </g>
 <g>
  <title>Layer 1</title>
  <path d="m42.816952,104.022545c-1,0 -1,-1 -2,-2c-1,-1 -1.310757,-1.534927 -3,-3c-2.388958,-2.07193 -6.03874,-2.480545 -8.999998,-2c-3.121445,0.506546 -6,0 -9,0c-4,0 -7.022476,0.633453 -10,1c-4.092209,0.503769 -6.173096,2.852737 -7,4c-1.307449,1.813995 -1,3 -1,4c0,1 -1.38269,3.076126 -1,4c0.541199,1.306564 1,2 2,3c1,1 2,3 3,4c1,1 3.076126,1.61731 4,2c1.306564,0.541199 4,3 6,3c4,0 5,0 6,0c1,0 3.012909,0.160187 4,0c3.121445,-0.506546 6.999998,-2 7.999998,-2c2,0 3.1731,-0.852737 4,-2c1.307453,-1.813995 2,-4 3,-6c1,-2 3,-6 3,-9c0,-3 1,-7 1,-10c0,-3 0,-7 0,-11c0,-5 0.498291,-10.937958 1,-17c0.24744,-2.989777 0,-9 0,-13c0,-4 0,-8 0,-14c0,-5 0,-10.000002 0,-16.000002c0,-4 1,-8 1,-11c0,-2 0,-5 0,-8c0,-1 0,-3 0,-2c0,1 0.519459,2.038734 1,5c0.50655,3.121445 0.359272,4.051651 1,8c0.50655,3.121445 2,5 2,7c0,1 -0.765362,2.152245 0,4c0.541203,1.306564 1.917606,2.386871 3,5c0.38269,0.923882 0.852741,2.173094 2,3.000002c1.813995,1.307449 4.418858,2.41885 6,4c1.58115,1.581146 3.07613,2.61731 4.000004,3c1.306564,0.541199 1.418854,1.41885 3,3c1.581146,1.581146 2.486252,2.823742 3,5c0.459503,1.946503 1.458801,3.693432 2,5c0.765366,1.847763 1,3 1,4c0,1 0,2 0,3c0,2 0,3 0,4c0,3 -1,6 -1,9c0,1 -0.292892,2.292892 -1,3c-0.707108,0.707108 -1,1 -2,2c-1,1 -1.292892,2.292892 -2,3c-0.707108,0.707108 -1,1 -2,1l-1,0" id="svg_30" fill-opacity="null" stroke-opacity="null" stroke-width="1.5" stroke="#000" fill="none"/>
 </g>
</svg>