<?xml version="1.0" encoding="utf-8"?>
<!-- Generator: Adobe Illustrator 16.0.0, SVG Export Plug-In . SVG Version: 6.00 Build 0)  -->
<!DOCTYPE svg PUBLIC "-//W3C//DTD SVG 1.1//EN" "http://www.w3.org/Graphics/SVG/1.1/DTD/svg11.dtd">
<svg version="1.1" id="Capa_1" xmlns="http://www.w3.org/2000/svg" xmlns:xlink="http://www.w3.org/1999/xlink" x="0px" y="0px"
	 width="57.835px" height="65.908px" viewBox="0 0 57.835 65.908" enable-background="new 0 0 57.835 65.908" xml:space="preserve">
<g>
	<path id="path3290" fill="#040606" d="M3.516,21.21c-0.125-1.375,0.889-2.591,2.264-2.716l34.724-3.156
		c1.375-0.125,2.593,0.889,2.718,2.264l2.81,30.917c0.125,1.375-0.889,2.592-2.264,2.717L9.042,54.39
		c-1.375,0.125-2.591-0.889-2.716-2.264L3.516,21.21z M6.818,65.897l41.211-3.748c1.375-0.125,2.389-1.34,2.264-2.715l-4.092-45.02
		c-0.125-1.375-1.342-2.389-2.717-2.264L2.273,15.897c-1.375,0.125-2.388,1.341-2.263,2.716l4.091,45.02
		C4.226,65.009,5.443,66.022,6.818,65.897"/>
	<path id="path3292" fill="#040606" d="M55.796,7.706L15.131,0.043c-1.357-0.255-2.664,0.638-2.92,1.994l-1.468,7.79
		c-0.255,1.356,2.922,1.718,3.179,0.362l0.953-4.695c0.255-1.356,1.562-2.249,2.92-1.994L52.06,9.956
		c1.355,0.256,2.249,1.562,1.994,2.92l-3.131,16.611c-0.256,1.357-0.362,3.571-0.237,4.946l0.627,6.889
		c0.125,1.375,0.435,1.39,0.688,0.033l5.789-30.729C58.046,9.269,57.155,7.962,55.796,7.706"/>
</g>
</svg>
