<?xml version="1.0" standalone="no"?>
<!DOCTYPE svg PUBLIC "-//W3C//DTD SVG 1.1//EN" "http://www.w3.org/Graphics/SVG/1.1/DTD/svg11.dtd" >
<svg xmlns="http://www.w3.org/2000/svg" xmlns:xlink="http://www.w3.org/1999/xlink" version="1.1">
<metadata></metadata>
<defs>
<font id="bubbleboyregular" horiz-adv-x="999" >
<font-face units-per-em="2048" ascent="1638" descent="-410" />
<missing-glyph horiz-adv-x="819" />
<glyph horiz-adv-x="0" />
<glyph unicode="&#xd;" horiz-adv-x="819" />
<glyph unicode=" "  horiz-adv-x="819" />
<glyph unicode="&#x09;" horiz-adv-x="819" />
<glyph unicode="&#xa0;" horiz-adv-x="819" />
<glyph unicode="!" horiz-adv-x="415" d="M0 12q0 123 145 123q146 0 146 -123q0 -125 -146 -125q-145 0 -145 125zM0 311v1245q0 39 55 66q45 23 90 23q43 0 91 -23q55 -27 55 -63v-1250q0 -43 -53 -67q-43 -20 -93 -21q-49 0 -92 21q-53 27 -53 69z" />
<glyph unicode="&#x22;" horiz-adv-x="745" d="M0 1522q0 123 145 123q146 -1 146 -138q0 -61 -43 -157.5t-88 -137.5q-8 6 -68 48q43 53 72 133q-90 12 -117 28q-47 27 -47 101zM340 1522q0 123 145 123q146 -1 146 -138q0 -61 -43 -157.5t-88 -137.5q-8 6 -68 48q43 53 72 133q-90 12 -117 28q-47 27 -47 101z" />
<glyph unicode="#" horiz-adv-x="1036" d="M0 387q0 88 74 100q27 2 84 5q18 72 49 256q-150 23 -150 114q0 104 138 105q20 0 41 -2q18 90 34 116q25 39 80 39q104 0 105 -119q0 -18 -2 -36h129q18 88 36 116q25 39 80 39q43 0 74 -29.5t31 -72.5q0 -25 -10 -47q31 -2 84 -17q16 -8 37.5 -41t21.5 -51 q0 -51 -48 -80.5t-102 -29.5q-12 0 -22 2q-23 -125 -41 -258q33 -2 96 -15q16 -8 38 -41.5t22 -52.5q0 -61 -70 -92q-57 -25 -123 -16q-16 -100 -16 -107q-29 -86 -99 -86q-104 0 -104 158q0 18 2 35h-131q-14 -100 -16 -107q-27 -86 -99 -86q-49 0 -78 47q-25 39 -24 92 q0 29 6 47q-63 18 -88 35q-39 27 -39 80zM377 492h133l41 260h-139q-4 -53 -35 -260z" />
<glyph unicode="$" horiz-adv-x="757" d="M0 381q0 152 106 151q70 0 89 -63q2 -10 28 -121q25 -63 96 -63q106 0 107 127q0 119 -86 131q-41 -4 -119 6q-221 86 -221 332q0 37 8 75q14 68 15 70q4 27 47 78q37 43 65 63q29 8 76 45q6 16 18 70q4 23 35 41t55 18q18 0 46 -14t36 -31q4 -31 25 -84q2 -4 74 -43 q63 -37 102 -122q35 -78 35 -136q0 -152 -107 -151q-66 0 -88 63q-14 59 -26 121q-25 63 -97 64q-106 0 -106 -127q0 -47 2 -54q18 -61 66 -73q49 2 135 -11q221 -87 221 -331q0 -29 -23 -146q-6 -31 -44 -76t-68 -65q-29 -8 -76 -43q-4 -27 -18 -72q-10 -20 -38 -39.5 t-51 -19.5q-59 0 -83 45q-4 33 -25 84q-8 12 -33.5 24.5t-48.5 24.5q-55 35 -92 109.5t-37 142.5z" />
<glyph unicode="%" horiz-adv-x="788" d="M0 799q0 123 145 123q146 0 146 -123q0 -125 -146 -125q-145 0 -145 125zM106 344q0 16 97 221q104 223 168 328q35 57 100 57q39 0 75 -31.5t36 -70.5q0 -12 -103 -225q-113 -233 -164 -322q-35 -59 -98 -59q-39 0 -75 31.5t-36 70.5zM397 395q0 123 146 123 q145 0 145 -123q0 -125 -145 -125t-146 125z" />
<glyph unicode="&#x26;" horiz-adv-x="593" d="M0 406q0 121 92 217q-51 70 -67 104q-25 53 -25 117q0 96 59 184q12 18 51.5 46t51.5 46q4 8 2 37q-2 33 0 47q20 80 104 80q80 0 99 -59q6 -16 10 -51q113 -23 112 -109q0 -78 -59 -98q-145 -6 -190 -60q-27 -31 -27 -63q0 -57 76 -96q25 -4 84 -19q80 -18 80 -104 q0 -72 -58 -97q-74 -12 -84 -16q-45 -12 -71.5 -42t-26.5 -64q0 -80 90 -105l113 -16q73 -19 73 -99q0 -74 -59 -98q-10 -4 -51 -10q-6 -113 -111 -113q-33 0 -68.5 25.5t-35.5 56.5q0 10 2 28.5t2 28.5q0 29 -53 68q-39 25 -56 51q-59 92 -59 183z" />
<glyph unicode="'" horiz-adv-x="313" d="M0 1522q0 123 145 123q146 -1 146 -138q0 -61 -43 -157.5t-88 -137.5q-8 6 -68 48q43 53 72 133q-90 12 -117 28q-47 27 -47 101z" />
<glyph unicode="(" horiz-adv-x="761" d="M0 688q0 293 133 615q53 131 162 229q121 113 248 113q123 0 123 -142q0 -131 -123 -143q-37 -4 -90 -74q-43 -55 -66 -106q-68 -150 -88 -262q-16 -88 -16 -230q0 -268 104 -489q78 -164 156 -183q18 0 57 -10q66 -27 66 -133q0 -141 -123 -141q-121 0 -246 114 q-106 96 -174 238q-123 254 -123 604z" />
<glyph unicode=")" horiz-adv-x="792" d="M0 -127q0 129 123 143q72 8 156 183q63 133 86 247q18 96 18 242q0 262 -98 477q-80 176 -162 195q-35 8 -80 26q-43 31 -43 117q0 141 125 142q123 0 250 -119q106 -102 168 -232q123 -264 123 -606q0 -303 -134 -614q-55 -127 -161 -228q-123 -115 -246 -114 q-125 0 -125 141z" />
<glyph unicode="*" horiz-adv-x="411" d="M0 621q0 125 145 124q146 1 146 -124q0 -123 -146 -123q-145 0 -145 123z" />
<glyph unicode="+" horiz-adv-x="925" d="M0 621q0 88 43 120q37 27 129 27q27 0 84 -2l16 186q20 76 136 76q90 0 120 -43q25 -35 25 -129q0 -27 -2 -84q94 -8 188 -14q76 -22 76 -137q0 -88 -40 -117t-132 -29q-27 0 -84 2l-16 -186q-23 -78 -135 -78q-88 0 -121 45q-27 37 -27 129q0 25 2 84l-186 16 q-76 20 -76 134z" />
<glyph unicode="," horiz-adv-x="397" d="M0 12q0 123 145 123t146 -137q0 -55 -38 -149.5t-77 -127.5q16 0 -16 -2q-29 -2 -31 0q0 2 6 2q-16 12 -43 27q43 53 72 135q-90 12 -117 29q-47 27 -47 100z" />
<glyph unicode="-" horiz-adv-x="696" d="M0 621q0 152 164 151q20 0 61 -3t62 -3q20 0 62 3t63 3q161 1 161 -151q0 -150 -163 -150q-20 0 -61.5 2t-61.5 2t-62.5 -2t-62.5 -2q-162 0 -162 150z" />
<glyph unicode="." horiz-adv-x="415" d="M0 12q0 123 145 123q146 0 146 -123q0 -125 -146 -125q-145 0 -145 125z" />
<glyph unicode="/" horiz-adv-x="704" d="M0 -104q0 -25 80 372q113 563 248 1162q6 29 43 48t69 19q61 0 115 -31q61 -37 61 -94q0 -2 -32 -145q-51 -221 -90 -422q-20 -106 -50 -234q-8 -39 -28 -135q-33 -141 -88 -403q-6 -37 -19.5 -113t-36.5 -108q-31 -45 -98 -45q-66 0 -115 30q-59 37 -59 99z" />
<glyph unicode="0" horiz-adv-x="991" d="M0 283v678q0 98 70 194q63 92 153 139q117 61 217 62q43 0 97 -10q119 -23 230.5 -144t111.5 -239v-682q0 -96 -68 -195q-66 -90 -154 -137q-117 -61 -217 -62q-193 0 -329 158q-111 125 -111 238zM291 297q0 -41 53 -80t96 -39t95.5 38t52.5 79v653q0 39 -53.5 78 t-94.5 39q-45 0 -97 -38t-52 -81v-649z" />
<glyph unicode="1" horiz-adv-x="417" d="M0 -23v1289q0 39 55 65q47 25 90 25q35 0 84 -23q61 -29 62 -65v-1293q0 -41 -55 -67q-45 -20 -91 -21q-47 0 -92 23q-53 27 -53 67z" />
<glyph unicode="2" horiz-adv-x="970" d="M-2 102v52q0 12 2 22v10q0 238 33 320q68 170 309 252q37 2 129 10q45 6 81 53t36 94q0 61 -43 105.5t-105 44.5q-51 0 -95 -35t-52 -84q-2 -27 -12 -72q-33 -66 -136 -65q-145 0 -145 121q0 174 132 300t308 126q180 0 309.5 -130t129.5 -311q0 -106 -56 -210 q-68 -127 -188 -185q-33 -16 -98 -35q-66 -4 -129 -12q-39 -6 -68 -35q-49 -49 -49 -78v-182h497q41 0 68 -55q23 -45 23 -90t-23 -90q-29 -55 -68 -56h-698q-92 0 -92 215z" />
<glyph unicode="3" horiz-adv-x="989" d="M0 313q0 121 145 121q37 0 78 -16q49 -18 56 -47q18 -86 18 -88q14 -45 51 -70q47 -35 92 -35q61 0 104.5 44t43.5 106q0 68 -47 110q-20 18 -66 29q-35 8 -76 18q-29 10 -47 55.5t-18 80.5q0 37 18.5 78.5t50.5 58.5q18 8 76 16q109 29 109 141q0 61 -43 105.5 t-105 44.5q-51 0 -95 -35t-52 -84q-2 -27 -12 -72q-33 -66 -136 -65q-145 0 -145 121q0 174 132 300t308 126q180 0 309.5 -130t129.5 -311q0 -168 -113 -294q113 -137 113 -293q0 -180 -129 -310.5t-310 -130.5q-176 0 -308 126t-132 300z" />
<glyph unicode="4" horiz-adv-x="1103" d="M0 698q0 287 100 598q18 59 113 60q59 0 111 -31q59 -35 59 -90q0 -4 -37 -174q-39 -180 -57 -293h299v498q0 41 53 67q45 23 92 23q35 0 84 -23q61 -29 62 -65v-496q70 -23 92 -65q14 -27 14 -86q0 -129 -106 -150v-496q0 -41 -56 -67q-45 -20 -90 -21q-47 0 -92 23 q-53 27 -53 67v500h-477q-80 0 -103 94q-8 35 -8 127z" />
<glyph unicode="5" horiz-adv-x="976" d="M0 313q0 121 145 121q37 0 78 -16q49 -18 56 -47q18 -86 18 -88q14 -45 51 -70q47 -35 92 -35q61 0 104.5 44t43.5 106q0 45 -37 96t-80 51h-381q-33 0 -63 47q-27 39 -27 66v655q0 37 34 75t70 38h670q49 0 80 -49q25 -43 25 -97q0 -45 -23 -90q-27 -55 -68 -55h-497 v-293q35 4 71 4q209 0 357 -117q160 -126 160 -331q0 -180 -129 -310.5t-310 -130.5q-176 0 -308 126t-132 300z" />
<glyph unicode="6" horiz-adv-x="985" d="M0 283v678q0 98 70 194q63 92 153 139q117 61 217 62q176 0 307.5 -126t131.5 -300q0 -121 -146 -121q-113 0 -135 65q-12 74 -16 87q-12 43 -50 71q-47 33 -92 33q-43 0 -96 -38t-53 -79v-176q35 4 69 4q211 0 359 -117q160 -126 160 -331q0 -180 -129 -310.5 t-310 -130.5q-193 0 -329 158q-111 125 -111 238zM291 297q0 -41 53 -80t96 -39q59 0 103.5 45.5t44.5 104.5q0 43 -37 95t-80 52h-180v-178z" />
<glyph unicode="7" horiz-adv-x="980" d="M0 1210q0 53 27.5 99.5t76.5 46.5h670q80 0 100 -111q5 -22 5 -135q0 -137 -31 -248q-59 -207 -119 -413q-70 -242 -104 -416q-23 -109 -54 -131q-20 -14 -96 -15q-55 0 -82 13q-49 23 -67 94l262 983v88h-498q-41 0 -67 55q-23 45 -23 90z" />
<glyph unicode="8" horiz-adv-x="989" d="M0 328q0 160 113 293q-113 152 -113 294q0 182 129 311.5t311 129.5q180 0 309.5 -130t129.5 -311q0 -168 -113 -294q113 -137 113 -293q0 -180 -129 -310.5t-310 -130.5q-182 0 -311 129t-129 312zM291 328q0 -61 44 -105.5t105 -44.5q59 0 103.5 45.5t44.5 104.5 t-44 103t-104 44q-61 0 -105 -43t-44 -104zM291 915q0 -59 45 -104t104 -45t103.5 45t44.5 104t-44 104.5t-104 45.5q-61 0 -105 -44t-44 -106z" />
<glyph unicode="9" horiz-adv-x="991" d="M0 915q0 182 129 311.5t311 129.5q43 0 97 -10q119 -23 230.5 -144t111.5 -239v-682q0 -92 -68 -191q-63 -90 -147 -139q-111 -63 -211 -64q-119 0 -119 146q0 43 22 86q27 51 66 57q53 8 61 12q37 8 58 27q47 41 47 82v172q-35 -2 -70 -2q-211 0 -358 117 q-160 127 -160 331zM291 915q0 -45 37 -96t80 -51h180v180q0 39 -53.5 78t-94.5 39q-61 0 -105 -44t-44 -106z" />
<glyph unicode=":" horiz-adv-x="415" d="M0 614q0 125 145 125q146 0 146 -125t-146 -125q-145 0 -145 125zM6 344q0 125 146 125q145 0 145 -125q0 -123 -145 -123t-146 123z" />
<glyph unicode=";" horiz-adv-x="417" d="M0 614q0 125 145 125q146 0 146 -125t-146 -125q-145 0 -145 125zM6 344q0 125 146 125q145 0 145 -137q0 -63 -42 -158.5t-89 -136.5q-6 6 -68 45q43 53 72 133q-86 12 -117 31q-47 29 -47 98z" />
<glyph unicode="&#x3c;" horiz-adv-x="905" d="M0 629q0 18 22.5 61t36.5 51q530 315 576 316q43 0 94 -65.5t51 -110.5q0 -61 -104 -127l-160 -86l-70 -39q47 -33 197 -117q74 -41 90 -55q47 -39 47 -80q0 -47 -49 -111.5t-96 -64.5q-27 0 -277 139q-221 123 -301 174q-14 8 -35.5 53t-21.5 62z" />
<glyph unicode="=" horiz-adv-x="942" d="M0 444q0 55 25 97q29 49 79 49h607q51 0 80 -49q24 -42 24 -97q0 -45 -22 -90q-27 -55 -68 -55h-635q-41 0 -67 55q-23 45 -23 90zM0 799q0 55 25 96q29 49 79 49h607q51 0 80 -49q24 -41 24 -96q0 -45 -22 -90q-27 -55 -68 -56h-635q-41 0 -67 56q-23 45 -23 90z" />
<glyph unicode="&#x3e;" horiz-adv-x="862" d="M0 377q0 59 137 135q57 31 197 117q-29 16 -283 162q-12 8 -31.5 41.5t-19.5 48.5q0 49 48 112.5t97 63.5q31 0 271 -137q100 -59 305 -179q18 -10 38.5 -49.5t20.5 -62.5q0 -16 -23.5 -61.5t-35.5 -53.5q-551 -313 -576 -313q-47 0 -96 64.5t-49 111.5z" />
<glyph unicode="?" horiz-adv-x="948" d="M0 930q0 174 132 300t308 126q180 0 309.5 -130.5t129.5 -310.5q0 -98 -43 -190q-45 -102 -121 -152q-49 -33 -159 -69.5t-155 -65.5q-23 -14 -49 -129q-20 -88 -143 -88q-145 0 -146 121q0 68 46 182q18 45 85.5 111.5t111.5 84t130 36.5q152 33 152 159q0 61 -43 105.5 t-105 44.5q-51 0 -95 -35t-52 -84q-2 -27 -12 -72q-33 -66 -136 -65q-145 0 -145 121zM63 12q0 123 146 123q145 0 145 -123q0 -125 -145 -125t-146 125z" />
<glyph unicode="@" horiz-adv-x="1021" d="M0 647q0 215 90 393q123 244 361 244q231 0 360 -250q96 -186 96 -395q0 -86 -18 -111q-33 -18 -90 -61q-55 -53 -164 -82q-84 -23 -150 -23h-34q-49 0 -111 50q-49 39 -61 65q-37 76 -37 170q0 104 45 182q57 100 170 101q111 0 172 -109q49 -88 49 -209q0 -35 -6 -65 q66 18 80 78q6 23 6 120q0 -43 -19 17q-20 74 -43 147q-29 100 -49 125q-86 109 -196 109q-133 0 -222 -142q-68 -109 -88 -239v-234q0 -6 9.5 -23.5t9.5 -25.5q8 -100 92 -209q94 -121 199 -120q72 0 133 53q29 25 90 100q43 53 67 53q29 0 47.5 -24.5t18.5 -52.5 q0 -63 -99.5 -155.5t-164.5 -98.5q-84 -16 -92 -17q-238 0 -361 250q-90 182 -90 389zM383 647q0 -43 16 -84q20 -51 58 -51q33 0 59 53q23 45 23 82q0 27 -19 76q-25 66 -63 65q-37 0 -58 -55q-16 -41 -16 -86z" />
<glyph unicode="A" horiz-adv-x="991" d="M0 328q0 209 147 331q139 115 353 115q41 0 86 -6q6 43 6 82q0 215 -152 215q-51 0 -95 -35t-52 -84q-2 -27 -12 -72q-33 -65 -133 -65h-3q-145 0 -145 121q0 174 132 300t308 126q43 0 97 -10q119 -23 230.5 -144t111.5 -239v-682q0 -96 -68 -195q-66 -90 -154 -137 q-117 -61 -217 -62q-182 0 -311 129t-129 312zM291 328q0 -61 44 -105.5t105 -44.5q43 0 95.5 38t52.5 79v180h-180q-41 0 -79 -52t-38 -95z" />
<glyph unicode="B" horiz-adv-x="987" d="M0 283v1273q0 39 55 66q45 23 90 23q37 0 84 -21q59 -27 60 -65v-234q74 31 151 31q43 0 97 -10q119 -23 230.5 -144t111.5 -239v-682q0 -96 -68 -195q-66 -90 -154 -137q-117 -61 -217 -62q-193 0 -329 158q-111 125 -111 238zM291 297q0 -41 53 -80t96 -39t95.5 38 t52.5 79v653q0 39 -53.5 78t-94.5 39q-45 0 -97 -38t-52 -81v-649z" />
<glyph unicode="C" horiz-adv-x="962" d="M0 283v678q0 98 70 194q63 92 153 139q117 61 217 62q176 0 307.5 -126t131.5 -300q0 -121 -146 -121q-113 0 -135 65q-12 74 -16 87q-12 43 -50 71q-47 33 -92 33q-43 0 -96 -38t-53 -79v-653q0 -47 53 -84q47 -33 96 -33q51 0 92 35t54 84q2 25 12 72q29 65 132 65h3 q146 0 146 -121q0 -174 -132.5 -300t-306.5 -126q-193 0 -329 158q-111 125 -111 238z" />
<glyph unicode="D" horiz-adv-x="1001" d="M0 283v678q0 96 68 194q63 92 153 139q117 61 219 62q82 0 144 -29q0 37 4 215q2 102 145 103q43 0 90 -23q55 -27 56 -63v-1278q0 -96 -68 -195q-66 -90 -154 -137q-117 -61 -217 -62q-193 0 -329 158q-111 125 -111 238zM291 297q0 -41 53 -80t96 -39t95.5 38t52.5 79 v653q0 39 -53.5 78t-94.5 39q-45 0 -97 -38t-52 -81v-649z" />
<glyph unicode="E" horiz-adv-x="983" d="M0 283v678q0 96 68 194q63 92 153 139q117 61 219 62q180 0 309.5 -130t129.5 -311q0 -209 -152 -331q-141 -115 -356 -115q-39 0 -78 4q-6 -45 -6 -84q0 -211 153 -211q51 0 92 35t54 84q2 25 12 72q29 65 132 65h3q146 0 146 -121q0 -174 -132.5 -300t-306.5 -126 q-193 0 -329 158q-111 125 -111 238zM291 768h180q39 0 78 53t39 94q0 59 -44 104.5t-104 45.5q-45 0 -97 -38t-52 -81v-178z" />
<glyph unicode="F" horiz-adv-x="665" d="M0 -23v1274q0 72 45 152q135 242 451 242q111 0 145 -21q47 -29 47 -125q0 -78 -32.5 -109.5t-108.5 -31.5h-35q-49 2 -37 2q-92 0 -135 -43q-49 -49 -49 -78v-141q31 -8 84 -8q10 0 28 2h29q82 0 119 -31t37 -113q0 -123 -90 -139q-100 -2 -201 -6l-6 -813 q-12 -102 -146 -103q-47 0 -92 23q-53 27 -53 67z" />
<glyph unicode="G" d="M0 23q0 120 143 120h2q37 0 78 -16q49 -20 56 -47q16 -84 18 -88q14 -43 51 -70q47 -35 92 -35q43 0 95.5 39t52.5 80v174q-369 2 -496 168q-92 121 -92 422q0 203 8 242q31 147 156 245.5t276 98.5q43 0 97 -10q119 -23 230.5 -144t111.5 -239v-973q0 -96 -68 -195 q-66 -90 -154 -137q-117 -61 -217 -61q-176 0 -308 125.5t-132 300.5zM289 812q2 -28 2 -42v-135q6 -94 45 -121q54 -37 70 -37h2h180v471q0 39 -53.5 78t-94.5 39q-153 0 -153 -208q0 -17 2 -45z" />
<glyph unicode="H" d="M0 -23v1579q0 39 55 66q45 23 90 23q37 0 84 -21q59 -27 60 -65v-234q74 31 151 31q43 0 97 -10q119 -23 230.5 -144t111.5 -239v-988q0 -41 -56 -67q-45 -20 -90 -21q-45 0 -90 23q-55 27 -55 67v969q0 45 -50.5 82t-97.5 37q-43 0 -96 -38t-53 -79v-973q0 -41 -55 -67 q-45 -20 -91 -21q-47 0 -92 23q-53 27 -53 67z" />
<glyph unicode="I" horiz-adv-x="417" d="M0 -23v1289q0 39 55 65q47 25 90 25q35 0 84 -23q61 -29 62 -65v-1293q0 -41 -55 -67q-45 -20 -91 -21q-47 0 -92 23q-53 27 -53 67zM0 1522q0 123 145 123q146 0 146 -123q0 -125 -146 -125q-145 0 -145 125z" />
<glyph unicode="J" horiz-adv-x="815" d="M0 -258q0 143 145 143q10 0 33 -2h33q61 0 119 29q68 37 67 94v1260q0 39 56 65q47 25 90 25q35 0 84 -23q61 -29 61 -65v-1278q0 -63 -47 -150q-132 -243 -448 -243h-3q-104 0 -139 20q-51 31 -51 125zM397 1522q0 123 146 123q145 0 145 -123q0 -125 -145 -125 t-146 125z" />
<glyph unicode="K" d="M0 -23v1579q0 39 55 66q45 23 90 23q49 0 93 -23q53 -29 53 -78v-756q47 78 125 232q172 342 233 342t124 -45t63 -105q0 -49 -240 -469q205 -121 256 -260q27 -73 27 -309q0 -20 2 -59t2 -60q0 -168 -150 -168q-45 0 -90 23q-55 27 -55 67v381q0 27 -45 73t-72 46h-180 v-502q0 -41 -55 -67q-43 -20 -91 -21q-47 0 -92 23q-53 27 -53 67z" />
<glyph unicode="L" horiz-adv-x="749" d="M0 283v1273q0 39 55 66q45 23 90 23q43 0 91 -23q55 -27 55 -63v-1264q0 -27 49 -80q31 -33 260 -39q88 -14 88 -143q0 -100 -59 -129q-33 -16 -133 -17q-104 0 -154 11q-121 25 -231.5 144.5t-110.5 240.5z" />
<glyph unicode="M" horiz-adv-x="1587" d="M0 -23v984q0 98 70 194q63 92 153 139q117 61 217 62q170 0 293 -115q141 115 295 115q43 0 96 -10q119 -23 230.5 -144t111.5 -239v-988q0 -41 -55 -67q-45 -20 -90 -21q-45 0 -90 23q-55 27 -55 67v969q0 43 -51.5 81t-96.5 38q-43 0 -96 -38t-53 -79v-973 q0 -41 -56 -67q-45 -20 -90 -21q-45 0 -90 23q-55 27 -55 67v969q0 45 -50.5 82t-97.5 37q-43 0 -96 -38t-53 -79v-973q0 -41 -55 -67q-45 -20 -91 -21q-47 0 -92 23q-53 27 -53 67z" />
<glyph unicode="N" d="M0 -23v984q0 98 70 194q63 92 153 139q117 61 217 62q43 0 97 -10q119 -23 230.5 -144t111.5 -239v-988q0 -41 -56 -67q-45 -20 -90 -21q-45 0 -90 23q-55 27 -55 67v969q0 45 -50.5 82t-97.5 37q-43 0 -96 -38t-53 -79v-973q0 -41 -55 -67q-45 -20 -91 -21q-47 0 -92 23 q-53 27 -53 67z" />
<glyph unicode="O" horiz-adv-x="991" d="M0 283v678q0 98 70 194q63 92 153 139q117 61 217 62q43 0 97 -10q119 -23 230.5 -144t111.5 -239v-682q0 -96 -68 -195q-66 -90 -154 -137q-117 -61 -217 -62q-193 0 -329 158q-111 125 -111 238zM291 297q0 -41 53 -80t96 -39t95.5 38t52.5 79v653q0 39 -53.5 78 t-94.5 39q-45 0 -97 -38t-52 -81v-649z" />
<glyph unicode="P" horiz-adv-x="995" d="M0 -313v1274q0 96 68 194q63 92 153 139q117 61 219 62q43 0 97 -10q119 -23 230.5 -144t111.5 -239v-682q0 -96 -68 -195q-66 -90 -154 -137q-117 -61 -217 -62q-92 0 -145 29q0 -37 -4 -215q-2 -104 -146 -104q-45 0 -90 22q-55 27 -55 68zM291 297q0 -41 53 -80 t96 -39t95.5 38t52.5 79v653q0 39 -53.5 78t-94.5 39q-45 0 -97 -38t-52 -81v-649z" />
<glyph unicode="Q" d="M0 283v678q0 96 68 194q63 92 153 139q117 61 219 62q43 0 97 -10q119 -23 230.5 -144t111.5 -239v-1278q0 -39 -56 -66q-43 -22 -86 -22h-4q-37 0 -84 20q-59 27 -59 70v229q-72 -29 -150 -29q-193 0 -329 158q-111 125 -111 238zM291 297q0 -41 53 -80t96 -39t95.5 38 t52.5 79v653q0 39 -53.5 78t-94.5 39q-45 0 -97 -38t-52 -81v-649z" />
<glyph unicode="R" horiz-adv-x="751" d="M0 -23v984q0 70 45 151q133 244 451 244q109 0 145 -23q47 -29 47 -123q0 -78 -32.5 -110.5t-108.5 -32.5h-35q-47 2 -37 2q-61 0 -117 -29q-68 -35 -67 -92v-973q0 -41 -55 -67q-45 -20 -91 -21q-47 0 -92 23q-53 27 -53 67z" />
<glyph unicode="S" horiz-adv-x="985" d="M0 313q0 121 145 121q37 0 78 -16q49 -18 56 -47q18 -86 18 -88q14 -45 51 -70q47 -35 92 -35q61 0 104.5 44t43.5 106q0 53 -34 95t-85 50l-109 16q-70 12 -116 31q-106 43 -176 162q-68 113 -68 233q0 182 129 311.5t311 129.5q176 0 307.5 -126t131.5 -300 q0 -121 -146 -121q-113 0 -135 65q-12 74 -16 87q-12 43 -50 71q-47 33 -92 33q-59 0 -104 -45t-45 -105q0 -51 33.5 -95t83.5 -48l129 -14q150 -33 246 -154.5t96 -275.5q0 -180 -129 -310.5t-310 -130.5q-176 0 -308 126t-132 300z" />
<glyph unicode="T" horiz-adv-x="761" d="M0 283v1273q0 39 55 66q45 23 90 23q119 0 140 -91l4 -194q33 -8 88 -8q8 0 26 2h25q84 0 122 -30t38 -114q0 -123 -90 -139q-100 -2 -201 -6l-6 -756q20 -78 60 -105.5t124 -27.5h53q82 0 121 -30.5t39 -112.5q0 -100 -59 -129q-33 -16 -133 -17q-104 0 -154 11 q-121 25 -231.5 144.5t-110.5 240.5z" />
<glyph unicode="U" horiz-adv-x="1001" d="M0 283v983q0 39 55 65q47 25 90 25q35 0 84 -23q61 -29 62 -65v-973q0 -47 53 -84q47 -33 96 -33q43 0 95.5 39t52.5 80v969q0 41 55 67q45 23 90 23q35 0 84 -23q61 -29 62 -65v-987q0 -96 -68 -195q-66 -90 -154 -137q-117 -61 -217 -62q-193 0 -329 158 q-111 125 -111 238z" />
<glyph unicode="V" horiz-adv-x="964" d="M0 1270q0 43 49 65q43 20 88 21q133 0 172 -156q18 -119 39 -237q18 -43 41 -162q31 -154 43 -197q51 244 158 684q8 33 57 51q39 16 80 17q39 0 86 -23q59 -28 59 -73q-2 -8 -67 -299l-103 -453q-43 -195 -77.5 -354.5t-51.5 -192.5q-39 -74 -141 -74q-80 0 -119 45 q-31 35 -47 121q-57 291 -162 754z" />
<glyph unicode="W" horiz-adv-x="1589" d="M0 283v983q0 39 55 65q47 25 90 25q35 0 84 -23q61 -29 62 -65v-973q0 -47 53 -84q47 -33 96 -33q43 0 95.5 39t52.5 80v969q0 41 55 67q45 23 90 23q35 0 84 -23q61 -29 62 -65v-973q0 -47 53 -84q47 -33 96 -33q43 0 95.5 38t52.5 81v969q0 41 55 67q45 23 90 23 q41 0 93 -25.5t52 -62.5v-987q0 -96 -67 -195q-66 -90 -154 -137q-117 -61 -217 -62q-158 0 -295 115q-135 -115 -293 -115q-193 0 -329 158q-111 125 -111 238z" />
<glyph unicode="X" horiz-adv-x="897" d="M0 12q0 10 94 234l154 368l-248 617q4 51 68 90q57 35 112 35q33 0 61.5 -31t37.5 -65q2 -14 40 -105q20 -49 74 -176q18 37 66 139q27 72 53 144q43 94 100 94q53 0 113 -35q68 -41 68 -90l-248 -617q47 -119 153 -368q97 -228 97 -234q0 -51 -68 -90q-59 -35 -115 -35 q-33 0 -62.5 31t-35.5 66q-4 29 -42 107.5t-73 158.5q-20 -55 -80 -162q-14 -20 -30.5 -79.5t-32.5 -82.5q-27 -39 -76 -39q-45 0 -106 33q-74 39 -74 92z" />
<glyph unicode="Y" horiz-adv-x="1005" d="M0 23q0 120 143 120h2q37 0 78 -16q49 -20 56 -47q16 -84 18 -88q14 -43 51 -70q47 -35 92 -35t96.5 38t51.5 81v174q-80 0 -244 15q-121 23 -232.5 143.5t-111.5 241.5v686q0 39 55 65q47 25 90 25q35 0 84 -23q61 -29 62 -65v-676q0 -23 46 -70t71 -47h180v791 q0 41 53 67q45 23 92 23q35 0 84 -23q61 -29 62 -65v-1278q0 -96 -68 -195q-66 -90 -154 -137q-117 -61 -217 -61q-176 0 -308 125.5t-132 300.5z" />
<glyph unicode="Z" horiz-adv-x="970" d="M0 33q0 31 193 440l274 588q-4 4 -365 4q-102 14 -102 145q0 53 27.5 99.5t76.5 46.5h670q51 0 80 -49q25 -41 25 -95q0 -31 -201 -456l-266 -574l364 -4q103 0 103 -145q0 -45 -23 -90q-29 -55 -68 -56h-698q-41 0 -67 56q-23 45 -23 90z" />
<glyph unicode="[" horiz-adv-x="571" d="M0 -158v1692q0 84 96 104q29 6 142 7q137 0 157 -7q80 -25 80 -139q0 -145 -145 -145q-20 0 -43 2v-1327q102 -6 137 -29q51 -31 51 -123q0 -147 -153 -147q14 0 -43 2h-41q-104 0 -140 8q-98 23 -98 102z" />
<glyph unicode="\" horiz-adv-x="706" d="M0 1372q0 59 61 94q51 31 115 31q102 0 133 -113l25 -180q70 -268 182 -809q100 -479 100 -499q0 -59 -59 -97q-51 -33 -115 -32q-102 0 -133 118l-28 183q-68 272 -181 806q-100 479 -100 498z" />
<glyph unicode="]" horiz-adv-x="598" d="M0 -123q0 147 143 148q20 0 45 -2v1327q-104 6 -137 26q-51 31 -51 123q0 115 76 139q20 6 162 7q106 0 135 -7q102 -23 102 -102v-1696q0 -78 -102 -100q-39 -8 -135 -8h-41q-55 -2 -43 -2q-154 0 -154 147z" />
<glyph unicode="a" horiz-adv-x="991" d="M-51 262q0 227 176 375q166 137 397 137q43 0 86 -6q25 84 25 150q0 147 -123 147q-51 0 -100.5 -35t-65.5 -84q-6 -27 -22 -72q-42 -65 -145 -65h-3q-127 0 -127 94q0 88 59 184q51 82 127 146q150 123 322 123q43 0 96 -10q111 -20 198 -130t87 -223q0 -16 -4 -30 l-107 -682q-14 -96 -102 -195q-78 -92 -172 -137q-127 -61 -227 -62q-166 0 -270.5 105.5t-104.5 269.5zM244 328q-2 -12 -2 -24q0 -44 30 -80q38 -46 97 -46q45 0 103.5 38t64.5 79l28 180h-180q-41 0 -88 -52t-53 -95z" />
<glyph unicode="b" horiz-adv-x="991" d="M-80 248q0 18 4 35l201 1273q6 41 72 68q49 20 88 21q43 0 86 -23q46 -22 46 -55q0 -4 -1 -8l-37 -234q76 31 153 31q41 0 95 -10q113 -23 198.5 -130.5t85.5 -222.5q0 -18 -2 -30l-108 -682q-16 -100 -101 -197q-76 -88 -174 -135q-127 -61 -225 -62q-182 0 -293 142 q-88 109 -88 219zM215 297q-1 -5 -1 -9q0 -36 42 -71q47 -39 90 -39t102.5 38t65.5 79l102 653q1 4 1 9q0 35 -42 69q-47 39 -88 39q-47 0 -104 -38t-64 -81z" />
<glyph unicode="c" horiz-adv-x="962" d="M-55 248q0 23 2 35l106 678q14 96 103 196q80 90 174 137q125 61 225 62q158 0 267.5 -104.5t109.5 -262.5q0 -33 -4 -59q-18 -121 -164 -121q-113 0 -127 65v72q0 49 -39 84t-88 35q-45 0 -100 -37q-61 -39 -68 -80l-102 -653q-1 -5 -1 -11q-1 -34 33 -67q38 -39 97 -39 q115 0 166 119q4 25 22 72q38 65 145 65h3q126 0 126 -93q0 -91 -61 -189q-53 -87 -133 -148q-152 -117 -313 -117q-182 0 -293 142q-86 109 -86 219z" />
<glyph unicode="d" horiz-adv-x="1001" d="M-80 248q0 18 4 35l107 678q16 100 100 196q76 90 174 137q125 61 227 62q82 0 140 -29q2 0 39 215q18 102 161 103q43 0 86 -23q46 -23 46 -56v-7l-203 -1278q-16 -100 -101 -197q-76 -88 -174 -135q-127 -61 -225 -62q-182 0 -293 142q-88 109 -88 219zM215 297 q-1 -5 -1 -9q0 -36 42 -71q47 -39 90 -39t102.5 38t65.5 79l102 653q1 4 1 9q0 35 -42 69q-47 39 -88 39q-47 0 -104 -38t-64 -81z" />
<glyph unicode="e" horiz-adv-x="983" d="M-55 248q0 23 2 35l106 678q14 96 103 196q80 90 174 137q125 61 225 62q166 0 270.5 -105.5t104.5 -269.5q0 -229 -180 -377q-168 -135 -404 -135q-39 0 -78 4q-22 -84 -22 -146v-5q0 -143 123 -144q115 0 166 119q4 25 22 72q38 65 145 65h3q126 0 126 -93 q0 -91 -61 -189q-53 -87 -133 -148q-152 -117 -313 -117q-182 0 -293 142q-86 109 -86 219zM313 768h181q39 0 87 53t54 94q2 12 2 24q0 45 -30 81q-38 46 -97 45q-47 0 -104.5 -38t-63.5 -81z" />
<glyph unicode="f" horiz-adv-x="665" d="M-125 -23l201 1274q10 70 69 152q172 242 490 242q88 0 115 -11q57 -18 57 -86q0 -20 -4 -49q-10 -78 -47 -109.5t-115 -31.5h-35q-47 2 -37 2q-61 0 -123 -31q-74 -35 -81 -90l-23 -141q31 -8 84 -8q10 0 29 2h28q137 0 138 -103q0 -14 -5 -41q-18 -123 -112 -139 q-100 -2 -201 -6l-135 -813q-29 -102 -162 -103q-45 0 -88 23q-44 22 -44 58q0 4 1 9z" />
<glyph unicode="g" d="M-76 -37q0 33 4 60q18 120 162 120h2q37 0 76 -16q47 -18 49 -51v-70q2 -47 42 -83t87 -36q45 0 103.5 39t64.5 80l27 174q-242 2 -361 68q-155 87 -155 302q0 69 22 220q16 115 47 242q55 156 211 256q137 88 273 88q43 0 96 -10q111 -20 197.5 -130t86.5 -223 q0 -18 -2 -30l-155 -973q-16 -100 -101 -197q-76 -88 -174 -135q-127 -61 -225 -61q-158 0 -267.5 104t-109.5 262zM315 602q0 -68 27 -88q49 -37 64 -37h2h180l74 471q1 5 1 9q0 36 -41 70q-47 38 -90 38q-119 0 -165 -129q-4 -10 -29 -166q-23 -141 -23 -168z" />
<glyph unicode="h" d="M-125 -23l250 1579q6 41 72 68q49 20 88 21q43 0 86 -23q46 -22 46 -55q0 -4 -1 -8l-37 -234q76 31 153 31q41 0 95 -10q113 -23 198.5 -130.5t85.5 -222.5q0 -18 -2 -30l-155 -988q-6 -39 -64 -65q-47 -23 -96 -23q-43 0 -86 23q-46 24 -46 59q0 4 1 8l153 969q1 5 1 10 q0 39 -40 72q-45 37 -90 37t-100 -37q-61 -39 -68 -80l-153 -973q-6 -41 -64 -65q-49 -23 -96 -23q-45 0 -88 23q-44 22 -44 58q0 4 1 9z" />
<glyph unicode="i" horiz-adv-x="417" d="M-125 -23l205 1289q6 37 63 65q51 25 95 25q37 0 81 -23q52 -27 52 -59v-6l-205 -1293q-6 -41 -64 -65q-49 -23 -96 -23q-45 0 -88 23q-44 22 -44 58q0 4 1 9zM117 1495q0 12 2 27q18 123 166 123q127 0 127 -99q0 -149 -166 -149q-129 0 -129 98z" />
<glyph unicode="j" horiz-adv-x="815" d="M-143 -303q0 20 4 45q23 143 168 143q10 0 32 -2h31q66 0 125 29q74 37 82 94l201 1260q6 37 63 65q51 25 94 25q37 0 82 -23q52 -27 52 -59v-6l-203 -1278q-10 -66 -70 -150q-171 -243 -486 -243h-3q-92 0 -125 14q-47 20 -47 86zM537 1495q0 12 2 27q18 123 166 123 q126 0 126 -95q0 -14 -2 -28q-18 -125 -163 -125q-129 0 -129 98z" />
<glyph unicode="k" d="M-125 -23l250 1579q6 41 72 68q49 20 88 21q49 0 88 -23q42 -25 42 -65q0 -6 -1 -13l-119 -756q63 84 162 232q225 342 286 342q59 0 115 -43q50 -43 50 -93q0 -7 -1 -14q-8 -47 -315 -469q223 -143 223 -333q0 -29 -31 -236q-4 -41 -14 -123q-25 -164 -176 -164 q-43 0 -86 23q-46 24 -46 59q0 4 1 8l61 381v5q0 25 -34 67q-38 47 -66 47h-178l-80 -502q-6 -39 -64 -65q-47 -23 -96 -23q-45 0 -88 23q-44 22 -44 58q0 4 1 9z" />
<glyph unicode="l" horiz-adv-x="749" d="M-80 250q0 16 4 33l201 1273q6 41 72 68q49 20 88 21q43 0 86 -23q46 -22 46 -55q0 -4 -1 -8l-201 -1264v-5q0 -27 37 -75q25 -33 254 -39q43 -6 59 -55q9 -26 9 -55q0 -16 -3 -33q-16 -100 -79 -129q-35 -16 -136 -17q-104 0 -151 11q-113 25 -199 131t-86 221z" />
<glyph unicode="m" horiz-adv-x="1587" d="M-102 -23l155 984q14 96 103 196q80 90 174 137q125 61 225 62q172 0 276 -115q160 115 312 115q43 0 96 -10q111 -20 198 -130t87 -223q0 -18 -2 -30l-158 -988q-6 -39 -64 -65q-47 -23 -94 -23q-49 0 -88 21q-44 22 -44 60q0 5 1 9l152 969q1 5 1 10q0 39 -40 72 q-45 37 -90 37q-43 0 -102.5 -38t-65.5 -79l-154 -973q-6 -39 -63 -65q-47 -23 -97 -23q-45 0 -86 23q-46 24 -46 59q0 4 1 8l154 969q1 7 1 14q0 38 -38 69q-45 36 -92 36q-45 0 -100 -37q-61 -39 -68 -80l-154 -973q-6 -39 -63 -65q-47 -23 -96 -23q-43 0 -86 23 q-46 24 -46 59q0 4 1 8z" />
<glyph unicode="n" d="M-102 -23l155 984q14 96 103 196q80 90 174 137q125 61 225 62q43 0 96 -10q111 -20 198 -130t87 -223q0 -16 -4 -30l-156 -988q-6 -39 -63 -65q-47 -23 -97 -23q-45 0 -86 23q-46 24 -46 59q0 4 1 8l154 969q1 7 1 14q0 38 -38 69q-45 36 -92 36q-45 0 -100 -37 q-61 -39 -68 -80l-154 -973q-6 -39 -63 -65q-47 -23 -96 -23q-43 0 -86 23q-46 24 -46 59q0 4 1 8z" />
<glyph unicode="o" horiz-adv-x="991" d="M-55 248q0 23 2 35l106 678q14 96 103 196q80 90 174 137q125 61 225 62q43 0 96 -10q111 -20 198 -130t87 -223q0 -16 -4 -30l-107 -682q-14 -96 -102 -195q-78 -92 -172 -137q-127 -61 -227 -62q-182 0 -293 142q-86 109 -86 219zM240 297q-1 -5 -1 -10q0 -38 41 -71 q46 -38 89 -38q45 0 103.5 38t64.5 79l102 653q1 4 1 9q0 35 -42 69q-47 39 -88 39q-47 0 -104.5 -38t-63.5 -81z" />
<glyph unicode="p" horiz-adv-x="995" d="M-125 -313l201 1274q14 96 102 196q80 90 174 137q125 61 226 62q43 0 96 -10q111 -20 197.5 -130t86.5 -223q0 -18 -2 -30l-108 -682q-14 -96 -103 -195q-78 -92 -172 -137q-127 -61 -227 -62q-90 0 -139 29q-2 0 -39 -215q-18 -104 -162 -104q-45 0 -86 22 q-46 24 -46 60q0 4 1 8zM262 297q-1 -5 -1 -10q0 -37 42 -71q47 -38 90 -38t101.5 38t64.5 79l105 653q1 4 1 9q0 34 -43 69q-49 39 -90 39q-45 0 -103 -39t-64 -80z" />
<glyph unicode="q" d="M-33 248q0 23 2 35l107 678q14 96 102 196q80 90 174 137q125 61 226 62q43 0 96 -10q111 -20 197.5 -130t86.5 -223q0 -18 -2 -30l-202 -1278q-6 -39 -66 -66q-47 -22 -90 -22h-4q-39 0 -82 20q-48 24 -48 61q0 5 1 9l35 229q-74 -29 -154 -29q-180 0 -291 142 q-88 109 -88 219zM262 297q-1 -5 -1 -10q0 -37 42 -71q47 -38 90 -38t101.5 38t64.5 79l105 653q1 4 1 9q0 34 -43 69q-49 39 -90 39q-45 0 -103 -39t-64 -80z" />
<glyph unicode="r" horiz-adv-x="751" d="M-102 -23l155 984q10 68 70 151q172 244 489 244q88 0 117 -10q55 -18 55 -89q0 -22 -4 -47q-12 -80 -48 -111.5t-114 -31.5q-37 0 -36 0q-49 2 -37 2q-61 0 -123 -31q-72 -35 -80 -90l-154 -973q-6 -39 -63 -65q-47 -23 -96 -23q-43 0 -86 23q-46 24 -46 59q0 4 1 8z " />
<glyph unicode="s" horiz-adv-x="985" d="M-53 254q0 33 4 59q18 121 164 121q35 0 73 -16q49 -18 52 -47q2 -74 4 -86q8 -47 39 -72q41 -35 86 -35q61 0 112 44t60 106q2 13 2 25q1 38 -19 70q-26 42 -78 50l-106 16q-70 12 -113 31q-90 39 -139 142q-45 90 -45 196q0 209 182 369q150 129 330 129 q158 0 267.5 -104.5t109.5 -262.5q0 -33 -4 -59q-18 -121 -164 -121q-113 0 -127 65v72q0 49 -39 84t-88 35q-61 0 -111.5 -45t-60.5 -105q-2 -11 -2 -23q0 -37 20 -71q26 -45 76 -49l125 -14q129 -29 205 -131.5t76 -237.5q0 -199 -157.5 -350.5t-356.5 -151.5 q-156 0 -266.5 105.5t-110.5 261.5z" />
<glyph unicode="t" horiz-adv-x="761" d="M-80 250q0 16 4 33l201 1273q6 41 72 68q49 20 88 21q125 0 125 -99l-27 -186q33 -8 86 -8q10 0 27 2h26q68 0 99 -17q41 -23 41 -86q0 -14 -5 -41q-18 -123 -110 -139q-102 -2 -203 -6l-125 -756q6 -76 44 -104.5t120 -28.5h53q139 0 139 -100q0 -18 -4 -43 q-16 -100 -79 -129q-35 -16 -136 -17q-104 0 -151 11q-113 25 -199 131t-86 221z" />
<glyph unicode="u" horiz-adv-x="1001" d="M-55 248q0 23 2 35l155 983q6 37 66 65q49 25 94 25q35 0 80 -23q52 -26 52 -58q0 -3 -1 -7l-153 -973q-1 -5 -1 -11q-1 -34 33 -67q38 -39 97 -39q45 0 103 38t65 81l153 969q6 37 66 65q51 25 94 25q41 0 84 -23q48 -26 48 -58q0 -4 -1 -7l-156 -987q-14 -96 -102 -195 q-78 -92 -172 -137q-127 -61 -227 -62q-182 0 -293 142q-86 109 -86 219z" />
<glyph unicode="v" horiz-adv-x="964" d="M102 1270q6 41 60 65q45 20 92 21q137 0 145 -150q2 -82 4 -243q8 -45 15 -162q6 -156 12 -197q74 197 266 684q12 31 64 51q41 16 82 17q47 0 88 -25q44 -24 44 -60q0 -6 -1 -11q-20 -51 -115 -299l-172 -453q-39 -100 -135 -354q-57 -158 -82 -193q-51 -74 -154 -74 q-78 0 -110 45q-25 37 -29 121q-8 250 -43 754z" />
<glyph unicode="w" horiz-adv-x="1589" d="M-55 248q0 23 2 35l155 983q6 37 66 65q49 25 94 25q35 0 80 -23q52 -26 52 -58q0 -3 -1 -7l-153 -973q-1 -5 -1 -11q-1 -34 33 -67q38 -39 97 -39q45 0 103 38t65 81l153 969q6 37 66 65q51 25 94 25q41 0 84 -23q48 -26 48 -58q0 -4 -1 -7l-154 -973q-1 -5 -1 -10 q0 -34 34 -68q39 -39 96 -39q45 0 103.5 38t64.5 81l154 969q6 37 65 65q51 25 95 25q41 0 84 -23q48 -26 48 -58q0 -4 -1 -7l-156 -987q-14 -96 -102 -195q-78 -92 -172 -137q-127 -61 -228 -62q-156 0 -276 115q-154 -115 -311 -115q-182 0 -293 142q-86 109 -86 219z" />
<glyph unicode="x" horiz-adv-x="897" d="M-96 12q117 201 344 602l-152 617q12 49 82 88q63 37 119 37q76 0 82 -96l27 -105q12 -49 45 -176q25 37 86 139q39 72 77 144q57 94 115 94q53 0 107 -35q56 -37 56 -81q0 -4 -1 -9l-346 -617q31 -125 94 -368q57 -219 57 -233q0 -50 -84 -93q-63 -33 -114 -33 q-35 0 -59.5 31t-24.5 66q0 23 -27 104q-12 39 -45 162q-31 -55 -106 -162q-6 -12 -64 -123q-41 -78 -106 -78q-55 0 -109 35q-54 34 -54 78q0 6 1 12z" />
<glyph unicode="y" horiz-adv-x="1005" d="M-76 -37q0 33 4 60q18 120 162 120h2q37 0 76 -16q47 -18 49 -51v-70q2 -47 42 -83t87 -36q45 0 103.5 39t64.5 80l27 174q-80 0 -242 15q-111 20 -198 128.5t-87 223.5q0 20 2 33l109 686q6 39 72 67q53 23 88 23q41 0 84 -23q48 -26 48 -58q0 -3 -1 -7l-107 -676 q-4 -25 34 -71t65 -46h180l125 791q6 41 63 67q47 23 96 23q41 0 84 -23q48 -27 48 -59v-6l-203 -1278q-16 -100 -101 -197q-76 -88 -174 -135q-127 -61 -225 -61q-158 0 -267.5 104t-109.5 262z" />
<glyph unicode="z" horiz-adv-x="970" d="M-92 33q6 35 260 440l369 588q-2 4 -365 4q-82 12 -82 109q0 63 36 122.5t93 59.5h672q51 0 71 -46q14 -33 13 -68q0 -15 -2 -30q-6 -33 -273 -456l-358 -574l365 -4q81 0 81 -107q0 -62 -36.5 -123t-77.5 -61h-701q-39 0 -57 58q-10 33 -10 63q0 13 2 25z" />
<glyph unicode="&#xa3;" horiz-adv-x="499" />
<glyph unicode="&#xad;" horiz-adv-x="696" d="M0 621q0 152 164 151q20 0 61 -3t62 -3q20 0 62 3t63 3q161 1 161 -151q0 -150 -163 -150q-20 0 -61.5 2t-61.5 2t-62.5 -2t-62.5 -2q-162 0 -162 150z" />
<glyph unicode="&#x2000;" horiz-adv-x="822" />
<glyph unicode="&#x2001;" horiz-adv-x="1645" />
<glyph unicode="&#x2002;" horiz-adv-x="822" />
<glyph unicode="&#x2003;" horiz-adv-x="1645" />
<glyph unicode="&#x2004;" horiz-adv-x="548" />
<glyph unicode="&#x2005;" horiz-adv-x="411" />
<glyph unicode="&#x2006;" horiz-adv-x="274" />
<glyph unicode="&#x2007;" horiz-adv-x="274" />
<glyph unicode="&#x2008;" horiz-adv-x="205" />
<glyph unicode="&#x2009;" horiz-adv-x="329" />
<glyph unicode="&#x200a;" horiz-adv-x="91" />
<glyph unicode="&#x2010;" horiz-adv-x="696" d="M0 621q0 152 164 151q20 0 61 -3t62 -3q20 0 62 3t63 3q161 1 161 -151q0 -150 -163 -150q-20 0 -61.5 2t-61.5 2t-62.5 -2t-62.5 -2q-162 0 -162 150z" />
<glyph unicode="&#x2011;" horiz-adv-x="696" d="M0 621q0 152 164 151q20 0 61 -3t62 -3q20 0 62 3t63 3q161 1 161 -151q0 -150 -163 -150q-20 0 -61.5 2t-61.5 2t-62.5 -2t-62.5 -2q-162 0 -162 150z" />
<glyph unicode="&#x2012;" horiz-adv-x="696" d="M0 621q0 152 164 151q20 0 61 -3t62 -3q20 0 62 3t63 3q161 1 161 -151q0 -150 -163 -150q-20 0 -61.5 2t-61.5 2t-62.5 -2t-62.5 -2q-162 0 -162 150z" />
<glyph unicode="&#x2013;" horiz-adv-x="1147" d="M0 621q0 152 293 151q36 0 109 -3t111 -3q36 0 111 3t112 3q288 1 288 -151q0 -150 -291 -150q-36 0 -110 2t-110 2t-112 -2t-111 -2q-290 0 -290 150z" />
<glyph unicode="&#x2014;" horiz-adv-x="2171" d="M0 621q0 152 586 151q72 0 218.5 -3t221.5 -3q71 0 221.5 3t225.5 3q575 1 575 -151q0 -150 -583 -150q-71 0 -219.5 2t-219.5 2q-72 0 -224 -2t-223 -2q-579 0 -579 150z" />
<glyph unicode="&#x202f;" horiz-adv-x="329" />
<glyph unicode="&#x205f;" horiz-adv-x="411" />
<glyph unicode="&#x25fc;" horiz-adv-x="1351" d="M0 0v1352h1352v-1352h-1352z" />
</font>
</defs>
</svg>
